<?xml version="1.0" standalone="no"?><!DOCTYPE svg PUBLIC "-//W3C//DTD SVG 1.1//EN" "http://www.w3.org/Graphics/SVG/1.1/DTD/svg11.dtd"><svg class="icon" width="32px" height="32.00px" viewBox="0 0 1024 1024" version="1.1" xmlns="http://www.w3.org/2000/svg"><path d="M512.001707 0 68.251307 121.040213l0 484.043093C68.251307 889.09312 512.001707 1024 512.001707 1024s443.746987-131.208533 443.746987-418.916693L955.748693 121.040213 512.001707 0zM716.770987 409.70752l0 68.241067L546.167467 477.948587l0 102.362453 170.605227 0 0 68.241067L546.167467 648.552107l0 136.48384-68.241067 0 0-136.48384-170.605227 0 0-68.241067 170.605227 0 0-102.362453-170.605227 0 0-68.241067 109.673813 0-109.673813-170.605227 102.362453 0 102.362453 159.230293 102.362453-159.230293 102.362453 0-109.673813 170.605227L716.770987 409.70752z" /></svg>
