<?xml version="1.0" standalone="no"?><!DOCTYPE svg PUBLIC "-//W3C//DTD SVG 1.1//EN" "http://www.w3.org/Graphics/SVG/1.1/DTD/svg11.dtd"><svg class="icon" width="32px" height="32.00px" viewBox="0 0 1024 1024" version="1.1" xmlns="http://www.w3.org/2000/svg"><path d="M512 42.667A469.333 469.333 0 1 0 981.333 512 469.333 469.333 0 0 0 512 42.667z m69.547 741.12a46.08 46.08 0 0 1-8.96 14.08 38.827 38.827 0 0 1-13.654 9.813 46.933 46.933 0 0 1-34.56 0 38.827 38.827 0 0 1-13.653-9.813 46.08 46.08 0 0 1-8.96-14.08A42.667 42.667 0 0 1 499.2 768a42.667 42.667 0 0 1 11.947-29.44 42.667 42.667 0 0 1 61.44 0A42.667 42.667 0 0 1 584.533 768a42.667 42.667 0 0 1-2.986 15.787z m101.12-357.12a142.933 142.933 0 0 1-17.494 38.826 159.147 159.147 0 0 1-26.026 30.294l-26.454 23.04q-13.226 10.666-22.186 19.2a60.16 60.16 0 0 0-10.24 12.8 45.653 45.653 0 0 0-5.12 13.653 123.733 123.733 0 0 0 0 24.747v42.666a34.133 34.133 0 0 1-68.267 0v-42.666a189.013 189.013 0 0 1 3.413-38.827 113.493 113.493 0 0 1 12.8-33.707 128 128 0 0 1 22.187-27.733c7.253-7.253 16.213-14.933 26.027-23.04l23.893-20.907a90.88 90.88 0 0 0 14.933-17.493 75.093 75.093 0 0 0 8.96-20.48 104.96 104.96 0 0 0 3.414-29.013 85.333 85.333 0 0 0-8.96-36.694 79.787 79.787 0 0 0-20.054-26.88 85.333 85.333 0 0 0-30.72-16.64 133.547 133.547 0 0 0-42.666-6.4 102.827 102.827 0 0 0-68.694 22.614A105.813 105.813 0 0 0 416 378.453a34.133 34.133 0 1 1-66.987-12.8 192.853 192.853 0 0 1 20.907-58.88 162.987 162.987 0 0 1 90.88-75.093 187.307 187.307 0 0 1 61.013-9.813 201.813 201.813 0 0 1 62.294 9.386 154.88 154.88 0 0 1 54.186 29.867 147.627 147.627 0 0 1 37.12 49.493 154.027 154.027 0 0 1 14.08 66.134 170.667 170.667 0 0 1-6.826 49.92z" /></svg>
