<?xml version="1.0" standalone="no"?><!DOCTYPE svg PUBLIC "-//W3C//DTD SVG 1.1//EN" "http://www.w3.org/Graphics/SVG/1.1/DTD/svg11.dtd"><svg t="1637823259549" class="icon" viewBox="0 0 1026 1024" version="1.1" xmlns="http://www.w3.org/2000/svg" p-id="11178" xmlns:xlink="http://www.w3.org/1999/xlink" width="32.0625" height="32"><defs><style type="text/css"></style></defs><path d="M0 189.443256v644.107071c0 104.193791 85.249465 189.443256 189.443256 189.443256h644.107071c104.193791 0 189.443256-85.249465 189.443256-189.443256V189.443256c0-104.193791-85.249465-189.443256-189.443256-189.443256H189.443256C85.249465 0 0 85.249465 0 189.443256z m833.550327-113.665954A113.961959 113.961959 0 0 1 947.21628 189.443256v113.665954h-113.665953a113.961959 113.961959 0 0 1-113.665954-113.665954V75.777302z m-189.443256 0V189.443256c0 104.193791 85.249465 189.443256 189.443256 189.443256H947.21628v454.663815a113.961959 113.961959 0 0 1-113.665953 113.665953H189.443256a113.961959 113.961959 0 0 1-113.665954-113.665953V189.443256A113.961959 113.961959 0 0 1 189.443256 75.777302z m0 0" p-id="11179"></path><path d="M303.10921 454.663815a38.007053 38.007053 0 0 0 37.888651 37.888651h136.399144L210.282014 759.667457c-15.15546 15.15546-15.15546 37.888651 0 53.044111s37.888651 15.15546 53.044112 0L530.441117 545.596577v136.399145a37.888651 37.888651 0 0 0 75.777302 0V454.663815c0-11.366595-3.788865-20.838758-11.366595-26.522056A37.429843 37.429843 0 0 0 568.329768 416.775163H340.997861a38.007053 38.007053 0 0 0-37.888651 37.888652z m0 0" p-id="11180"></path></svg>