<?xml version="1.0" standalone="no"?><!DOCTYPE svg PUBLIC "-//W3C//DTD SVG 1.1//EN" "http://www.w3.org/Graphics/SVG/1.1/DTD/svg11.dtd"><svg t="1658382276684" class="icon" viewBox="0 0 1026 1024" version="1.1" xmlns="http://www.w3.org/2000/svg" p-id="1246" xmlns:xlink="http://www.w3.org/1999/xlink"><defs><style type="text/css"></style></defs><path d="M284.421396 398.222222c0 31.416639 25.527142 56.915836 56.943781 56.915836h341.251494C714.059259 455.138058 739.559454 429.638862 739.559454 398.222222c0-31.443587-25.500195-56.861942-56.943781-56.861941H341.364179c-31.416639 0-56.942784 25.418355-56.942783 56.861941z" p-id="1247"></path><path d="M170.643618 142.215236L341.364179 113.777778V0L0.003899 56.861942V967.111111l341.36028 56.888889V910.167329l-170.720561-28.423485zM682.615673 0v113.777778L853.337232 142.21324v739.5326l-170.721559 28.421489V1024L1024.003899 967.111111V56.861942z" p-id="1248"></path><path d="M739.559454 625.777778c0-31.443587-25.500195-56.833996-56.943781-56.833996H341.364179c-31.416639 0-56.943782 25.390409-56.943781 56.833996s25.527142 56.833996 56.943781 56.833996h341.251494C714.059259 682.611774 739.559454 657.221365 739.559454 625.777778z" p-id="1249"></path></svg>
