<?xml version="1.0" encoding="utf-8"?>
<!-- Generator: Adobe Illustrator 15.0.0, SVG Export Plug-In . SVG Version: 6.00 Build 0)  -->
<!DOCTYPE svg PUBLIC "-//W3C//DTD SVG 1.1//EN" "http://www.w3.org/Graphics/SVG/1.1/DTD/svg11.dtd">
<svg version="1.1" id="图层_1" xmlns="http://www.w3.org/2000/svg" xmlns:xlink="http://www.w3.org/1999/xlink" x="0px" y="0px"
	 width="1024px" height="1024px" viewBox="0 0 1024 1024" enable-background="new 0 0 1024 1024" xml:space="preserve">
<g>
	<path fill="none" d="M686.524,593.939h-69.795c-19.272,0-34.932,15.636-34.932,34.91c0,19.271,15.659,34.931,34.932,34.931h69.795
		c19.296,0,34.932-15.659,34.932-34.931C721.456,609.575,705.82,593.939,686.524,593.939z"/>
	<path fill="none" d="M779.661,431.043H616.729c-19.272,0-34.932,15.602-34.932,34.886c0,19.273,15.659,34.92,34.932,34.92h162.932
		c19.272,0,34.886-15.647,34.886-34.92C814.547,446.645,798.934,431.043,779.661,431.043z"/>
	<path fill="none" d="M872.729,268.112H616.729c-19.272,0-34.932,15.647-34.932,34.919c0,19.285,15.659,34.92,34.932,34.92h255.999
		c19.295,0,34.886-15.636,34.886-34.92C907.614,283.759,892.023,268.112,872.729,268.112z"/>
	<path fill="none" d="M349.095,81.92H116.358c-22.035,0-46.535,24.5-46.535,46.579v605.076c0,22.046,24.5,46.545,46.535,46.545
		h232.737c44.125,0,83.261,22.137,116.374,46.567V221.567C465.469,156.192,414.458,81.92,349.095,81.92z"/>
	<path d="M905.842,12.125H669.525c-64.568,0-121.295,31.489-157.522,80.329c-36.25-48.84-92.954-80.329-157.533-80.329H118.164
		c-65.397,0-118.17,52.772-118.17,118.136v606.883c0,65.409,52.772,118.182,118.17,118.182H354.47
		c65.363,0,118.147,52.771,118.147,118.135c0,22.068,17.34,39.387,39.386,39.387c22.045,0,39.386-17.318,39.386-39.387
		c0-65.363,52.772-118.135,118.137-118.135h236.316c65.408,0,118.181-52.772,118.181-118.182V130.261
		C1024.022,64.897,971.25,12.125,905.842,12.125z M465.469,826.688c-33.113-24.431-72.25-46.567-116.374-46.567H116.358
		c-22.035,0-46.535-24.499-46.535-46.545V128.499c0-22.079,24.5-46.579,46.535-46.579h232.737
		c65.363,0,116.374,74.272,116.374,139.647V826.688z M686.524,663.78h-69.795c-19.272,0-34.932-15.659-34.932-34.931
		c0-19.274,15.659-34.91,34.932-34.91h69.795c19.296,0,34.932,15.636,34.932,34.91C721.456,648.121,705.82,663.78,686.524,663.78z
		 M779.661,500.849H616.729c-19.272,0-34.932-15.647-34.932-34.92c0-19.284,15.659-34.886,34.932-34.886h162.932
		c19.272,0,34.886,15.602,34.886,34.886C814.547,485.202,798.934,500.849,779.661,500.849z M872.729,337.952H616.729
		c-19.272,0-34.932-15.636-34.932-34.92c0-19.272,15.659-34.919,34.932-34.919h255.999c19.295,0,34.886,15.647,34.886,34.919
		C907.614,322.316,892.023,337.952,872.729,337.952z"/>
</g>
</svg>
