<?xml version="1.0" encoding="utf-8"?>
<!-- Generator: Adobe Illustrator 15.0.0, SVG Export Plug-In . SVG Version: 6.00 Build 0)  -->
<!DOCTYPE svg PUBLIC "-//W3C//DTD SVG 1.1//EN" "http://www.w3.org/Graphics/SVG/1.1/DTD/svg11.dtd">
<svg version="1.1" id="图层_1" xmlns="http://www.w3.org/2000/svg" xmlns:xlink="http://www.w3.org/1999/xlink" x="0px" y="0px"
	 width="1024px" height="1024px" viewBox="0 0 1024 1024" enable-background="new 0 0 1024 1024" xml:space="preserve">
<path fill-rule="evenodd" clip-rule="evenodd" d="M919.98,961.388c-15.53,7.663-32.599,11.469-49.668,11.469
	c-18.802,0-37.676-4.729-54.212-14.002L512.002,789.5L207.893,958.854c-31.568,17.602-71.537,18.535-103.88,2.533
	c-32.537-16.202-52.806-46.806-52.806-79.943V188.092c0-75.507,68.88-136.883,153.557-136.883H819.24
	c84.677,0,153.547,61.376,153.547,136.883v693.352C972.787,914.582,952.518,945.319,919.98,961.388L919.98,961.388z
	 M767.962,307.205h-511.93c-28.301,0-51.268,22.875-51.268,51.175c0,28.271,22.967,51.237,51.268,51.237h511.93
	c28.342,0,51.278-22.967,51.278-51.237C819.24,330.079,796.304,307.205,767.962,307.205L767.962,307.205z"/>
</svg>
