<?xml version="1.0" standalone="no"?><!DOCTYPE svg PUBLIC "-//W3C//DTD SVG 1.1//EN" "http://www.w3.org/Graphics/SVG/1.1/DTD/svg11.dtd"><svg class="icon" width="200px" height="200.00px" viewBox="0 0 1024 1024" version="1.1" xmlns="http://www.w3.org/2000/svg"><path d="M883.2 339.2v-4.266667c0-12.8-6.4-25.6-19.2-32L531.2 108.8c-10.666667-6.4-25.6-6.4-36.266667 0L155.733333 302.933333c-8.533333 4.266667-14.933333 14.933333-14.933333 25.6s6.4 21.333333 14.933333 25.6l123.733334 66.133334-123.733334 72.533333c-8.533333 4.266667-14.933333 14.933333-14.933333 25.6s6.4 21.333333 14.933333 25.6l125.866667 68.266667L155.733333 682.666667c-8.533333 4.266667-14.933333 14.933333-14.933333 25.6s6.4 21.333333 14.933333 25.6L494.933333 917.333333c10.666667 6.4 23.466667 6.4 34.133334 0l334.933333-166.4c12.8-6.4 19.2-19.2 19.2-32v-4.266666c0-12.8-6.4-25.6-19.2-32l-113.066667-66.133334 110.933334-55.466666c12.8-6.4 19.2-19.2 19.2-32v-4.266667c0-12.8-6.4-25.6-19.2-32l-110.933334-64 108.8-55.466667c17.066667-8.533333 23.466667-21.333333 23.466667-34.133333z m-117.333333 366.933333c6.4 4.266667 6.4 12.8 0 17.066667l-236.8 115.2c-10.666667 4.266667-23.466667 4.266667-32 0l-230.4-119.466667c-6.4-4.266667-6.4-12.8 0-14.933333l87.466666-51.2 140.8 76.8c10.666667 6.4 23.466667 6.4 34.133334 0l147.2-72.533333 89.6 49.066666z m0-189.866666c6.4 4.266667 6.4 12.8 0 17.066666l-236.8 115.2c-10.666667 4.266667-23.466667 4.266667-32 0l-230.4-119.466666c-6.4-4.266667-6.4-12.8 0-14.933334l87.466666-51.2 142.933334 76.8c10.666667 6.4 23.466667 6.4 34.133333 0l147.2-74.666666 87.466667 51.2z" /></svg>
