<?xml version="1.0" standalone="no"?><!DOCTYPE svg PUBLIC "-//W3C//DTD SVG 1.1//EN" "http://www.w3.org/Graphics/SVG/1.1/DTD/svg11.dtd"><svg class="icon" viewBox="0 0 1024 1024" version="1.1" xmlns="http://www.w3.org/2000/svg"><path d="M911.786667 686.293333l-154.453334-72.96 154.453334-72.96a32 32 0 0 0 0-57.813333L757.333333 409.6l154.453334-72.96a32 32 0 0 0 0-57.813333l-386.133334-182.4a32.213333 32.213333 0 0 0-27.306666 0l-386.133334 182.4a32 32 0 0 0 0 57.813333l154.453334 72.96-154.453334 72.96a32 32 0 0 0 0 57.813333l154.453334 72.96-154.453334 72.96a31.786667 31.786667 0 0 0-18.346666 28.8 32.426667 32.426667 0 0 0 18.346666 29.013334l386.133334 182.4a32.64 32.64 0 0 0 27.306666 0l386.133334-182.4a32.426667 32.426667 0 0 0 18.346666-29.013334 31.786667 31.786667 0 0 0-18.346666-28.8zM512 160.64l311.253333 146.986667L512 454.613333 200.746667 307.626667z m-170.666667 284.373333l156.8 74.026667a32.64 32.64 0 0 0 27.306667 0L682.666667 445.013333 823.253333 512 512 658.346667 200.746667 512z" /></svg>
