<?xml version="1.0" encoding="utf-8"?>
<!-- Generator: Adobe Illustrator 15.0.0, SVG Export Plug-In . SVG Version: 6.00 Build 0)  -->
<!DOCTYPE svg PUBLIC "-//W3C//DTD SVG 1.1//EN" "http://www.w3.org/Graphics/SVG/1.1/DTD/svg11.dtd">
<svg version="1.1" id="图层_1" xmlns="http://www.w3.org/2000/svg" xmlns:xlink="http://www.w3.org/1999/xlink" x="0px" y="0px"
	 width="1024px" height="1024px" viewBox="0 0 1024 1024" enable-background="new 0 0 1024 1024" xml:space="preserve">
<image overflow="visible" width="39" height="39" xlink:href="6E78D807.jpg"  transform="matrix(26.2307 0 0 26.2307 0 1.001)">
</image>
<path fill="#040000" d="M920.714,146.986h-102.31V98.341C817.713,44.164,772.014,0.681,716.12,1.014H306.905
	C251.011,0.719,205.287,44.215,204.62,98.341v48.645H102.336c-55.92-0.333-101.619,43.111-102.323,97.289v583.813
	c0.705,54.152,46.403,97.647,102.323,97.264h51.142v24.335c0,41.037,34.313,74.313,76.733,74.313
	c42.381,0,76.694-33.275,76.694-74.313v-24.335H716.12v24.335c0,41.037,34.299,74.313,76.694,74.313
	c42.42,0,76.72-33.275,76.72-74.313v-24.335h51.18c55.895,0.333,101.594-43.111,102.286-97.237v-583.84
	C1022.308,190.098,976.608,146.653,920.714,146.986z M634.789,516.394v53.025h-90.142v40.192h90.142v53.536h-90.142v73.544h-81.485
	v-73.544h-93.229v-53.536h93.229v-40.192h-93.229v-53.025h75.029L344.804,340.131h87.12c39.461,81.65,64.386,135.457,74.798,161.406
	h1.78c1.371-3.74,2.997-8.44,4.867-14.076c3.074-9.081,15.396-35.696,36.913-79.947l31.994-67.383h82.509L561.783,516.394H634.789z
	 M734.128,158.449H288.897V79.463h445.231V158.449z"/>
</svg>
