<?xml version="1.0" standalone="no"?><!DOCTYPE svg PUBLIC "-//W3C//DTD SVG 1.1//EN" "http://www.w3.org/Graphics/SVG/1.1/DTD/svg11.dtd"><svg t="1647247880944" class="icon" viewBox="0 0 1024 1024" version="1.1" xmlns="http://www.w3.org/2000/svg" p-id="2434" xmlns:xlink="http://www.w3.org/1999/xlink" width="48" height="48"><defs><style type="text/css"></style></defs><path d="M805.098667 634.666667c-1.066667 1.045333-2.005333 2.24-3.029334 3.306666L512 912.042667 223.637333 639.637333c-1.621333-1.621333-2.986667-3.370667-4.565333-5.056C98.325333 672 19.733333 731.690667 19.733333 799.168c0 113.301333 220.416 205.098667 492.266667 205.098667 271.936 0 492.245333-91.818667 492.245333-205.098667 0-67.477333-78.485333-127.168-199.146666-164.501333z" p-id="2435"></path><path d="M840.149333 347.904C840.149333 166.826667 693.269333 19.733333 512 19.733333 330.858667 19.818667 183.808 166.677333 183.808 347.989333c0 90.538667 36.757333 172.586667 96.170667 231.978667L512 799.168l232.042667-219.306667a326.890667 326.890667 0 0 0 96.149333-231.957333h-0.042667zM512 492.010667a144.042667 144.042667 0 0 1-144.085333-144.106667A144.106667 144.106667 0 1 1 512 492.010667z" p-id="2436"></path></svg>