<?xml version="1.0" encoding="utf-8"?>
<!-- Generator: Adobe Illustrator 15.0.0, SVG Export Plug-In . SVG Version: 6.00 Build 0)  -->
<!DOCTYPE svg PUBLIC "-//W3C//DTD SVG 1.1//EN" "http://www.w3.org/Graphics/SVG/1.1/DTD/svg11.dtd">
<svg version="1.1" id="图层_1" xmlns="http://www.w3.org/2000/svg" xmlns:xlink="http://www.w3.org/1999/xlink" x="0px" y="0px"
	 width="1024px" height="1024px" viewBox="0 0 1024 1024" enable-background="new 0 0 1024 1024" xml:space="preserve">
<g>
	<path d="M938.475,44.961C909.58,16.133,870.241-0.077,829.242,0.055H194.698
		C109.214,0.094,39.94,68.789,39.862,153.47v756.291c-0.093,21.104,6.039,41.761,17.657,59.471
		c33.367,53.709,104.141,70.788,158.678,38.235L494.911,882.63c12.46-7.711,28.288-7.711,40.735,0l271.018,122.68
		c17.894,11.5,38.762,17.525,60.077,17.446c64.103-0.21,116.022-51.655,116.232-115.207V153.47
		C983.395,112.854,967.344,73.789,938.475,44.961z M761.587,468.157L529.043,720.029c-4.447,4.79-10.868,7.579-17.605,7.579
		c-6.737,0-13.144-2.789-17.553-7.579l-232.61-251.873c-6.407-6.947-7.657-16.894-3.158-25.039l88.813-161.679
		c4.039-7.368,12.025-11.934,20.762-11.934h287.529c8.684,0,16.684,4.566,20.71,11.934l88.839,161.679
		C769.244,451.263,768.008,461.209,761.587,468.157z"/>
	<path d="M653.012,416.777c-8.289-1.658-16.815,1.04-22.369,7.079L511.438,549.457L392.244,423.856
		c-8.657-9.118-23.42-9.868-33.038-1.632c-9.605,8.237-10.355,22.341-1.697,31.46l136.575,143.902
		c4.421,4.711,10.736,7.368,17.354,7.368c6.604,0,12.946-2.657,17.394-7.368l136.548-143.902c5.685-5.869,7.685-14.237,5.105-21.881
		C667.958,424.145,661.247,418.409,653.012,416.777z"/>
</g>
</svg>
