<?xml version="1.0" encoding="utf-8"?>
<!-- Generator: Adobe Illustrator 15.0.0, SVG Export Plug-In . SVG Version: 6.00 Build 0)  -->
<!DOCTYPE svg PUBLIC "-//W3C//DTD SVG 1.1//EN" "http://www.w3.org/Graphics/SVG/1.1/DTD/svg11.dtd">
<svg version="1.1" id="图层_1" xmlns="http://www.w3.org/2000/svg" xmlns:xlink="http://www.w3.org/1999/xlink" x="0px" y="0px"
	 width="128px" height="128px" viewBox="0 0 128 128" enable-background="new 0 0 128 128" xml:space="preserve">
<path d="M4.49,2.608C3.291,8.924,2.607,15.409,2.607,22.071c0,57.327,46.474,103.802,103.793,103.802
	c6.662,0,13.164-0.692,19.471-1.883V2.608H4.49z M98.918,73.879c1.384,1.416,1.287,3.781-0.258,5.327
	c-1.528,1.528-3.91,1.642-5.311,0.241L74.005,60.096L54.657,79.447c-1.408,1.4-3.781,1.287-5.318-0.241
	c-1.545-1.546-1.642-3.911-0.242-5.327l19.347-19.347L49.097,35.178c-1.4-1.392-1.304-3.774,0.242-5.302
	c1.537-1.537,3.91-1.65,5.318-0.249l19.348,19.344L93.35,29.627c1.4-1.401,3.782-1.288,5.311,0.249
	c1.545,1.528,1.642,3.91,0.258,5.302L79.567,54.532L98.918,73.879z"/>
</svg>
