<?xml version="1.0" standalone="no"?><!DOCTYPE svg PUBLIC "-//W3C//DTD SVG 1.1//EN" "http://www.w3.org/Graphics/SVG/1.1/DTD/svg11.dtd"><svg t="1658382342435" class="icon" viewBox="0 0 1024 1024" version="1.1" xmlns="http://www.w3.org/2000/svg" p-id="1528" xmlns:xlink="http://www.w3.org/1999/xlink" width="32" height="32"><defs><style type="text/css"></style></defs><path d="M547.157333 48l126.848 257.130667c5.632 11.541333 16.64 19.498667 29.418667 21.333333l283.733333 41.173333c31.978667 4.650667 44.842667 44.010667 21.717334 66.666667l-205.290667 200.277333a39.36 39.36 0 0 0-11.285333 34.581334l48.426666 282.602666c5.525333 31.850667-28.074667 56.277333-56.64 41.194667l-253.781333-133.482667a39.168 39.168 0 0 0-36.437333 0l-253.696 133.482667c-28.672 15.082667-62.144-9.344-56.618667-41.194667l48.426667-282.602666a38.997333 38.997333 0 0 0-11.285334-34.581334L15.36 434.432c-23.146667-22.549333-10.410667-62.016 21.696-66.666667l283.733333-41.194666a38.869333 38.869333 0 0 0 29.418667-21.333334l126.848-257.130666c14.336-29.034667 55.765333-29.034667 70.101333-0.106667z" p-id="1529"></path></svg>