<?xml version="1.0" encoding="utf-8"?>
<!-- Generator: Adobe Illustrator 15.0.0, SVG Export Plug-In . SVG Version: 6.00 Build 0)  -->
<!DOCTYPE svg PUBLIC "-//W3C//DTD SVG 1.1//EN" "http://www.w3.org/Graphics/SVG/1.1/DTD/svg11.dtd">
<svg version="1.1" id="图层_1" xmlns="http://www.w3.org/2000/svg" xmlns:xlink="http://www.w3.org/1999/xlink" x="0px" y="0px"
	 width="16.016px" height="16px" viewBox="0 0 16.016 16" enable-background="new 0 0 16.016 16" xml:space="preserve">
<path fill="#06C461" d="M8,0C3.582,0,0,3.134,0,7c0,2.209,1.173,4.177,3,5.46V16l3.505-2.127C6.99,13.953,7.488,14,8,14
	c4.418,0,8-3.134,8-7S12.418,0,8,0z M11.508,9.219h-7c-0.276,0-0.5-0.225-0.5-0.5s0.224-0.5,0.5-0.5h7c0.276,0,0.5,0.225,0.5,0.5
	C12.008,8.996,11.784,9.219,11.508,9.219z M11.508,6.313h-7c-0.276,0-0.5-0.224-0.5-0.5s0.224-0.5,0.5-0.5h7
	c0.276,0,0.5,0.224,0.5,0.5S11.784,6.313,11.508,6.313z"/>
</svg>
