<?xml version="1.0" encoding="utf-8"?>
<!-- Generator: Adobe Illustrator 15.0.0, SVG Export Plug-In . SVG Version: 6.00 Build 0)  -->
<!DOCTYPE svg PUBLIC "-//W3C//DTD SVG 1.1//EN" "http://www.w3.org/Graphics/SVG/1.1/DTD/svg11.dtd">
<svg version="1.1" id="图层_1" xmlns="http://www.w3.org/2000/svg" xmlns:xlink="http://www.w3.org/1999/xlink" x="0px" y="0px"
	 width="128px" height="128px" viewBox="0 0 128 128" enable-background="new 0 0 128 128" xml:space="preserve">
<linearGradient id="SVGID_1_" gradientUnits="userSpaceOnUse" x1="63.9849" y1="0.312" x2="63.9849" y2="125.1725">
	<stop  offset="0" style="stop-color:#FFFFFF"/>
	<stop  offset="1" style="stop-color:#F2F2F2"/>
</linearGradient>
<path fill="url(#SVGID_1_)" d="M90.771,0.092H3.892c-2.15,0-3.797,1.576-3.797,3.58v86.656
	c0.128,19.418,16.778,35.203,37.104,35.203h86.877c2.15,0,3.799-1.581,3.799-3.582V35.356
	C127.811,15.934,111.156,0.092,90.771,0.092z M61.621,88.627c0,4.362-1.584,8.12-4.713,11.171c-3.125,3.048-6.918,4.54-11.287,4.433
	c-11.893-0.291-21.565-9.965-21.857-21.858c-0.106-4.367,1.383-8.16,4.433-11.285c3.05-3.129,6.806-4.714,11.174-4.714h17.79
	c2.457,0,4.46,2.008,4.46,4.465V88.627z M61.621,57.179c0,2.461-2.003,4.463-4.46,4.463h-17.79c-4.368,0-8.124-1.583-11.174-4.708
	c-3.049-3.128-4.539-6.923-4.433-11.287c0.292-11.896,9.964-21.571,21.857-21.862c4.368-0.104,8.162,1.384,11.287,4.433
	c3.129,3.05,4.713,6.805,4.713,11.174V57.179z M82.348,104.229c-4.365,0.108-8.16-1.384-11.283-4.432
	c-3.129-3.051-4.713-6.809-4.713-11.171v-17.79c0-2.457,2.002-4.465,4.459-4.465H88.6c4.371,0,8.125,1.585,11.176,4.714
	c3.051,3.125,4.539,6.918,4.434,11.285C103.916,94.266,94.243,103.938,82.348,104.229z M99.775,56.934
	c-3.051,3.125-6.807,4.708-11.176,4.708H70.811c-2.457,0-4.459-2.002-4.459-4.463V39.392c0-4.369,1.584-8.124,4.713-11.174
	c3.123-3.049,6.918-4.538,11.283-4.433c11.896,0.291,21.568,9.966,21.86,21.862C104.313,50.011,102.825,53.805,99.775,56.934z"/>
</svg>
