<?xml version="1.0" standalone="no"?><!DOCTYPE svg PUBLIC "-//W3C//DTD SVG 1.1//EN" "http://www.w3.org/Graphics/SVG/1.1/DTD/svg11.dtd"><svg t="1647247901254" class="icon" viewBox="0 0 1024 1024" version="1.1" xmlns="http://www.w3.org/2000/svg" p-id="2840" xmlns:xlink="http://www.w3.org/1999/xlink" width="48" height="48"><defs><style type="text/css"></style></defs><path d="M922.752 32.789333H101.248a68.522667 68.522667 0 0 0-68.458667 68.458667v821.504a68.522667 68.522667 0 0 0 68.458667 68.458667h821.504a68.522667 68.522667 0 0 0 68.458667-68.458667V101.248c0-37.76-30.72-68.458667-68.458667-68.458667zM323.733333 854.293333c-84.949333 0-154.026667-69.098667-154.026666-154.026666s69.077333-154.048 154.026666-154.048c84.928 0 154.026667 69.098667 154.026667 154.048 0.021333 84.928-69.077333 154.026667-154.026667 154.026666z m164.288-594.538666l-129.408 159.04a67.669333 67.669333 0 0 1-52.970666 25.216 68.096 68.096 0 0 1-51.370667-23.146667L178.282667 334.933333a34.24 34.24 0 0 1 51.285333-45.376l75.989333 85.973334 129.408-158.976a34.24 34.24 0 0 1 53.056 43.2zM820.053333 794.389333h-226.133333a34.218667 34.218667 0 0 1 0-68.437333h226.133333a34.218667 34.218667 0 0 1 0 68.437333z m0-145.472h-226.133333a34.218667 34.218667 0 0 1 0-68.437333h226.133333a34.218667 34.218667 0 0 1 0 68.437333z m0-205.376h-226.133333a34.218667 34.218667 0 0 1 0-68.437333h226.133333a34.218667 34.218667 0 0 1 0 68.437333z m0-136.917333h-226.133333a34.218667 34.218667 0 0 1 0-68.437333h226.133333a34.218667 34.218667 0 0 1 0 68.437333z" p-id="2841"></path><path d="M323.733333 614.677333a85.674667 85.674667 0 0 0-85.568 85.589334c0 47.189333 38.4 85.568 85.568 85.568s85.568-38.378667 85.568-85.568a85.653333 85.653333 0 0 0-85.568-85.589334z" p-id="2842"></path></svg>