<?xml version="1.0" standalone="no"?><!DOCTYPE svg PUBLIC "-//W3C//DTD SVG 1.1//EN" "http://www.w3.org/Graphics/SVG/1.1/DTD/svg11.dtd"><svg t="1630051955891" class="icon" viewBox="0 0 1024 1024" version="1.1" xmlns="http://www.w3.org/2000/svg" p-id="27172" xmlns:xlink="http://www.w3.org/1999/xlink" ><defs><style type="text/css"></style></defs><path d="M905.11179 79.413089q40.14072 28.006344 63.897472 47.308706a380.364039 380.364039 0 0 1 36.403127 32.716734 66.559867 66.559867 0 0 1 15.359969 22.783955 54.98869 54.98869 0 0 1 2.969595 16.332767v18.687963h-218.469964a43.110314 43.110314 0 0 1-27.494345-8.755183 81.510237 81.510237 0 0 1-18.585562-20.479959 96.819006 96.819006 0 0 1-11.161578-23.910352 73.164654 73.164654 0 0 1-3.737593-20.479959v-143.359714h2.969594a130.918138 130.918138 0 0 1 25.24155 2.355196 115.302169 115.302169 0 0 1 28.979142 11.110378q17.100766 8.755182 41.625517 24.524751t62.003076 41.164717z m-254.156292 66.559867a146.534107 146.534107 0 0 0 8.908782 47.871904 138.905322 138.905322 0 0 0 28.262344 47.308706 158.719683 158.719683 0 0 0 49.049502 36.198327 156.774086 156.774086 0 0 0 69.83666 14.591971H1023.997952v584.90763a110.642979 110.642979 0 0 1-17.100766 60.723079 159.180482 159.180482 0 0 1-45.311909 46.079908 229.83634 229.83634 0 0 1-62.412675 29.79834 226.917946 226.917946 0 0 1-66.867067 10.495979H191.692417a173.158054 173.158054 0 0 1-61.439878-12.851174 271.973856 271.973856 0 0 1-62.412675-33.843133 207.103586 207.103586 0 0 1-48.281503-48.435103 97.279805 97.279805 0 0 1-19.302362-56.627086V150.632147a106.290987 106.290987 0 0 1 14.847971-51.199898 181.657237 181.657237 0 0 1 39.372721-48.435103A233.113134 233.113134 0 0 1 110.23338 14.798818 152.575695 152.575695 0 0 1 175.615649 0.206848h475.442249v145.970908z m-118.886162 526.590947a49.356701 49.356701 0 0 0 19.302361-37.375925 38.707123 38.707123 0 0 0-16.332767-36.198328L291.276217 406.324435a75.622249 75.622249 0 0 0-87.705424 0 45.567909 45.567909 0 0 0-17.817565 35.839929 42.342315 42.342315 0 0 0 17.817565 34.457531l199.167602 158.719682-199.167602 157.644485a42.342315 42.342315 0 0 0-17.817565 34.457531 45.567909 45.567909 0 0 0 17.817565 35.839928 75.622249 75.622249 0 0 0 87.705424 0z m304.69059 129.586941h-279.397841v73.574253h279.397841z"  p-id="27173"></path></svg>