<?xml version="1.0" encoding="utf-8"?>
<!-- Generator: Adobe Illustrator 15.0.0, SVG Export Plug-In . SVG Version: 6.00 Build 0)  -->
<!DOCTYPE svg PUBLIC "-//W3C//DTD SVG 1.1//EN" "http://www.w3.org/Graphics/SVG/1.1/DTD/svg11.dtd">
<svg version="1.1" id="图层_1" xmlns="http://www.w3.org/2000/svg" xmlns:xlink="http://www.w3.org/1999/xlink" x="0px" y="0px"
	 width="1024px" height="1024px" viewBox="0 0 1024 1024" enable-background="new 0 0 1024 1024" xml:space="preserve">
<g>
	<path d="M563.139,256.031c28.334,0,51.273-22.937,51.273-51.274V102.412c0-28.336-22.939-51.205-51.273-51.205H358.445h-51.273
		H102.379c-28.304,0-51.173,22.869-51.173,51.205v102.346c0,28.337,22.869,51.274,51.173,51.274h153.653v665.617
		c0,28.271,22.87,51.143,51.14,51.143h51.273c28.271,0,51.14-22.872,51.14-51.143V256.031H563.139z"/>
	<path d="M921.651,358.444H767.965h-51.14H563.139c-28.206,0-51.141,22.87-51.141,51.14v102.413
		c0,28.27,22.935,51.142,51.141,51.142h102.413v358.51c0,28.271,23,51.143,51.273,51.143h51.14c28.27,0,51.273-22.872,51.273-51.143
		v-358.51h102.413c28.268,0,51.14-22.872,51.14-51.142V409.583C972.791,381.313,949.919,358.444,921.651,358.444z"/>
</g>
</svg>
