<?xml version="1.0" encoding="utf-8"?>
<!-- Generator: Adobe Illustrator 15.0.0, SVG Export Plug-In . SVG Version: 6.00 Build 0)  -->
<!DOCTYPE svg PUBLIC "-//W3C//DTD SVG 1.1//EN" "http://www.w3.org/Graphics/SVG/1.1/DTD/svg11.dtd">
<svg version="1.1" id="图层_1" xmlns="http://www.w3.org/2000/svg" xmlns:xlink="http://www.w3.org/1999/xlink" x="0px" y="0px"
	 width="1024px" height="1024px" viewBox="0 0 1024 1024" enable-background="new 0 0 1024 1024" xml:space="preserve">
<g>
	<path d="M377.843,104.607h255.396c18.771,0,34.587-15.612,34.587-34.86c0-19.259-15.771-34.792-35.609-34.792H377.843
		c-19.794,0-35.622,15.532-35.622,34.792C342.222,88.996,358.083,104.607,377.843,104.607z"/>
	<path d="M437.111,724.816c-95.066-23.346-176.851-94.64-229.559-193.535c-6.442-12.18-6.442-26.349,0-38.518
		c64.937-121.841,174.006-201.833,297.676-201.833c111.104,0,210.421,64.594,276.55,166.093
		c53.154,7.751,101.871,29.362,142.342,61.055V153.137c0-54.085-29.452-91.57-91.174-91.57l-118.283-3.317
		c0.841,4.352,0,18.782,0,23.248c0.046,33.53-40.587,69.833-69.79,69.833H365.617c-30.747,0-69.8-36.303-69.8-69.833
		c0.045-4.466-0.83-18.896,0-23.248H179.441c-66.766,0-93.081,40.803-93.081,94.888v675.515c0,58.039,23.508,90.627,88.253,90.627
		h308.574c-30.192-47.06-47.713-102.991-47.713-162.938C435.474,745.696,436.034,735.181,437.111,724.816z"/>
	<path d="M395.432,512c0,48.522,31.084,89.746,74.299,104.614c30.856-59.013,80.611-106.631,141.188-134.778
		c-13.041-46.375-55.402-80.348-105.645-80.348C444.621,401.488,395.432,450.961,395.432,512z"/>
	<path d="M924.12,616.743c-30.03-39.989-72.642-69.99-121.961-84.124c-20.4-5.847-41.946-8.984-64.226-8.984
		c-52.13,0-100.257,17.157-139.048,46.128c-15.248,11.388-29.047,24.605-41.086,39.319c-28.207,34.476-46.72,77.188-51.37,123.977
		c-0.761,7.658-1.156,15.424-1.156,23.282c0,63.455,25.401,120.961,66.571,162.938c42.224,43.05,101.033,69.766,166.089,69.766
		c128.532,0,232.704-104.171,232.704-232.703C970.638,703.971,953.328,655.636,924.12,616.743z M870.829,668.575
		c4.5-4.636,11.022-6.408,17.113-4.636c6.09,1.772,10.771,6.864,12.362,13.272c1.545,6.408-0.274,13.225-4.796,17.861
		L781.36,812.199c-6.907,7.089-17.975,7.044-24.838-0.137l-58.79-61.676l-92.786,93.854c-3.295,3.363-7.682,5.183-12.249,5.183
		c-7.182,0-13.657-4.591-16.339-11.545c-2.704-7.044-1.068-15.045,4.113-20.316l105.284-106.489
		c6.932-6.954,17.908-6.864,24.68,0.272l58.699,61.584L870.829,668.575z"/>
</g>
</svg>
