<?xml version="1.0" encoding="utf-8"?>
<!-- Generator: Adobe Illustrator 15.0.0, SVG Export Plug-In . SVG Version: 6.00 Build 0)  -->
<!DOCTYPE svg PUBLIC "-//W3C//DTD SVG 1.1//EN" "http://www.w3.org/Graphics/SVG/1.1/DTD/svg11.dtd">
<svg version="1.1" id="图层_1" xmlns="http://www.w3.org/2000/svg" xmlns:xlink="http://www.w3.org/1999/xlink" x="0px" y="0px"
	 width="1024px" height="1024px" viewBox="0 0 1024 1024" enable-background="new 0 0 1024 1024" xml:space="preserve">
<g>
	<path d="M384.168,742.138H251.807c-25.875,0-46.887-17.101-46.887-38.199c0-21.102,21.012-38.2,46.887-38.2h144.767
		c17.614-60.603,52.665-113.781,99.37-153.75H243.094c-21.2,0-38.413-17.201-38.413-38.4c0-21.213,17.212-38.375,38.413-38.375
		h459.834h1.971c12.804,0.04,25.425,0.826,37.821,2.335c68.718,8.37,130.572,38.663,178.773,83.489V102.375
		c0-56.525-45.874-102.388-102.4-102.388H153.482c-56.563,0-102.388,45.862-102.388,102.388v742.413
		c0,56.551,45.825,102.4,102.388,102.4h294.85c-40.275-53.502-64.45-119.85-64.45-192.001
		C383.882,750.814,383.995,746.468,384.168,742.138z M243.094,204.788h486.4c21.2,0,38.425,17.213,38.425,38.413
		c0,21.212-17.225,38.375-38.425,38.375h-486.4c-21.2,0-38.413-17.163-38.413-38.375C204.682,222,221.894,204.788,243.094,204.788z"
		/>
	<path d="M716.719,512.038c-105.041,0-195.29,63.224-234.765,153.7c-10.384,23.801-17.267,49.48-19.966,76.399
		c-0.853,8.501-1.293,17.124-1.293,25.851c0,141.399,114.625,256,256.024,256c141.351,0,255.976-114.601,255.976-256
		C972.694,626.588,858.069,512.038,716.719,512.038z M889.995,700.538L764.42,829.438c-7.575,7.8-19.775,7.75-27.301-0.2
		l-64.674-67.85l-102.076,103.3c-3.65,3.65-8.475,5.7-13.5,5.7c-7.9,0-14.976-5.05-17.95-12.75c-2.976-7.699-1.199-16.5,4.501-22.3
		l92.165-93.2l23.685-23.95c7.6-7.699,19.699-7.6,27.175,0.301l22.542,23.649l42.033,44.1l111.875-114.8
		c4.95-5.1,12.125-7.05,18.8-5.1c6.7,2,11.875,7.499,13.601,14.601C896.994,687.988,894.994,695.488,889.995,700.538z"/>
</g>
</svg>
