<svg t="1636594486461" class="icon" viewBox="0 0 1024 1024" version="1.1" xmlns="http://www.w3.org/2000/svg" p-id="5596" width="32" height="32"><path d="M873.53758 0.002968H149.430097C67.040482-0.508769 0.514706 65.50527 0.00297 147.894885v726.666167c-0.511737 81.877878 65.502302 148.91539 147.891917 149.427127h726.666166c81.366141 1.023473 148.403654-64.478829 149.427127-146.356707V149.941832C1023.476444 67.040481 956.950668 0.002968 874.561053 0.002968h-1.023473z m-63.967092 673.957283c0 22.00468-17.910786 40.427202-40.427203 40.427202H492.293711C468.242084 768.631547 404.274992 793.19491 350.030898 768.631547c-24.051627-10.746471-43.497623-30.192467-54.755831-54.755831h-42.474149c-22.00468 0-40.427202-17.910786-40.427203-40.427202v-1.53521c0-22.00468 17.910786-40.427202 40.427203-40.427202h42.985886c24.051627-54.244094 88.018719-78.807458 142.262813-54.755831 24.051627 10.746471 43.497623 30.192467 54.75583 54.755831h276.849575c22.00468 1.023473 39.403729 18.422523 40.427202 40.427202l-0.511736 2.046947z m0-319.835461c0 22.00468-17.910786 40.427202-40.427203 40.427202H726.669136c-24.051627 54.244094-88.018719 78.807458-142.262813 54.755831-24.051627-10.746471-43.497623-30.192467-54.755831-54.755831h-276.337838c-22.00468 0-40.427202-17.910786-40.427202-40.427202v-1.53521c0-22.00468 17.910786-40.427202 40.427202-40.427202h276.849575c24.051627-54.244094 88.018719-78.807458 142.262813-54.755831 24.051627 10.746471 43.497623 30.192467 54.755831 54.755831h42.985886c22.00468 0.511737 39.915465 18.422523 40.427202 40.427202v1.53521h-1.023473z" p-id="5597"></path></svg>
