<?xml version="1.0" encoding="utf-8"?>
<!-- Generator: Adobe Illustrator 15.0.0, SVG Export Plug-In . SVG Version: 6.00 Build 0)  -->
<!DOCTYPE svg PUBLIC "-//W3C//DTD SVG 1.1//EN" "http://www.w3.org/Graphics/SVG/1.1/DTD/svg11.dtd">
<svg version="1.1" id="图层_1" xmlns="http://www.w3.org/2000/svg" xmlns:xlink="http://www.w3.org/1999/xlink" x="0px" y="0px"
	 width="1024px" height="1024px" viewBox="0 0 1024 1024" enable-background="new 0 0 1024 1024" xml:space="preserve">
<g>
	<path d="M363.159,78.789h296.314c21.806,0,40.185-18.114,40.185-40.434S681.278-2,658.34-2H363.159
		c-22.953,0-41.304,18.035-41.304,40.355S340.206,78.789,363.159,78.789z"/>
	<path d="M891.214,28.836L753.974,25c1.001,5.049,0,21.832,0,27c0.052,38.931-47.118,80.987-81.001,80.987h-324
		c-35.674,0-80.987-42.095-80.987-80.987c0.04-5.168-0.962-21.951,0-27H133C55.506,25,25,72.355,25,135.122v783.725
		C25,986.269,52.25,1024,127.357,1024h758.03C960.48,1024,997,994.415,997,918.874V135.122
		C997,72.355,962.828,28.836,891.214,28.836z M803.228,583.826C739.444,702.873,632.342,781,510.96,781
		c-121.395,0-228.485-78.127-292.227-197.174c-6.329-11.892-6.329-25.761,0-37.653C282.475,427.125,389.565,349,510.96,349
		c121.382,0,228.484,78.126,292.268,197.173C809.503,558.065,809.503,571.935,803.228,583.826z"/>
	<path d="M512.039,457.013c-0.174,0-0.346,0.006-0.52,0.007c-0.173-0.001-0.346-0.007-0.52-0.007
		c-59.656,0-108.013,48.357-108.013,107.961c0,59.669,48.357,108.025,108.013,108.025c0.174,0,0.346-0.006,0.52-0.007
		c0.174,0.001,0.346,0.007,0.52,0.007c59.644,0,108-48.356,108-108.025C620.039,505.37,571.683,457.013,512.039,457.013z"/>
</g>
</svg>
