<?xml version="1.0" encoding="utf-8"?>
<!-- Generator: Adobe Illustrator 15.0.0, SVG Export Plug-In . SVG Version: 6.00 Build 0)  -->
<!DOCTYPE svg PUBLIC "-//W3C//DTD SVG 1.1//EN" "http://www.w3.org/Graphics/SVG/1.1/DTD/svg11.dtd">
<svg version="1.1" id="图层_1" xmlns="http://www.w3.org/2000/svg" xmlns:xlink="http://www.w3.org/1999/xlink" x="0px" y="0px"
	 width="1024px" height="1024px" viewBox="0 0 1024 1024" enable-background="new 0 0 1024 1024" xml:space="preserve">
<g>
	<path d="M373.792,723.913H244.681c-25.252,0-45.712-16.68-45.712-37.262s20.46-37.262,45.712-37.262h141.212
		c17.178-59.102,51.357-110.966,96.901-149.951H236.182c-20.692,0-37.445-16.79-37.445-37.458c0-20.691,16.753-37.481,37.445-37.481
		h474.456c4.564,0,8.937,0.818,12.979,2.313c66.999,8.178,127.306,37.721,174.306,81.43V99.86c0-55.137-44.749-99.873-99.885-99.873
		H148.77c-55.173,0-99.874,44.736-99.874,99.873v724.182c0,55.162,44.701,99.886,99.874,99.886h287.61
		c-39.286-52.187-62.868-116.907-62.868-187.284C373.512,732.378,373.622,728.138,373.792,723.913z M236.182,199.783h474.456
		c20.703,0,37.457,16.753,37.457,37.445c0,20.704-16.754,37.457-37.457,37.457H236.182c-20.692,0-37.445-16.753-37.445-37.457
		C198.737,216.536,215.49,199.783,236.182,199.783z"/>
	<path d="M961.156,958.995l-61.86-61.873c30.521-41.416,48.569-92.592,48.569-147.995c0-137.877-111.785-249.688-249.714-249.688
		c-137.902,0-249.725,111.811-249.725,249.688c0,137.929,111.823,249.715,249.725,249.715c55.221,0,106.241-17.932,147.586-48.271
		l61.915,61.928c7.414,7.413,17.071,11.071,26.776,11.071c9.681,0,19.339-3.658,26.728-11.071
		C975.958,997.72,975.958,973.773,961.156,958.995z M809.914,914.741c-31.891,21.565-70.344,34.157-111.738,34.157
		c-110.347,0-199.782-89.398-199.782-199.771c0-110.321,89.436-199.771,199.782-199.771c110.3,0,199.723,89.449,199.723,199.771
		c0,41.588-12.7,80.194-34.425,112.166C849.18,882.329,830.981,900.495,809.914,914.741z"/>
</g>
</svg>
