<?xml version="1.0" standalone="no"?><!DOCTYPE svg PUBLIC "-//W3C//DTD SVG 1.1//EN" "http://www.w3.org/Graphics/SVG/1.1/DTD/svg11.dtd"><svg class="icon" width="200px" height="200.00px" viewBox="0 0 1024 1024" version="1.1" xmlns="http://www.w3.org/2000/svg"><path d="M913.344 192H429.056c-3.648 0-6.656 3.584-6.656 8V256c0 4.416 3.008 8 6.656 8h484.288c3.648 0 6.656-3.584 6.656-8v-56c0-4.416-3.008-8-6.656-8z m0 284.032H429.056c-3.648 0-6.656 3.584-6.656 8v56c0 4.352 3.008 7.936 6.656 7.936h484.288c3.648 0 6.656-3.584 6.656-7.936v-56.064c0-4.352-3.008-8-6.656-8zM323.968 680.96h18.432c14.016 0 22.528 14.592 17.024 26.304l-2.368 3.84-128.96 163.392a24.96 24.96 0 0 1-35.52 3.648l-3.648-3.712-72.32-91.584a18.624 18.624 0 0 1 10.24-29.632l4.416-0.512h18.432a24.96 24.96 0 0 1 16.448 6.208l3.2 3.264 39.168 49.728 95.808-121.344a24.896 24.896 0 0 1 15.104-9.216l4.544-0.384h18.432z m589.44 79.04c2.88 0 5.376 2.304 6.272 5.504l0.32 2.496v56c0 3.52-1.92 6.528-4.544 7.616l-2.112 0.384H429.056c-2.944 0-5.44-2.304-6.336-5.504l-0.32-2.496V768c0-3.52 1.92-6.528 4.544-7.616l2.112-0.384h484.288zM342.4 404.48c14.016 0 22.528 14.592 17.024 26.304l-2.368 3.84-128.96 163.392a24.96 24.96 0 0 1-35.52 3.648l-3.648-3.712-72.32-91.584a18.624 18.624 0 0 1 10.24-29.632l4.416-0.512h18.432a24.96 24.96 0 0 1 16.448 6.208l3.2 3.264 39.168 49.728L304.32 414.08a24.896 24.896 0 0 1 15.104-9.216l4.544-0.384h18.432z m0-276.48c14.016 0 22.528 14.592 17.024 26.304l-2.368 3.84-128.96 163.392a24.96 24.96 0 0 1-35.52 3.648l-3.648-3.712-72.32-91.584a18.624 18.624 0 0 1 10.24-29.632l4.416-0.512h18.432a24.96 24.96 0 0 1 16.448 6.208l3.2 3.264 39.168 49.728L304.32 137.6a24.896 24.896 0 0 1 15.104-9.216L323.968 128h18.432z" /></svg>
