<?xml version="1.0" standalone="no"?><!DOCTYPE svg PUBLIC "-//W3C//DTD SVG 1.1//EN" "http://www.w3.org/Graphics/SVG/1.1/DTD/svg11.dtd"><svg t="1638238181664" class="icon" viewBox="0 0 1109 1024" version="1.1" xmlns="http://www.w3.org/2000/svg" p-id="3298" xmlns:xlink="http://www.w3.org/1999/xlink" width="34.65625" height="32"><defs><style type="text/css"></style></defs><path d="M936.524607 0.000767h-367.933782v341.077302h455.025511V87.092497A86.708065 86.708065 0 0 0 936.524607 0.000767z m-367.933782 455.025512v568.973721h239.790003a212.549859 212.549859 0 0 1-41.052048-32.611441 246.312292 246.312292 0 0 1-51.794641-76.732801 244.393972 244.393972 0 0 1 0-187.995363A240.940996 240.940996 0 0 1 844.061581 597.749289a245.1613 245.1613 0 0 1 179.554755-3.452976v-139.270034zM0.000767 682.539034v253.985573a87.091729 87.091729 0 0 0 87.09173 87.475393h367.933782v-341.460966zM87.092497 0.000767A87.091729 87.091729 0 0 0 0.000767 87.092497v481.498328h455.025512V0.000767z" p-id="3299"></path><path d="M933.455295 647.241946a176.101779 176.101779 0 0 1 161.90621 244.393972 169.579491 169.579491 0 0 1-38.3664 56.014945 177.636435 177.636435 0 0 1-56.014945 38.3664 171.114147 171.114147 0 0 1-68.292193 13.811905 173.416131 173.416131 0 0 1-69.059522-13.811905 186.844371 186.844371 0 0 1-56.014945-38.3664 181.856739 181.856739 0 0 1-38.3664-56.014945 176.869107 176.869107 0 0 1 0-136.96805 181.856739 181.856739 0 0 1 38.3664-56.014945 179.938419 179.938419 0 0 1 56.014945-38.366401 173.416131 173.416131 0 0 1 69.82685-13.044576zM1035.893584 847.514557a25.321824 25.321824 0 0 0 17.648544-7.289616 25.705488 25.705488 0 0 0 6.905953-18.032208 23.403504 23.403504 0 0 0-6.905953-17.264881 23.787168 23.787168 0 0 0-17.648544-7.289616h-76.732801v-76.732801a24.93816 24.93816 0 0 0-42.586705-17.648544 25.321824 25.321824 0 0 0-7.289616 17.648544v76.732801h-76.732801a24.93816 24.93816 0 0 0-24.938161 24.554497 26.089152 26.089152 0 0 0 7.289617 18.032208 25.321824 25.321824 0 0 0 17.648544 7.289616h76.732801V920.794382a26.089152 26.089152 0 0 0 7.289616 18.032209 24.93816 24.93816 0 0 0 35.297089 0A24.554496 24.554496 0 0 0 959.160783 920.794382v-73.279825z" p-id="3300"></path></svg>