<?xml version="1.0" standalone="no"?><!DOCTYPE svg PUBLIC "-//W3C//DTD SVG 1.1//EN" "http://www.w3.org/Graphics/SVG/1.1/DTD/svg11.dtd"><svg t="1658382314044" class="icon" viewBox="0 0 1024 1024" version="1.1" xmlns="http://www.w3.org/2000/svg" p-id="1388" xmlns:xlink="http://www.w3.org/1999/xlink" width="32" height="32"><defs><style type="text/css"></style></defs><path d="M682.61 0.028H341.361C152.806 0.028 0.028 152.806 0.028 341.361V682.61c0 188.612 152.778 341.391 341.333 341.391H682.61c188.612 0 341.391-152.778 341.391-341.391V341.361C1024.001 152.806 871.223 0.028 682.61 0.028z m30.223 557.305L424.778 731.89l-0.278-0.279c-2.083 1.223-4.167 2.335-6.333 3.279-0.195 0.11-0.195 0.11-0.36 0.11-2.084 0.945-4.334 1.723-6.696 2.445-0.166 0.055-0.25 0.055-0.528 0.055-0.944 0.39-2 0.61-3.026 0.777-0.196 0.112-0.278 0.112-0.528 0.112-1.139 0.277-2.25 0.443-3.389 0.61-0.167 0-0.444 0.055-0.528 0.055-1.054 0.223-2 0.278-3.054 0.391-0.25 0-0.584 0.055-0.861 0.055h-3.639c-29.917 0-54.195-23.39-54.195-52.445V337c0-29.028 24.278-52.611 54.195-52.611 11.472 0 22 3.389 30.694 9.139l286.027 172.889c16.89 9.416 27.333 26.805 27.333 45.583-0.002 18.611-10.167 35.833-26.779 45.333z" p-id="1389"></path></svg>