<?xml version="1.0" standalone="no"?><!DOCTYPE svg PUBLIC "-//W3C//DTD SVG 1.1//EN" "http://www.w3.org/Graphics/SVG/1.1/DTD/svg11.dtd"><svg t="1658391575493" class="icon" viewBox="0 0 1024 1024" version="1.1" xmlns="http://www.w3.org/2000/svg" p-id="3961" xmlns:xlink="http://www.w3.org/1999/xlink" width="32" height="32"><defs><style type="text/css"></style></defs><path d="M111.793744 425.788348c6.856001 0.716299 13.098031 3.172179 18.419107 6.753673L329.548516 514.81403c20.772659 8.595583 30.698511 32.335765 22.102928 53.108424-7.981613 19.340062-29.061257 29.265914-48.605976 23.637854l-4.502448-1.534926-152.878585-62.931947c5.218747 123.203358 72.346158 238.015789 182.860797 301.868692 175.18617 101.10043 399.182972 41.136005 500.283402-134.050165 11.256121-19.44239 36.121915-26.093734 55.564305-14.939942 19.44239 11.256121 26.093734 36.121915 14.939942 55.564305-123.510343 214.173279-397.238733 287.54272-611.412012 163.930049C132.361747 809.622065 47.122214 637.096432 66.769262 461.705606c2.558209-22.409913 22.716898-38.475467 45.024482-35.917258z m623.793745-301.664035c155.641451 89.844309 240.880983 262.472269 221.131608 437.965424-2.558209 22.307585-22.61457 38.373139-45.024483 35.917258-7.060658-0.818627-13.507345-3.376836-18.930749-7.162986l-198.824023-81.965024c-20.772659-8.595583-30.698511-32.335765-22.102928-53.108424 7.981613-19.340062 29.061257-29.265914 48.605976-23.637854l4.502448 1.534926 152.878585 62.931947c-5.218747-123.203358-72.346158-238.015789-182.860797-301.868692-175.18617-101.10043-399.182972-41.136005-500.283402 134.050165-11.256121 19.44239-36.121915 26.093734-55.564305 14.939942-19.44239-11.256121-26.093734-36.121915-14.939942-55.564305C247.68582 73.881083 521.41421 0.511642 735.587489 124.124313z" p-id="3962"></path></svg>