<?xml version="1.0" standalone="no"?><!DOCTYPE svg PUBLIC "-//W3C//DTD SVG 1.1//EN" "http://www.w3.org/Graphics/SVG/1.1/DTD/svg11.dtd"><svg t="1658382371727" class="icon" viewBox="0 0 1024 1024" version="1.1" xmlns="http://www.w3.org/2000/svg" p-id="1668" xmlns:xlink="http://www.w3.org/1999/xlink" width="32" height="32"><defs><style type="text/css"></style></defs><path d="M950.895 30.063H73.169C32.872 30.063 0.075 63.635 0.075 105.106v691.591c0 41.495 62.045 103.691 102.341 103.691H358.47l98.891 77.193c13.424 15.999 33.498 25.198 54.595 25.198 21.173 0 41.171-9.199 54.672-25.198l98.939-77.193h256.079c40.296 0 102.341-62.196 102.341-103.691V105.106c0-41.471-32.797-75.043-73.092-75.043zM768.01 644.41H256.053c-28.322 0-51.221-22.898-51.221-51.195 0-28.199 22.899-51.221 51.221-51.221H768.01c28.297 0 51.194 23.021 51.194 51.221 0 28.297-22.897 51.195-51.194 51.195z m0-255.953H256.053c-28.322 0-51.221-22.898-51.221-51.22 0-28.223 22.899-51.196 51.221-51.196H768.01c28.297 0 51.194 22.973 51.194 51.196 0 28.322-22.897 51.22-51.194 51.22z" p-id="1669"></path></svg>