<?xml version="1.0" encoding="utf-8"?>
<!-- Generator: Adobe Illustrator 15.0.0, SVG Export Plug-In . SVG Version: 6.00 Build 0)  -->
<!DOCTYPE svg PUBLIC "-//W3C//DTD SVG 1.1//EN" "http://www.w3.org/Graphics/SVG/1.1/DTD/svg11.dtd">
<svg version="1.1" id="图层_1" xmlns="http://www.w3.org/2000/svg" xmlns:xlink="http://www.w3.org/1999/xlink" x="0px" y="0px"
	 width="1024px" height="1024px" viewBox="0 0 1024 1024" enable-background="new 0 0 1024 1024" xml:space="preserve">
<g>
	<path d="M34.898,780.412c-48.882,54.609-45.993,136.981,6.596,187.986c52.576,51.259,136.777,54.097,192.855,6.468
		l136.228-115.737L153.447,647.444L34.898,780.412z"/>
	<path d="M939.291,92.933C830.278-13.498,653.081-13.293,543.864,93.303c-29.887,29.222-51.209,63.353-64.823,99.605
		l357.807,348.871c37.275-13.293,72.173-34.168,102.085-63.185C1048.176,371.997,1048.381,199.363,939.291,92.933z"/>
	<path d="M414.053,226.105c-28.927-28.289-73.911-30.564-99.924-5.126l-202.213,197.1
		c-25.975,25.438-23.648,69.246,5.241,97.495l388.665,379.015c28.941,28.302,73.912,30.577,99.937,5.139l202.2-197.087
		c25.975-25.413,23.648-69.258-5.24-97.509L414.053,226.105z M389.996,492.246c-18.65,18.203-48.92,18.203-67.328,0
		c-18.663-18.203-18.663-47.591,0-65.627c18.612-18.215,48.882-18.215,67.328,0C408.813,444.655,408.608,474.043,389.996,492.246z
		 M493.589,593.193c-18.612,18.203-48.895,18.203-67.302,0c-18.65-18.254-18.65-47.63,0-65.679
		c18.611-18.203,48.895-18.203,67.302,0C512.238,545.563,512.238,574.939,493.589,593.193z M597.22,694.102
		c-18.611,18.202-48.882,18.202-67.341,0c-18.611-18.203-18.611-47.629,0-65.832c18.638-18.229,48.934-18.229,67.341,0
		C615.857,646.473,615.857,676.103,597.22,694.102z"/>
</g>
</svg>
