<?xml version="1.0" standalone="no"?><!DOCTYPE svg PUBLIC "-//W3C//DTD SVG 1.1//EN" "http://www.w3.org/Graphics/SVG/1.1/DTD/svg11.dtd"><svg class="icon" width="200px" height="200.00px" viewBox="0 0 1024 1024" version="1.1" xmlns="http://www.w3.org/2000/svg"><path d="M580.7 405.2H469.5V294c0-15.4-12.4-27.8-27.8-27.8s-27.8 12.4-27.8 27.8v111.2H302.7c-15.4 0-27.8 12.4-27.8 27.8s12.4 27.8 27.8 27.8h111.2V572c0 15.4 12.4 27.8 27.8 27.8s27.8-12.4 27.8-27.8V460.8h111.2c15.4 0 27.8-12.4 27.8-27.8s-12.5-27.8-27.8-27.8zM904.2 856.3L696 648.4c49.4-58.2 79.3-133.3 79.3-215.4 0-183.9-149.6-333.6-333.6-333.6S108.1 249 108.1 433s149.6 333.6 333.6 333.6c73 0 140.4-23.8 195.4-63.8L847.6 913c15.7 15.6 41 15.6 56.7 0 15.5-15.8 15.5-41.1-0.1-56.7zM163.7 433c0-153.3 124.7-278 278-278s278 124.7 278 278-124.7 278-278 278-278-124.8-278-278z" /></svg>
