<?xml version="1.0" encoding="utf-8"?>
<!-- Generator: Adobe Illustrator 15.0.0, SVG Export Plug-In . SVG Version: 6.00 Build 0)  -->
<!DOCTYPE svg PUBLIC "-//W3C//DTD SVG 1.1//EN" "http://www.w3.org/Graphics/SVG/1.1/DTD/svg11.dtd">
<svg version="1.1" id="图层_1" xmlns="http://www.w3.org/2000/svg" xmlns:xlink="http://www.w3.org/1999/xlink" x="0px" y="0px"
	 width="24px" height="24px" viewBox="0 0 24 24" enable-background="new 0 0 24 24" xml:space="preserve">
<g>
	<g>
		<defs>
			<rect id="SVGID_1_" x="0" y="0.407" width="24" height="23.294"/>
		</defs>
		<clipPath id="SVGID_2_">
			<use xlink:href="#SVGID_1_"  overflow="visible"/>
		</clipPath>
		<path clip-path="url(#SVGID_2_)" d="M21.672,0.421H2.299c-1.27,0-2.303,1.034-2.303,2.303v14.731c0,0.032,0.002,0.067,0.005,0.1
			l-0.005,5.147c0,0.389,0.233,0.742,0.595,0.892c0.12,0.051,0.246,0.075,0.37,0.075c0.249,0,0.495-0.097,0.68-0.281l3.648-3.627
			h16.384c1.269,0,2.303-1.033,2.303-2.303V2.727C23.975,1.455,22.94,0.421,21.672,0.421L21.672,0.421z M22.046,17.455
			c0,0.206-0.168,0.375-0.374,0.375H4.945c-0.263-0.013-0.531,0.077-0.734,0.278L1.924,20.38l0.003-2.925
			c0-0.034-0.003-0.067-0.005-0.099V2.724c0-0.207,0.168-0.375,0.375-0.375h19.375c0.206,0,0.374,0.168,0.374,0.375V17.455z
			 M22.046,17.455"/>
	</g>
	<path d="M18.358,6.219H5.609c-0.533,0-0.964,0.431-0.964,0.964c0,0.533,0.431,0.964,0.964,0.964h12.746
		c0.533,0,0.965-0.432,0.965-0.964C19.32,6.65,18.889,6.219,18.358,6.219L18.358,6.219z M11.802,12.015H5.609
		c-0.533,0-0.964,0.431-0.964,0.964s0.431,0.964,0.964,0.964h6.192c0.533,0,0.964-0.431,0.964-0.964S12.334,12.015,11.802,12.015
		L11.802,12.015z M11.802,12.015"/>
</g>
</svg>
