<?xml version="1.0" encoding="utf-8"?>
<!-- Generator: Adobe Illustrator 15.0.0, SVG Export Plug-In . SVG Version: 6.00 Build 0)  -->
<!DOCTYPE svg PUBLIC "-//W3C//DTD SVG 1.1//EN" "http://www.w3.org/Graphics/SVG/1.1/DTD/svg11.dtd">
<svg version="1.1" id="图层_1" xmlns="http://www.w3.org/2000/svg" x="0px" y="0px"
     width="1024px" height="1024px" viewBox="0 0 1024 1024" enable-background="new 0 0 1024 1024" xml:space="preserve">
<path d="M510.976 0c222.4128 70.912 432.128 106.3936 434.2784 104.192 14.848 2.2016 27.5456 19.968 27.5456 35.4304v396.8c0 4.4032-4.2496 90.8288-61.44 192.768-31.744 59.904-99.584 113.0496-152.576 159.5904-65.6384 57.6512-144.0256 101.9904-237.2608 133.0176L513.0752 1024l-8.4992-2.2016c-93.184-31.0272-173.7216-75.3664-239.4112-133.0176-52.9408-46.5408-120.7296-99.7376-152.5248-159.5904C57.5488 629.4528 51.2 543.0272 51.2 538.624V141.8752c0-17.7664 12.6976-33.28 27.5456-35.4816 0 0 241.5104-35.4816 432.1792-106.3936z m-22.8864 252.672c-25.088 0-52.48 18.432-59.3408 43.8784L358.0416 508.928c-6.8608 25.4464 6.8608 43.8784 31.9488 43.8784h79.872l-45.6704 191.6416c-6.8608 25.3952 2.304 27.6992 18.2784 9.216l214.4256-253.952c31.9488-36.9152 18.2272-69.2736-31.9488-69.2736H526.848l57.0368-136.192c9.1136-23.0912-2.2528-41.5744-27.392-41.5744H488.0896z" p-id="2644" fill="#ffffff">
</path>
</svg>
