<?xml version="1.0" encoding="utf-8"?>
<!-- Generator: Adobe Illustrator 15.0.0, SVG Export Plug-In . SVG Version: 6.00 Build 0)  -->
<!DOCTYPE svg PUBLIC "-//W3C//DTD SVG 1.1//EN" "http://www.w3.org/Graphics/SVG/1.1/DTD/svg11.dtd">
<svg version="1.1" id="图层_1" xmlns="http://www.w3.org/2000/svg" xmlns:xlink="http://www.w3.org/1999/xlink" x="0px" y="0px"
	 width="1024px" height="1024px" viewBox="0 0 1024 1024" enable-background="new 0 0 1024 1024" xml:space="preserve">
<g>
	<path d="M969.538,78.692C969.538,35.234,934.316,0,890.846,0h-94.6H565.42H456.155l-130,131.154h48.273h98.734h94.462h165.863
		c12.676,0,24.641,3.016,35.246,8.342c25.742,12.93,43.42,39.559,43.42,70.337V407.41v155.707v17.24
		c0,3.191-0.212,6.332-0.582,9.424c0.37,3.094,0.582,6.235,0.582,9.429v345.099c0,9.201-1.593,18.025-4.493,26.231h83.187
		c43.471,0,78.692-35.223,78.692-78.692V486.102c0-0.279-0.019-0.554-0.021-0.833c0.003-0.278,0.021-0.553,0.021-0.833V78.692z"/>
	<path d="M733.486,183.603H567.623c0,0-50.088,0-108.024,0c-60.685,0-129.98,0-159.355,0c-3.796,0-6.927,0-9.285,0
		c-24.677,25.419-163.204,168.07-187.036,192.593c-0.004,0.004-0.009,0.009-0.013,0.013c0,20.314,0,91.462,0,148.803
		c0,43.13,0,78.449,0,78.449v27.973v312.874c0,14.474,11.758,26.231,26.23,26.231h52.462h550.884
		c14.474,0,26.231-11.758,26.231-26.231V654.549v-55.34c0-1.024-0.103-2.074-0.205-3.254c-0.256-2.048-0.384-4.097-0.384-6.146
		c0-2.075,0.128-4.099,0.384-6.174c0.103-1.128,0.205-2.254,0.205-3.278v-17.24v-38.102V407.41V209.833
		c0-4.086-0.938-7.956-2.609-11.405C752.861,189.659,743.873,183.603,733.486,183.603z M418.321,550.847H300.654
		c-1.663,0-3.297-0.115-4.906-0.315c-12.05-1.502-22.41-8.449-28.535-18.309c-2.213-3.563-3.868-7.505-4.854-11.706
		c-0.68-2.897-1.051-5.913-1.051-9.017c0-20.06,15.033-36.612,34.441-39.03c1.608-0.2,3.243-0.315,4.906-0.315h84.327h182.642
		h21.568c21.723,0,39.347,17.623,39.347,39.346c0,3.104-0.371,6.119-1.052,9.017c-0.986,4.201-2.641,8.144-4.854,11.706
		c-6.942,11.176-19.322,18.624-33.44,18.624h-21.568H418.321z M458.025,734.461H300.654c-21.723,0-39.347-17.622-39.347-39.32
		c0-21.773,17.624-39.347,39.347-39.347h51.376h105.996c5.586,0,10.893,1.165,15.702,3.255
		c13.924,6.051,23.644,19.908,23.644,36.092C497.372,716.839,479.786,734.461,458.025,734.461z"/>
</g>
</svg>
