<?xml version="1.0" encoding="utf-8"?>
<!-- Generator: Adobe Illustrator 15.0.0, SVG Export Plug-In . SVG Version: 6.00 Build 0)  -->
<!DOCTYPE svg PUBLIC "-//W3C//DTD SVG 1.1//EN" "http://www.w3.org/Graphics/SVG/1.1/DTD/svg11.dtd">
<svg version="1.1" id="图层_1" xmlns="http://www.w3.org/2000/svg" xmlns:xlink="http://www.w3.org/1999/xlink" x="0px" y="0px"
	 width="1024px" height="1024px" viewBox="0 0 1024 1024" enable-background="new 0 0 1024 1024" xml:space="preserve">
<g>
	<path d="M689.545,166.743v239.055c52.315,3.995,101.036,21.054,142.899,47.91V71.504c0-54.985-71.438-71.461-71.438-71.461H380.003
		L260.939,119.106h381.003C680.917,119.106,689.545,166.743,689.545,166.743z"/>
	<path d="M359.88,666.798H225.232c-19.755,0-35.708-15.952-35.708-35.672c0-19.768,15.953-35.767,35.708-35.767h142.853
		c3.924,0,7.695,0.641,11.227,1.807c14.922-36.307,36.543-69.179,63.335-97.057H225.232c-19.755,0-35.708-15.988-35.708-35.696
		c0-19.72,15.953-35.719,35.708-35.719H487.16c11.929,0,22.489,5.86,28.977,14.851c37.82-20.975,80.458-34.277,125.806-37.745
		V214.392c0,0-8.511-47.648-47.626-47.648H213.291L46.625,333.408v500.079c0,0,1.105,44.415,43.033,47.485
		c1.477,0.094,3.023,0.14,4.604,0.14c26.056,0,180.364,0,310.764,0c-30.886-48.146-48.813-105.364-48.813-166.688
		C356.213,698.231,357.47,682.327,359.88,666.798z"/>
	<path d="M832.444,544.411c-37.641-36.907-87.472-61.423-142.899-66.923c-7.825-0.776-15.761-1.18-23.79-1.18
		c-8.037,0-15.979,0.404-23.813,1.182C521.601,489.439,427.64,590.977,427.64,714.424c0,64.91,25.971,123.737,68.077,166.688
		c43.213,44.081,103.421,71.438,170.039,71.438c131.505,0,238.128-106.599,238.128-238.127
		C903.883,647.834,876.522,587.629,832.444,544.411z M641.942,726.51l-17.348-18.179l-94.972,96.041
		c-3.349,3.441-7.86,5.303-12.488,5.303c-7.383,0-14.01-4.699-16.743-11.86c-2.756-7.162-1.104-15.348,4.209-20.743l107.716-108.971
		c7.092-7.162,18.323-7.023,25.3,0.279l4.325,4.538l47.603,49.941l8.14,8.54l104.087-106.786c4.558-4.744,11.278-6.558,17.464-4.696
		c6.232,1.813,11.046,6.929,12.651,13.534c1.58,6.558-0.279,13.534-4.907,18.277L710.172,771.583
		c-5.625,5.772-13.937,6.906-20.627,3.411c-1.719-0.898-3.337-2.086-4.768-3.598L641.942,726.51z"/>
</g>
</svg>
