<?xml version="1.0" encoding="utf-8"?>
<!-- Generator: Adobe Illustrator 15.0.0, SVG Export Plug-In . SVG Version: 6.00 Build 0)  -->
<!DOCTYPE svg PUBLIC "-//W3C//DTD SVG 1.1//EN" "http://www.w3.org/Graphics/SVG/1.1/DTD/svg11.dtd">
<svg version="1.1" id="组_2" xmlns="http://www.w3.org/2000/svg" xmlns:xlink="http://www.w3.org/1999/xlink" x="0px" y="0px"
	 width="20px" height="20px" fill="#9a9a9a" viewBox="0 0 20 20" enable-background="new 0 0 20 20" xml:space="preserve">
<path id="圆角矩形_1_拷贝_2" d="M3,18h14c0.553,0,1,0.447,1,1s-0.447,1-1,1H3c-0.552,0-1-0.447-1-1S2.448,18,3,18z M4,0h12
	c2.209,0,4,1.791,4,4v8c0,2.209-1.791,4-4,4H4c-2.209,0-4-1.791-4-4V4C0,1.791,1.791,0,4,0z"/>
<path id="形状_3" fill="#FFFFFF" d="M4.55,11.715l3.09-3.319c0.2-0.225,0.545-0.245,0.771-0.044
	C8.424,8.363,8.438,8.376,8.45,8.39l3.2,3.346c0.188,0.201,0.504,0.213,0.707,0.024c0.015-0.015,0.029-0.029,0.043-0.046l4.34-4.972
	c0.354-0.422,0.346-1.04-0.02-1.451c-0.305-0.353-0.836-0.392-1.188-0.088c-0.038,0.032-0.072,0.067-0.104,0.105l-3.289,3.775
	c-0.08,0.093-0.219,0.104-0.311,0.025c-0.008-0.006-0.014-0.013-0.02-0.02L8.52,5.66C8.277,5.391,7.862,5.37,7.593,5.613
	C7.575,5.63,7.557,5.648,7.54,5.667l-4.26,4.566c-0.364,0.411-0.376,1.025-0.03,1.451c0.296,0.366,0.833,0.423,1.2,0.127
	C4.485,11.781,4.519,11.75,4.55,11.715L4.55,11.715L4.55,11.715z"/>
</svg>
