<?xml version="1.0" encoding="utf-8"?>
<!-- Generator: Adobe Illustrator 15.0.0, SVG Export Plug-In . SVG Version: 6.00 Build 0)  -->
<!DOCTYPE svg PUBLIC "-//W3C//DTD SVG 1.1//EN" "http://www.w3.org/Graphics/SVG/1.1/DTD/svg11.dtd">
<svg version="1.1" id="图层_1" xmlns="http://www.w3.org/2000/svg" xmlns:xlink="http://www.w3.org/1999/xlink" x="0px" y="0px"
	 width="48px" height="48px" viewBox="0 0 48 48" enable-background="new 0 0 48 48" xml:space="preserve">
<path fill="#FFFFFF" d="M24.061,10.578c-3.445,0-6.685,1.341-9.122,3.778s-3.778,5.677-3.778,9.122s1.34,6.685,3.778,9.122
	c2.438,2.438,5.677,3.777,9.122,3.777s6.684-1.34,9.123-3.777c2.438-2.437,3.777-5.677,3.777-9.122s-1.341-6.685-3.777-9.122
	C30.746,11.919,27.506,10.578,24.061,10.578z M24.061,33.188c-5.353,0-9.712-4.355-9.712-9.713s4.354-9.712,9.712-9.712
	c5.353,0,9.712,4.354,9.712,9.712C33.773,28.831,29.419,33.188,24.061,33.188z M29.9,37.794H18.22c-0.881,0-1.594,0.712-1.594,1.595
	c0,0.881,0.712,1.594,1.594,1.594H29.9c0.883,0,1.595-0.713,1.595-1.594C31.495,38.506,30.783,37.794,29.9,37.794z M27.566,42.525
	H20.56c-0.881,0-1.594,0.713-1.594,1.595c0,0.881,0.712,1.594,1.594,1.594h7.008c0.881,0,1.594-0.713,1.594-1.594
	C29.162,43.238,28.448,42.525,27.566,42.525z M24.061,9.997c0.88,0,1.593-0.712,1.593-1.594V3.88c0-0.881-0.713-1.594-1.593-1.594
	c-0.881,0-1.594,0.712-1.594,1.594v4.523C22.467,9.28,23.18,9.997,24.061,9.997z M32.873,12.313
	c0.277,0.197,0.596,0.291,0.914,0.291c0.502,0,0.999-0.239,1.309-0.68l2.592-3.703c0.506-0.722,0.328-1.716-0.389-2.222
	c-0.723-0.506-1.716-0.328-2.223,0.389l-2.592,3.703C31.979,10.813,32.15,11.807,32.873,12.313z M43.969,16.096
	c-0.31-0.825-1.229-1.242-2.053-0.933l-4.238,1.584c-0.824,0.31-1.242,1.228-0.933,2.053c0.239,0.642,0.849,1.036,1.495,1.036
	c0.188,0,0.375-0.033,0.559-0.103l4.237-1.584C43.861,17.839,44.277,16.92,43.969,16.096z M13.284,11.169
	c0.31,0.44,0.807,0.68,1.308,0.68c0.314,0,0.633-0.094,0.914-0.291c0.722-0.506,0.895-1.5,0.389-2.222l-2.592-3.703
	c-0.506-0.722-1.5-0.895-2.222-0.389c-0.722,0.506-0.895,1.5-0.389,2.222L13.284,11.169z M11.63,18.041
	c0.309-0.825-0.113-1.744-0.933-2.053L6.46,14.404c-0.825-0.31-1.744,0.112-2.053,0.933c-0.31,0.825,0.112,1.744,0.933,2.053
	l4.238,1.584c0.183,0.07,0.37,0.103,0.558,0.103C10.781,19.077,11.391,18.683,11.63,18.041z"/>
</svg>
