<?xml version="1.0" standalone="no"?><!DOCTYPE svg PUBLIC "-//W3C//DTD SVG 1.1//EN" "http://www.w3.org/Graphics/SVG/1.1/DTD/svg11.dtd"><svg t="1689229725398" class="icon" viewBox="0 0 1024 1024" version="1.1" xmlns="http://www.w3.org/2000/svg" p-id="2676" xmlns:xlink="http://www.w3.org/1999/xlink" width="64" height="64"><path d="M1017.321739 95.721739c-6.678261-20.034783-17.808696-37.843478-31.165217-53.426087C961.669565 15.582609 928.278261 0 894.886957 0H135.791304c-6.678261 0-11.130435 0-15.582608 2.226087-33.391304 2.226087-64.556522 20.034783-84.591305 44.521739S2.226087 100.173913 0 131.33913v569.878261c0 4.452174 0 8.904348 2.226087 15.582609 2.226087 28.93913 13.356522 55.652174 31.165217 75.686957 20.034783 26.713043 51.2 44.521739 84.591305 48.973913 13.356522 2.226087 26.713043 2.226087 40.069565 2.226087h329.460869v126.886956H173.634783c-11.130435 0-22.26087 8.904348-24.486957 17.808696-4.452174 13.356522 0 26.713043 13.356522 33.391304 2.226087 2.226087 11.130435 2.226087 17.808695 2.226087H845.913043c6.678261 0 11.130435 0 17.808696-2.226087 11.130435-4.452174 17.808696-17.808696 15.582609-28.93913s-8.904348-20.034783-17.808696-22.26087c-4.452174-2.226087-11.130435-2.226087-15.582609-2.226087H538.713043v-126.886956h338.365218c11.130435 0 20.034783 0 31.165217-2.226087 20.034783-2.226087 40.069565-11.130435 55.652174-22.26087 26.713043-20.034783 48.973913-51.2 55.652174-84.591304 2.226087-8.904348 2.226087-17.808696 4.452174-26.713044V135.791304c-2.226087-13.356522-2.226087-26.713043-6.678261-40.069565z m-291.617391 218.156522l-117.982609 129.113043c-2.226087 2.226087-2.226087 4.452174 0 6.678261l62.330435 129.113044v2.226087c0 2.226087-2.226087 4.452174-4.452174 4.452174H623.304348c-2.226087 0-4.452174-2.226087-4.452174-2.226087L576.556522 489.73913s0-2.226087-2.226087-2.226087c-2.226087-2.226087-4.452174-2.226087-6.678261 0l-80.139131 95.72174c0 2.226087-2.226087 2.226087-4.452173 2.226087h-46.747827c-2.226087 0-2.226087 0-4.452173-2.226087s-2.226087-4.452174 0-6.678261l117.982608-131.339131c2.226087-2.226087 2.226087-4.452174 0-6.678261l-44.521739-91.269565h-89.043478l-57.878261 282.713044c0 2.226087-2.226087 4.452174-4.452174 4.452174H311.652174c-2.226087 0-4.452174-4.452174-4.452174-6.678261l57.878261-280.486957h-62.330435c-2.226087 0-4.452174-4.452174-4.452174-6.678261l6.678261-33.391304c0-2.226087 2.226087-4.452174 4.452174-4.452174h64.556522l6.678261-31.165217c13.356522-66.782609 46.747826-95.721739 115.756521-95.721739 13.356522 0 20.034783 0 35.617392 4.452173l-8.904348 44.52174c-11.130435-2.226087-22.26087-4.452174-35.617392-4.452174-31.165217 0-48.973913 17.808696-55.652173 53.426087l-4.452174 26.713043v2.226087h109.078261c2.226087 0 4.452174 2.226087 4.452173 2.226087l42.295653 91.269565s0 2.226087 2.226087 2.226087c2.226087 2.226087 4.452174 2.226087 6.67826 0l80.139131-95.721739c0-2.226087 2.226087-2.226087 4.452174-2.226087h46.747826c2.226087 0 2.226087 0 4.452174 2.226087 0 4.452174 0 8.904348-2.226087 11.130435z" p-id="2677"></path></svg>
