<?xml version="1.0" standalone="no"?><!DOCTYPE svg PUBLIC "-//W3C//DTD SVG 1.1//EN" "http://www.w3.org/Graphics/SVG/1.1/DTD/svg11.dtd"><svg t="1669361929442" class="icon" viewBox="0 0 1024 1024" version="1.1" xmlns="http://www.w3.org/2000/svg" p-id="1407" xmlns:xlink="http://www.w3.org/1999/xlink" width="200" height="200"><path d="M625.5616 456.192c-7.5776 0-14.848 2.048-21.4016 5.7344-0.6144 0.3072-1.1264 0.7168-1.536 1.1264L494.592 567.1936c-1.536 0.1024-3.1744 0-4.4032 0.1024-36.352 0-66.048 29.4912-66.048 65.9456 0 36.352 29.696 66.048 66.048 66.048 36.6592 0 66.4576-30.1056 66.048-66.1504 0.8192-2.1504 1.536-3.9936 2.4576-6.0416l97.4848-97.1776c8.0896-8.0896 12.6976-19.1488 12.5952-30.5152 0-11.3664-4.608-22.4256-12.6976-30.5152-7.9872-8.0896-18.944-12.6976-30.5152-12.6976z" p-id="1408"></path><path d="M908.0832 340.6848C760.5248 122.2656 462.7456 64.512 244.224 211.968 25.8048 359.5264-31.9488 657.2032 115.5072 875.8272c7.2704 10.4448 18.944 16.9984 31.6416 17.5104l0.7168 0.3072h1.8432c14.4384-0.1024 27.648-7.8848 34.9184-20.3776 7.2704-12.3904 7.3728-27.8528 0.3072-40.3456l-1.536-2.6624c-39.6288-58.368-62.8736-126.3616-67.3792-196.7104h43.9296c21.2992-1.536 38.5024-18.7392 40.1408-40.1408 0.7168-11.5712-3.1744-22.8352-10.6496-31.5392s-18.432-14.0288-30.0032-14.7456h-40.1408c9.5232-62.1568 33.792-121.2416 70.7584-172.032l23.3472 23.3472c16.0768 14.0288 40.3456 14.1312 56.6272 0.3072 18.1248-15.5648 20.2752-42.9056 4.3008-61.44l-25.6-26.0096c61.44-54.3744 138.24-88.4736 219.7504-97.5872V270.2336c1.536 21.4016 18.8416 38.7072 40.2432 40.2432 11.3664 1.024 22.8352-2.8672 31.4368-10.5472 8.8064-7.68 14.1312-18.5344 14.848-30.208v-55.5008c80.896 9.0112 156.9792 42.496 218.112 96.1536L745.5744 337.92c-14.0288 16.384-14.0288 40.2432 0.3072 56.5248 7.5776 8.8064 18.432 14.1312 30.0032 14.9504 11.5712 0.7168 22.9376-3.1744 31.5392-10.9568l24.576-24.3712c37.7856 51.0976 62.6688 110.592 72.2944 173.3632h-42.1888c-21.4016 1.536-38.5024 18.7392-40.1408 40.1408-0.8192 11.5712 2.9696 22.9376 10.6496 31.5392 7.68 8.704 18.432 14.0288 30.0032 14.5408h45.3632c-4.3008 69.2224-26.8288 135.7824-65.2288 193.4336-8.6016 13.7216-8.0896 30.9248 0.8192 44.3392 9.0112 13.312 24.9856 20.0704 40.7552 17.3056 10.6496-1.8432 20.2752-7.9872 26.5216-16.7936 106.8032-161.4848 105.7792-371.2-2.7648-531.2512z" p-id="1409"></path></svg>