<?xml version="1.0" encoding="utf-8"?>
<!-- Generator: Adobe Illustrator 15.0.0, SVG Export Plug-In . SVG Version: 6.00 Build 0)  -->
<!DOCTYPE svg PUBLIC "-//W3C//DTD SVG 1.1//EN" "http://www.w3.org/Graphics/SVG/1.1/DTD/svg11.dtd">
<svg version="1.1" id="图层_1" xmlns="http://www.w3.org/2000/svg" xmlns:xlink="http://www.w3.org/1999/xlink" x="0px" y="0px"
	 width="1024px" height="1024px" viewBox="0 0 1024 1024" enable-background="new 0 0 1024 1024" xml:space="preserve">
<path d="M409.556,460.798H204.753c-84.781,0-153.593-68.778-153.593-153.66V204.72c0-84.748,68.812-153.56,153.593-153.56h102.384
	c84.882,0,153.661,68.812,153.661,153.56v204.836C460.798,437.827,437.861,460.798,409.556,460.798L409.556,460.798z
	 M819.228,460.798H614.392c-28.271,0-51.276-22.971-51.276-51.242V204.72c0-84.748,68.813-153.56,153.694-153.56h102.418
	c84.748,0,153.56,68.812,153.56,153.56v102.418C972.787,392.02,903.976,460.798,819.228,460.798L819.228,460.798z M307.138,972.786
	H204.753c-84.781,0-153.593-68.812-153.593-153.56V716.809c0-84.881,68.812-153.693,153.593-153.693h204.802
	c28.305,0,51.243,23.004,51.243,51.276v204.835C460.798,903.975,392.02,972.786,307.138,972.786L307.138,972.786z M819.228,972.786
	H716.81c-84.882,0-153.694-68.812-153.694-153.56V614.392c0-28.272,23.005-51.276,51.276-51.276h204.836
	c84.748,0,153.56,68.813,153.56,153.693v102.418C972.787,903.975,903.976,972.786,819.228,972.786L819.228,972.786z"/>
</svg>
