<?xml version="1.0" encoding="utf-8"?>
<!-- Generator: Adobe Illustrator 15.0.0, SVG Export Plug-In . SVG Version: 6.00 Build 0)  -->
<!DOCTYPE svg PUBLIC "-//W3C//DTD SVG 1.1//EN" "http://www.w3.org/Graphics/SVG/1.1/DTD/svg11.dtd">
<svg version="1.1" id="图层_1" xmlns="http://www.w3.org/2000/svg" xmlns:xlink="http://www.w3.org/1999/xlink" x="0px" y="0px"
	 width="1024px" height="1024px" viewBox="0 0 1024 1024" enable-background="new 0 0 1024 1024" xml:space="preserve">
<path d="M987.257,433.321L633.706,787.423c-4.657,4.105-9.842,7.237-16.026,8.29l-161.248,32.053h-6.211c-2.079,0-4.171,0-6.21-0.5
	c-17.079-3.605-27.908-20.185-24.276-37.264l32.026-161.551c1.04-6.185,4.132-11.368,8.25-16.026l353.591-356.682
	c47.524-47.605,125.104-47.605,173.156,0l0.5,4.131C1034.834,307.519,1034.834,385.163,987.257,433.321L987.257,433.321z
	 M416.103,875.423h5.671l217.091-43.474c9.842-1.053,18.632-5.184,25.342-12.421l206.262-206.551v283.155
	c0,70.395-56.867,127.868-127.71,127.868H127.657c-70.275,0-127.67-56.947-127.67-127.868v-768.27
	c0-70.395,56.855-127.881,127.67-127.881h615.101c70.316,0,127.71,56.947,127.71,127.881v15.539L429.523,584.978
	c-5.671,5.711-9.79,13.447-11.381,21.736L374.748,824.16c-0.5,3.105-1.04,6.236-1.04,9.315
	C373.708,856.765,392.826,875.423,416.103,875.423L416.103,875.423z"/>
</svg>
