<svg t="1682240638221" class="icon" viewBox="0 0 1024 1024" version="1.1" xmlns="http://www.w3.org/2000/svg" p-id="4855" width="200" height="200"><path d="M739.555556 967.111111H312.888889V56.888889h284.444444v227.555555a28.444444 28.444444 0 0 0 28.444445 28.444445l56.888889-85.333333 56.888889 85.333333a28.444444 28.444444 0 0 0 28.444444-28.444445V56.888889h85.333333a56.888889 56.888889 0 0 1 56.888889 56.888889v682.666666a170.666667 170.666667 0 0 1-170.666666 170.666667zM113.777778 796.444444V199.111111 113.777778a56.888889 56.888889 0 0 1 56.888889-56.888889h85.333333v907.662222A170.552889 170.552889 0 0 1 113.777778 796.444444z" fill="#000000" p-id="4856"></path><path d="M739.555556 967.111111H312.888889V56.888889h284.444444v227.555555a28.444444 28.444444 0 0 0 28.444445 28.444445l56.888889-85.333333 56.888889 85.333333a28.444444 28.444444 0 0 0 28.444444-28.444445V56.888889h85.333333a56.888889 56.888889 0 0 1 56.888889 56.888889v682.666666a170.666667 170.666667 0 0 1-170.666666 170.666667zM113.777778 796.444444V199.111111 113.777778a56.888889 56.888889 0 0 1 56.888889-56.888889h85.333333v907.662222A170.552889 170.552889 0 0 1 113.777778 796.444444z" p-id="4857"></path></svg>
