<?xml version="1.0" encoding="utf-8"?>
<!-- Generator: Adobe Illustrator 15.0.0, SVG Export Plug-In . SVG Version: 6.00 Build 0)  -->
<!DOCTYPE svg PUBLIC "-//W3C//DTD SVG 1.1//EN" "http://www.w3.org/Graphics/SVG/1.1/DTD/svg11.dtd">
<svg version="1.1" id="图层_1" xmlns="http://www.w3.org/2000/svg" xmlns:xlink="http://www.w3.org/1999/xlink" x="0px" y="0px"
	 width="20px" height="20px" fill="#9a9a9a" viewBox="0 0 20 20" enable-background="new 0 0 20 20" xml:space="preserve">
<path id="形状_2" d="M10,14.173c2.706,0.039,4.932-2.123,4.971-4.829c0-0.001,0-0.002,0-0.003
	c-0.037-2.706-2.261-4.87-4.967-4.833c-0.001,0-0.002,0-0.004,0C7.294,4.467,5.067,6.627,5.026,9.333c0,0.003,0,0.005,0,0.008
	c0.037,2.706,2.261,4.87,4.967,4.832C9.995,14.173,9.998,14.173,10,14.173L10,14.173z M18,7.773c-0.039,3.803-2.804,7.03-6.557,7.65
	c1.336,0.243,3.556,1.8,4.574,2.593c0.484,0.376,0.571,1.073,0.195,1.557C15.995,19.854,15.655,20.012,15.3,20H4.71
	c-0.612,0.019-1.124-0.463-1.142-1.074c-0.011-0.352,0.145-0.686,0.42-0.904c1.01-0.799,3.237-2.358,4.574-2.593
	C4.807,14.811,2.039,11.584,2,7.778C2.062,3.421,5.643-0.061,10,0c4.357-0.061,7.938,3.421,8,7.778l0,0V7.773z M7,10.273
	c0-1.657,1.343-3,3-3c1.656,0,3,1.343,3,3s-1.344,3-3,3C8.343,13.273,7,11.93,7,10.273L7,10.273z"/>
</svg>
