<?xml version="1.0" encoding="utf-8"?>
<!-- Generator: Adobe Illustrator 15.0.0, SVG Export Plug-In . SVG Version: 6.00 Build 0)  -->
<!DOCTYPE svg PUBLIC "-//W3C//DTD SVG 1.1//EN" "http://www.w3.org/Graphics/SVG/1.1/DTD/svg11.dtd">
<svg version="1.1" id="图层_1" xmlns="http://www.w3.org/2000/svg" xmlns:xlink="http://www.w3.org/1999/xlink" x="0px" y="0px"
	 width="1024px" height="1024px" viewBox="0 0 1024 1024" enable-background="new 0 0 1024 1024" xml:space="preserve">
<path d="M658.999,0H364.395c-22.895,0-41.224,18-41.224,40.276s18.329,40.355,41.224,40.355h295.737
	c21.763,0,40.104-18.079,40.104-40.355S681.895,0,658.999,0L658.999,0L658.999,0z"/>
<path d="M622.611,411.024H510.463c0,64.951-0.19,104.976-0.566,120.078h112.714V411.024z"/>
<path d="M891.421,30.776l-136.974-3.829c1,5.04,0,21.79,0,26.947c0.053,38.855-47,80.829-80.815,80.829H350.237
	c-35.605,0-80.829-42.013-80.829-80.829c0.04-5.158-0.96-21.908,0-26.947H134.684c-77.342,0-107.79,47.263-107.79,109.908v782.198
	c0,67.289,27.198,104.947,102.158,104.947h756.552C960.554,1024,997,994.474,997,919.079V136.855
	C997,74.21,962.895,30.776,891.421,30.776z M367.163,531.103h97.139c0.566-29.453,0.85-69.478,0.85-120.078h-71.367v-40.781h71.367
	v-99.688h45.313v99.688h112.148v-99.688h45.313v99.688h83.828v40.781h-83.828v120.078h105.918v40.781H667.924v172.188h-45.313
	V571.884H506.215c-11.143,77.031-43.711,134.429-97.705,172.188c-9.819-10.948-21.338-22.466-34.551-34.551
	c46.255-29.263,74.858-75.142,85.811-137.637h-92.607V531.103z M281.635,277.353c28.696,35.874,55.127,71.558,79.297,107.051
	c-15.859,10.195-29.834,19.638-41.914,28.32c-20.771-36.25-45.313-73.252-73.633-111.016L281.635,277.353z M763.08,809.774
	l-188.047,0.566l-136.503-2.832c-62.305-1.133-106.484-23.037-132.539-65.703c-15.483,14.346-38.14,39.648-67.969,75.898
	l-23.223-47.012c33.418-32.285,57.583-55.411,72.5-69.385V510.712h-67.402v-41.914h111.016V710.37
	c23.408,37.007,61.172,55.977,113.281,56.924l134.238,2.832l200.508-5.098C774.784,777.489,769.496,792.401,763.08,809.774z"/>
</svg>
