<?xml version="1.0" encoding="utf-8"?>
<!-- Generator: Adobe Illustrator 15.0.0, SVG Export Plug-In . SVG Version: 6.00 Build 0)  -->
<!DOCTYPE svg PUBLIC "-//W3C//DTD SVG 1.1//EN" "http://www.w3.org/Graphics/SVG/1.1/DTD/svg11.dtd">
<svg version="1.1" id="图层_1" xmlns="http://www.w3.org/2000/svg" xmlns:xlink="http://www.w3.org/1999/xlink" x="0px" y="0px"
	 width="1024px" height="1024px" viewBox="0 0 1024 1024" enable-background="new 0 0 1024 1024" xml:space="preserve">
<path d="M726.104,11.986H28.507C11.223,11.986-2,24.537-2,40.529V730.65
	c1.002,154.696,134.736,280.362,297.883,280.362h697.61c17.271,0,30.507-12.551,30.507-28.529V292.85
	C1023.473,138.167,889.791,11.986,726.104,11.986z M376.013,768.013c0,14.924-12.089,27-27.013,27H241
	c-14.924,0-27.013-12.076-27.013-27V659.986c0-14.871,12.089-26.947,27.013-26.947h108c14.924,0,27.013,12.076,27.013,26.947
	V768.013z M376.013,552.039c0,14.871-12.089,26.974-27.013,26.974H241c-14.924,0-27.013-12.103-27.013-26.974V444.026
	c0-14.924,12.089-27.013,27.013-27.013h108c14.924,0,27.013,12.089,27.013,27.013V552.039z M592,768.013
	c0,14.924-12.103,27-27.026,27h-107.96c-14.924,0-27.013-12.076-27.013-27V659.986c0-14.871,12.089-26.947,27.013-26.947h107.96
	c14.924,0,27.026,12.076,27.026,26.947V768.013z M592,552.039c0,14.871-12.103,26.974-27.026,26.974h-107.96
	c-14.924,0-27.013-12.103-27.013-26.974V444.026c0-14.924,12.089-27.013,27.013-27.013h107.96c14.924,0,27.026,12.089,27.026,27.013
	V552.039z M808.026,768.013c0,14.924-12.103,27-27.026,27H673c-14.924,0-27.026-12.076-27.026-27V659.986
	c0-14.871,12.103-26.947,27.026-26.947h108c14.924,0,27.026,12.076,27.026,26.947V768.013z M808.026,552.039
	c0,14.871-12.103,26.974-27.026,26.974H673c-14.924,0-27.026-12.103-27.026-26.974V444.026c0-14.924,12.103-27.013,27.026-27.013
	h108c14.924,0,27.026,12.089,27.026,27.013V552.039z M808.026,309c0,29.848-24.179,54.026-54.026,54.026H268.013
	c-29.848,0-54.026-24.179-54.026-54.026v-26.974c0-29.848,24.179-54.026,54.026-54.026H754c29.848,0,54.026,24.179,54.026,54.026
	V309z"/>
</svg>
