<svg xmlns="http://www.w3.org/2000/svg" width="20" height="20" viewBox="0 0 20 20">
  <defs>
    <style>
      .cls-1 {
        fill: #9a9a9a;
        fill-rule: evenodd;
      }
    </style>
  </defs>
  <path id="圆角矩形_1_拷贝_2" data-name="圆角矩形 1 拷贝 2" class="cls-1" d="M1335,331h5a2,2,0,0,1,2,2v5a2,2,0,0,1-2,2h-5a2,2,0,0,1-2-2v-5A2,2,0,0,1,1335,331Zm11,0h5a2,2,0,0,1,2,2v5a2,2,0,0,1-2,2h-5a2,2,0,0,1-2-2v-5A2,2,0,0,1,1346,331Zm-11,11h5a2,2,0,0,1,2,2v5a2,2,0,0,1-2,2h-5a2,2,0,0,1-2-2v-5A2,2,0,0,1,1335,342Zm11,0h5a2,2,0,0,1,2,2v5a2,2,0,0,1-2,2h-5a2,2,0,0,1-2-2v-5A2,2,0,0,1,1346,342Z" transform="translate(-1333 -331)"/>
</svg>
