<?xml version="1.0" standalone="no"?><!DOCTYPE svg PUBLIC "-//W3C//DTD SVG 1.1//EN" "http://www.w3.org/Graphics/SVG/1.1/DTD/svg11.dtd"><svg t="1669361935433" class="icon" viewBox="0 0 1024 1024" version="1.1" xmlns="http://www.w3.org/2000/svg" p-id="1560" xmlns:xlink="http://www.w3.org/1999/xlink" width="200" height="200"><path d="M512.057226 64.092992a447.964234 447.964234 0 0 1 174.310048 860.56287 447.849782 447.849782 0 0 1-490.9981-729.40114A446.018554 446.018554 0 0 1 512.057226 64.092992m0-64.092992C229.246898 0 0 229.246898 0 511.942774s229.246898 512.057226 512.057226 512.057226 512.057226-229.246898 512.057226-512.057226S794.867553 0 512.057226 0z" p-id="1561"></path><path d="M512.057226 1014.500503a27.468425 27.468425 0 0 1-27.468425-27.468425V36.967922a27.468425 27.468425 0 0 1 54.93685 0v950.064156a27.468425 27.468425 0 0 1-27.468425 27.468425z" p-id="1562"></path><path d="M987.032078 535.863194h-949.949704a27.468425 27.468425 0 0 1 0-54.93685h949.949704a27.468425 27.468425 0 0 1 0 54.93685zM515.605231 310.393204a724.25081 724.25081 0 0 1-136.998771-13.276405C256.371968 273.539734 177.514698 226.843411 174.195596 224.897731a27.489026 27.489026 0 0 1 28.269588-47.15413c1.030066 0.572259 75.538169 44.407287 188.616519 65.809769 150.732983 28.612943 295.285571 6.294847 429.537499-66.382028a27.468425 27.468425 0 1 1 26.095004 48.298648c-80.459595 43.606125-165.840617 70.616743-253.854029 80.574047a692.891025 692.891025 0 0 1-77.254946 4.349167zM833.666704 846.828658A26.667263 26.667263 0 0 1 820.619202 843.509556c-134.938639-73.02023-280.063485-95.223874-431.597631-66.038672-112.849447 21.860288-185.869677 65.008606-186.556387 65.466413a27.489026 27.489026 0 0 1-28.269588-47.154129c3.319101-1.94568 82.176372-48.642003 204.410864-72.219068a711.546664 711.546664 0 0 1 214.253717-8.927238c88.013412 9.957304 173.394434 36.967922 253.854029 80.574047a27.468425 27.468425 0 0 1-13.047502 51.617749z" p-id="1563"></path><path d="M393.714094 977.074774a27.353973 27.353973 0 0 1-23.119258-12.704147c-70.273388-110.102604-113.993964-226.957863-130.017212-347.59003-12.704147-96.482843-7.897172-195.254722 14.535375-293.683246C293.110987 155.539958 368.076897 48.069744 371.281547 43.606125a27.468425 27.468425 0 0 1 44.865094 31.703141c-0.686711 1.030066-72.676875 104.608919-108.042472 262.094557-47.039678 209.561194-10.415111 410.538505 108.843635 597.438247a27.468425 27.468425 0 0 1-23.23371 42.232704zM626.508997 977.074774a27.353973 27.353973 0 0 1-23.119257-42.232704c119.258746-186.899743 155.768861-387.877054 108.729183-597.438247-35.365597-157.485638-107.24131-261.064491-108.042473-262.094557a27.514206 27.514206 0 0 1 44.979546-31.703141c3.090198 4.463619 78.17056 111.933833 116.168549 279.491226 22.432547 98.428524 27.239522 197.200402 14.420923 293.683246-16.023248 120.632167-59.743825 237.487426-129.902761 347.59003a27.582877 27.582877 0 0 1-23.23371 12.704147z" p-id="1564"></path></svg>
