<?xml version="1.0" encoding="utf-8"?>
<!-- Generator: Adobe Illustrator 15.0.0, SVG Export Plug-In . SVG Version: 6.00 Build 0)  -->
<!DOCTYPE svg PUBLIC "-//W3C//DTD SVG 1.1//EN" "http://www.w3.org/Graphics/SVG/1.1/DTD/svg11.dtd">
<svg version="1.1" id="图层_1" xmlns="http://www.w3.org/2000/svg" xmlns:xlink="http://www.w3.org/1999/xlink" x="0px" y="0px"
	 width="24px" height="24px" viewBox="0 0 24 24" enable-background="new 0 0 24 24" xml:space="preserve">
<path d="M22.721,17.048V6.94c0-0.669-0.359-1.288-0.941-1.62l-8.855-5.053c-0.573-0.327-1.275-0.327-1.848,0L2.221,5.321
	c-0.583,0.332-0.941,0.95-0.941,1.62v10.107c0,0.668,0.358,1.286,0.939,1.618l8.855,5.065c0.574,0.327,1.279,0.327,1.852,0
	l8.856-5.065C22.362,18.334,22.72,17.717,22.721,17.048L22.721,17.048z M20.855,6.94v10.107L12,22.112l-8.855-5.064V6.94L12,1.887
	L20.855,6.94z"/>
<path d="M12,7.461c-2.506-0.001-4.539,2.03-4.54,4.537c-0.001,2.506,2.03,4.54,4.536,4.54c0.002,0,0.003,0,0.004,0
	c2.507,0,4.538-2.031,4.538-4.538C16.538,9.494,14.507,7.461,12,7.461z M12,9.291c1.496,0,2.709,1.212,2.71,2.708
	c0.001,1.495-1.211,2.71-2.708,2.71c0,0-0.001,0-0.002,0c-1.496,0-2.708-1.214-2.708-2.709C9.292,10.504,10.504,9.291,12,9.291z"/>
</svg>
