<?xml version="1.0" encoding="utf-8"?>
<!-- Generator: Adobe Illustrator 15.0.0, SVG Export Plug-In . SVG Version: 6.00 Build 0)  -->
<!DOCTYPE svg PUBLIC "-//W3C//DTD SVG 1.1//EN" "http://www.w3.org/Graphics/SVG/1.1/DTD/svg11.dtd">
<svg version="1.1" id="图层_1" xmlns="http://www.w3.org/2000/svg" xmlns:xlink="http://www.w3.org/1999/xlink" x="0px" y="0px"
	 width="128px" height="128px" viewBox="0 0 128 128" enable-background="new 0 0 128 128" xml:space="preserve">
<path fill="#93A1B5" d="M121.522,22.016H25.834c-3.529,0-6.383-2.863-6.383-6.383c0-3.526,2.854-6.38,6.383-6.38h95.688
	c3.532,0,6.385,2.854,6.385,6.38C127.907,19.153,125.055,22.016,121.522,22.016L121.522,22.016z"/>
<path fill="#93A1B5" d="M121.522,66.664H44.976c-3.527,0-6.38-2.854-6.38-6.374c0-3.523,2.853-6.376,6.38-6.376h76.546
	c3.532,0,6.385,2.854,6.385,6.376C127.907,63.811,125.055,66.664,121.522,66.664L121.522,66.664z"/>
<path fill="#93A1B5" d="M121.522,117.707H6.698c-3.526,0-6.383-2.854-6.383-6.379c0-3.521,2.856-6.387,6.383-6.387h114.824
	c3.532,0,6.385,2.866,6.385,6.387C127.907,114.854,125.055,117.707,121.522,117.707L121.522,117.707z"/>
</svg>
