<?xml version="1.0" encoding="utf-8"?>
<!-- Generator: Adobe Illustrator 15.0.0, SVG Export Plug-In . SVG Version: 6.00 Build 0)  -->
<!DOCTYPE svg PUBLIC "-//W3C//DTD SVG 1.1//EN" "http://www.w3.org/Graphics/SVG/1.1/DTD/svg11.dtd">
<svg version="1.1" id="图层_1" xmlns="http://www.w3.org/2000/svg" xmlns:xlink="http://www.w3.org/1999/xlink" x="0px" y="0px"
	 width="24px" height="24px" viewBox="0 0 24 24" enable-background="new 0 0 24 24" xml:space="preserve">
<g>
	<path d="M9.17,18.558c0.533,0,0.964-0.432,0.964-0.963V9.158c0-0.531-0.431-0.963-0.964-0.963S8.206,8.627,8.206,9.158v8.435
		C8.206,18.126,8.638,18.558,9.17,18.558z"/>
	<path d="M15.076,18.558c0.533,0,0.964-0.432,0.964-0.963V9.158c0-0.531-0.431-0.963-0.964-0.963s-0.964,0.432-0.964,0.963v8.435
		C14.112,18.126,14.544,18.558,15.076,18.558z"/>
	<path d="M6.138,1.928h11.868c0.531,0,0.963-0.431,0.963-0.964S18.537,0,18.006,0H6.14C5.607,0,5.175,0.432,5.175,0.964
		C5.175,1.497,5.607,1.928,6.138,1.928z"/>
	<path d="M23.037,3.232H1.027c-0.533,0-0.965,0.432-0.965,0.964c0,0.533,0.432,0.964,0.963,0.964h0.75l1.707,18.778H20.58
		L22.287,5.16h0.75C23.568,5.16,24,4.729,24,4.196S23.568,3.232,23.037,3.232z M18.87,22.228H5.192L3.485,5.16h17.092L18.87,22.228z
		"/>
</g>
</svg>
