<?xml version="1.0" encoding="utf-8"?>
<!-- Generator: Adobe Illustrator 15.0.0, SVG Export Plug-In . SVG Version: 6.00 Build 0)  -->
<!DOCTYPE svg PUBLIC "-//W3C//DTD SVG 1.1//EN" "http://www.w3.org/Graphics/SVG/1.1/DTD/svg11.dtd">
<svg version="1.1" id="图层_1" xmlns="http://www.w3.org/2000/svg" xmlns:xlink="http://www.w3.org/1999/xlink" x="0px" y="0px"
	 width="24px" height="24px" viewBox="0 0 24 24" enable-background="new 0 0 24 24" xml:space="preserve">
<path d="M23.988,2.299c0-1.113-0.797-2.038-1.848-2.25c-0.024-0.005-0.051-0.004-0.074-0.009C21.953,0.021,21.841,0.002,21.724,0
	h-0.052H10.328H2.299C1.042,0,0.021,1.014,0,2.265v4.497h-0.012v14.911c0,1.269,1.032,2.304,2.303,2.304h4.471V24h14.911
	c0.956,0,1.777-0.586,2.126-1.418c0.121-0.28,0.189-0.587,0.189-0.91V2.299z M1.919,21.672V13.66h0.003V2.303
	c0-0.207,0.168-0.375,0.375-0.375h19.375c0.206,0,0.374,0.168,0.374,0.375v19.391c0,0.051-0.011,0.1-0.029,0.145
	c-0.062,0.121-0.185,0.207-0.331,0.207H2.294C2.088,22.046,1.919,21.878,1.919,21.672z"/>
<path d="M11.303,8.209V5.82c-0.217-0.999-1.042-0.391-1.042-0.391l-5.733,4.908c-1.26,0.868-0.087,1.52-0.087,1.52l5.646,4.865
	c1.129,0.824,1.216-0.434,1.216-0.434v-2.215c5.733-1.782,8.079,5.342,8.079,5.342c0.218,0.391,0.348,0,0.348,0
	C21.944,8.73,11.303,8.209,11.303,8.209z"/>
</svg>
