<?xml version="1.0" standalone="no"?><!DOCTYPE svg PUBLIC "-//W3C//DTD SVG 1.1//EN" "http://www.w3.org/Graphics/SVG/1.1/DTD/svg11.dtd"><svg t="1658387058887" class="icon" viewBox="0 0 1024 1024" version="1.1" xmlns="http://www.w3.org/2000/svg" p-id="879" xmlns:xlink="http://www.w3.org/1999/xlink" width="32" height="32"><defs><style type="text/css"></style></defs><path d="M729.573202 0c-86.374301 0-163.182901 40.998719-217.557202 109.309584C457.611701 40.999719 380.802101 0 294.397801 0 131.215901 0 0.000001 150.183307 0.000001 337.958439c0 51.153401 6.375801 98.996906 22.4073 143.33852 0 0 12.841599 40.936721 22.4053 64.810975C169.651699 836.223868 512.016 1023.968001 512.016 1023.968001s342.302303-187.744133 467.173401-481.232961c0 0 16.061498-37.562826 22.436299-64.873973C1014.4373 433.548452 1024.000001 385.706947 1024.000001 334.521546 1024.000001 150.183307 892.8171 0 729.573202 0z" p-id="880"></path></svg>