<?xml version="1.0" encoding="utf-8"?>
<!-- Generator: Adobe Illustrator 15.0.0, SVG Export Plug-In . SVG Version: 6.00 Build 0)  -->
<!DOCTYPE svg PUBLIC "-//W3C//DTD SVG 1.1//EN" "http://www.w3.org/Graphics/SVG/1.1/DTD/svg11.dtd">
<svg version="1.1" id="图层_1" xmlns="http://www.w3.org/2000/svg" xmlns:xlink="http://www.w3.org/1999/xlink" x="0px" y="0px"
     width="595.279px" height="396.85px" viewBox="0 0 595.279 396.85" enable-background="new 0 0 595.279 396.85"
     xml:space="preserve">
<radialGradient id="SVGID_1_" cx="173.4651" cy="-199.6726" r="20.835" gradientTransform="matrix(1 0 0 -1 0.6606 -49.8354)" gradientUnits="userSpaceOnUse">
	<stop  offset="0.8" style="stop-color:#FFFFFF;stop-opacity:0.35"/>
  <stop  offset="1" style="stop-color:#565656;stop-opacity:0.2"/>
</radialGradient>
  <circle opacity="0.2" fill="url(#SVGID_1_)" enable-background="new    " cx="174.126" cy="149.837" r="20.835"/>
  <radialGradient id="SVGID_2_" cx="173.4651" cy="-199.6726" r="20.835" gradientTransform="matrix(1 0 0 -1 0.6606 -49.8354)" gradientUnits="userSpaceOnUse">
	<stop  offset="0.7636" style="stop-color:#FFFFFF;stop-opacity:0.35"/>
    <stop  offset="1" style="stop-color:#000000;stop-opacity:0.2"/>
</radialGradient>
  <circle opacity="0.2" fill="url(#SVGID_2_)" enable-background="new    " cx="174.126" cy="149.837" r="20.835"/>
  <radialGradient id="SVGID_3_" cx="413.8201" cy="-197.4705" r="20.835" gradientTransform="matrix(1 0 0 -1 0.6606 -49.8354)" gradientUnits="userSpaceOnUse">
	<stop  offset="0.8" style="stop-color:#FFFFFF;stop-opacity:0.35"/>
    <stop  offset="1" style="stop-color:#565656;stop-opacity:0.2"/>
</radialGradient>
  <circle opacity="0.2" fill="url(#SVGID_3_)" enable-background="new    " cx="414.481" cy="147.635" r="20.835"/>
  <radialGradient id="SVGID_4_" cx="413.8201" cy="-197.4705" r="20.835" gradientTransform="matrix(1 0 0 -1 0.6606 -49.8354)" gradientUnits="userSpaceOnUse">
	<stop  offset="0.7636" style="stop-color:#FFFFFF;stop-opacity:0.35"/>
    <stop  offset="1" style="stop-color:#000000;stop-opacity:0.2"/>
</radialGradient>
  <circle opacity="0.2" fill="url(#SVGID_4_)" enable-background="new    " cx="414.481" cy="147.635" r="20.835"/>
  <radialGradient id="SVGID_5_" cx="427.4021" cy="-323.8484" r="20.835" gradientTransform="matrix(1 0 0 -1 0.6606 -49.8354)" gradientUnits="userSpaceOnUse">
	<stop  offset="0.8" style="stop-color:#FFFFFF;stop-opacity:0.35"/>
    <stop  offset="1" style="stop-color:#565656;stop-opacity:0.2"/>
</radialGradient>
  <circle opacity="0.2" fill="url(#SVGID_5_)" enable-background="new    " cx="428.063" cy="274.013" r="20.835"/>
  <radialGradient id="SVGID_6_" cx="427.4021" cy="-323.8484" r="20.835" gradientTransform="matrix(1 0 0 -1 0.6606 -49.8354)" gradientUnits="userSpaceOnUse">
	<stop  offset="0.7636" style="stop-color:#FFFFFF;stop-opacity:0.35"/>
    <stop  offset="1" style="stop-color:#000000;stop-opacity:0.2"/>
</radialGradient>
  <circle opacity="0.2" fill="url(#SVGID_6_)" enable-background="new    " cx="428.063" cy="274.013" r="20.835"/>
  <radialGradient id="SVGID_7_" cx="141.5764" cy="-330.738" r="20.835" gradientTransform="matrix(1 0 0 -1 0.6606 -49.8354)" gradientUnits="userSpaceOnUse">
	<stop  offset="0.8" style="stop-color:#FFFFFF;stop-opacity:0.35"/>
    <stop  offset="1" style="stop-color:#565656;stop-opacity:0.2"/>
</radialGradient>
  <circle opacity="0.2" fill="url(#SVGID_7_)" enable-background="new    " cx="142.237" cy="280.903" r="20.835"/>
  <radialGradient id="SVGID_8_" cx="141.5764" cy="-330.738" r="20.835" gradientTransform="matrix(1 0 0 -1 0.6606 -49.8354)" gradientUnits="userSpaceOnUse">
	<stop  offset="0.7636" style="stop-color:#FFFFFF;stop-opacity:0.35"/>
    <stop  offset="1" style="stop-color:#000000;stop-opacity:0.2"/>
</radialGradient>
  <circle opacity="0.2" fill="url(#SVGID_8_)" enable-background="new    " cx="142.237" cy="280.903" r="20.835"/>
  <path fill="#E2E2E2" d="M424.28,274.018c0,2.088,1.693,3.783,3.781,3.783c2.089,0,3.782-1.695,3.782-3.783
	c0-2.09-1.693-3.781-3.782-3.781C425.975,270.242,424.285,271.932,424.28,274.018L424.28,274.018L424.28,274.018z M428.076,264.565
	c0.671-0.002,1.34,0.063,1.999,0.189c0.126,1.146,0.808,2.16,1.82,2.715c1.063,0.592,2.345,0.645,3.451,0.141
	c0.979,1.004,1.718,2.213,2.164,3.541c-0.992,0.639-1.595,1.734-1.595,2.912s0.603,2.273,1.595,2.912
	c-0.455,1.324-1.204,2.531-2.189,3.527c-1.104-0.488-2.373-0.428-3.426,0.166c-0.969,0.541-1.63,1.504-1.783,2.6
	c-1.438,0.281-2.924,0.256-4.354-0.074c-0.184-1.082-0.854-2.018-1.82-2.539c-0.958-0.529-2.099-0.629-3.133-0.266
	c-0.999-1.027-1.749-2.27-2.19-3.631c0.842-0.652,1.334-1.656,1.334-2.721c0-1.065-0.492-2.068-1.334-2.725
	c0.427-1.354,1.158-2.598,2.142-3.629c1.053,0.396,2.227,0.307,3.209-0.24c0.998-0.539,1.68-1.52,1.833-2.641
	C426.546,264.641,427.309,264.561,428.076,264.565L428.076,264.565L428.076,264.565z"/>
  <path fill="#E2E2E2" d="M414.483,152.469c3.063,0,5.536-2.408,5.536-5.385c0-2.979-2.483-5.387-5.536-5.387
	c-3.063,0-5.535,2.408-5.535,5.387C408.949,150.064,411.43,152.469,414.483,152.469L414.483,152.469L414.483,152.469z
	 M423.341,145.595c0,4.219-3.13,7.723-7.262,8.449c1.479,0.268,4.489,1.159,5.618,2.035c0.93,0.726,0.396,2.185-0.799,2.185H408.07
	c-1.194,0-1.728-1.458-0.8-2.185c1.119-0.885,4.138-1.776,5.619-2.035c-4.139-0.728-7.27-4.23-7.27-8.449
	c0-4.746,3.967-8.59,8.858-8.59S423.341,140.849,423.341,145.595L423.341,145.595L423.341,145.595z M411.157,148.078
	c0-1.829,1.487-3.313,3.321-3.313c1.833,0,3.321,1.483,3.321,3.313c0,1.827-1.488,3.313-3.321,3.313
	C412.645,151.392,411.157,149.906,411.157,148.078L411.157,148.078L411.157,148.078z"/>
  <path fill="#E2E2E2" d="M184.249,154.57l-9.242,4.407c-0.205,0.102-0.435,0.102-0.64,0l-9.571-4.559
	c-0.399-0.215-0.582-0.753-0.413-1.224c0.171-0.468,0.632-0.698,1.048-0.525l9.248,4.414l8.938-4.264
	c0.416-0.172,0.877,0.062,1.046,0.529C184.832,153.817,184.65,154.355,184.249,154.57L184.249,154.57z M184.249,150.766
	l-9.242,4.408c-0.205,0.1-0.435,0.1-0.64,0l-9.571-4.563c-0.399-0.215-0.582-0.753-0.413-1.221c0.171-0.468,0.632-0.701,1.048-0.529
	l9.248,4.408l8.938-4.262v0.007c0.416-0.173,0.877,0.062,1.046,0.528C184.832,150.013,184.65,150.552,184.249,150.766
	L184.249,150.766z M172.682,150.443l-6.037-2.866l-1.836-1.044c0,0-0.525-0.421-0.525-1.304c0,0-0.054-0.702,1.313-1.563l7.35-4.17
	c0,0,0.858-0.521,1.575-0.521v11.991C174.52,150.964,174.39,151.158,172.682,150.443L172.682,150.443z M184.232,146.518
	l-1.837,1.041l-6.038,2.861c-1.707,0.714-1.837,0.521-1.837,0.521v-11.967c0.715,0,1.575,0.521,1.575,0.521l7.35,4.16
	c1.364,0.86,1.312,1.563,1.312,1.563C184.756,146.098,184.232,146.518,184.232,146.518L184.232,146.518z"/>
  <path fill="#E2E2E2" d="M138.954,288.723c-0.959-0.236-2.226-0.229-3.46-0.389c-1.563-0.205-1.814-2.146-1.813-2.869v-13.561
	c0-0.691,0.994-0.943,1.652-1.01c0.208-0.021,0.417-0.033,0.627-0.033c0.887,0,2.146,0.188,2.993,0.557
	c1.407,0.613,2.059,1.313,2.842,2.729l0.054,16.014C140.785,289.117,140.115,289.01,138.954,288.723L138.954,288.723z
	 M135.493,289.115c1.118,0.047,2.219,0.27,3.244,0.523c0.961,0.234,1.738,0.617,2.521,1.303c-1.4-0.344-2.853-0.322-4.109-0.322
	c-0.99,0-1.56,0.148-2.981,0.148c-1.679,0-2.562-1.596-2.562-2.621V275.21c0-0.742,0.588-1.217,1.295-1.217v12.252l-0.013,0.664
	C132.889,288.02,133.806,289.053,135.493,289.115L135.493,289.115z M150.304,290.768c-1.426,0-1.991-0.148-2.981-0.148
	c-1.258,0-2.708-0.021-4.111,0.322c0.786-0.686,1.563-1.066,2.523-1.303c1.023-0.256,2.128-0.479,3.245-0.523
	c1.687-0.063,2.604-1.096,2.604-2.203l-0.014-0.664v-12.252c0.708,0,1.295,0.475,1.295,1.217v12.936
	C152.866,289.172,151.983,290.768,150.304,290.768L150.304,290.768z M148.98,288.334c-1.234,0.16-2.501,0.15-3.461,0.389
	c-1.16,0.287-1.831,0.396-2.896,1.438l0.051-16.014c0.786-1.418,1.438-2.113,2.844-2.729c0.849-0.369,2.106-0.557,2.993-0.557
	c0.209,0,0.42,0.012,0.627,0.033c0.656,0.064,1.652,0.316,1.652,1.01v13.561C150.795,286.19,150.543,288.129,148.98,288.334
	L148.98,288.334z"/>
  <polyline fill="#9B9B9B" points="176.489,265.744 169.796,270.076 169.796,272.832 172.157,274.406 178.457,270.076
	176.489,268.895 176.489,265.744 "/>
  <polyline fill="#9B9B9B" points="395.781,254.328 402.473,258.656 402.473,261.414 400.111,262.989 393.812,258.656
	395.781,257.479 395.781,254.328 "/>
  <polyline fill="#9B9B9B" points="379.244,173.225 385.937,168.895 385.937,166.139 383.575,164.565 377.276,168.895
	379.244,170.073 379.244,173.225 "/>
  <polyline fill="#9B9B9B" points="208.25,174.264 201.3,170.358 201.13,167.608 203.389,165.889 209.945,169.819 208.054,171.121
	208.25,174.264 "/>
  <path fill="#F4F4F4" d="M302.079,214.565c45.011,0,81.496,16.039,81.496,35.826s-36.485,35.826-81.496,35.826
	c-45.01,0-81.496-16.039-81.496-35.826S257.07,214.565,302.079,214.565L302.079,214.565z"/>
  <path fill="#B4B4B4" d="M302.276,186.612c51.858,0,93.898,19.391,93.898,43.309s-42.04,43.307-93.898,43.307
	c-51.857,0-93.897-19.389-93.897-43.307S250.418,186.612,302.276,186.612L302.276,186.612z"/>
  <path fill="#F8F8F8" d="M302.473,185.035c51.313,0,92.913,18.859,92.913,42.127c0,23.266-41.601,42.127-92.913,42.127
	c-51.314,0-92.914-18.861-92.914-42.127C209.559,203.896,251.158,185.035,302.473,185.035L302.473,185.035z"/>
  <path fill="#F4F4F4" d="M301.885,190.942c34.68,0,62.795,13.572,62.795,30.314c0,16.744-28.115,30.314-62.795,30.314
	c-34.684,0-62.798-13.57-62.798-30.314C239.087,204.514,267.201,190.942,301.885,190.942L301.885,190.942z"/>
  <path fill="#B4B4B4" d="M301.885,189.367c34.68,0,62.795,12.604,62.795,28.146c0,15.547-28.115,28.15-62.795,28.15
	c-34.684,0-62.798-12.604-62.798-28.15C239.087,201.971,267.201,189.367,301.885,189.367L301.885,189.367z"/>
  <path fill="#F8F8F8" d="M302.276,191.729c32.071,0,58.071,11.105,58.071,24.803c0,13.699-26,24.805-58.071,24.805
	s-58.07-11.104-58.07-24.805C244.205,202.834,270.204,191.729,302.276,191.729L302.276,191.729z"/>
  <path fill="#B4B4B4" d="M302.079,185.035c26.095,0,47.244,8.813,47.244,19.686s-21.149,19.686-47.244,19.686
	c-26.093,0-47.244-8.813-47.244-19.686C254.835,193.85,275.987,185.035,302.079,185.035L302.079,185.035z"/>
  <path fill="#F8F8F8" d="M302.079,186.612c24.137,0,43.7,7.758,43.7,17.322c0,9.568-19.563,17.322-43.7,17.322
	c-24.135,0-43.701-7.754-43.701-17.322C258.378,194.367,277.945,186.612,302.079,186.612L302.079,186.612z"/>
  <polygon fill="#E2E2E2" points="291.449,190.155 312.711,190.155 312.711,206.69 291.449,206.69 "/>
  <path fill="#9B9B9B" d="M348.857,192.805l-0.219-0.297l1.159-0.854l0.217,0.299L348.857,192.805L348.857,192.805z M351.002,191.229
	l-0.221-0.297l1.158-0.852l0.219,0.297L351.002,191.229L351.002,191.229z M353.143,189.653l-0.219-0.297l1.157-0.852l0.22,0.297
	L353.143,189.653L353.143,189.653z M355.287,188.076l-0.219-0.299l1.158-0.854l0.219,0.299L355.287,188.076L355.287,188.076z
	 M357.439,186.494l-0.219-0.299l1.158-0.852l0.219,0.297L357.439,186.494L357.439,186.494z M359.576,184.922l-0.218-0.297
	l1.158-0.854l0.219,0.297L359.576,184.922L359.576,184.922z M361.73,183.34l-0.219-0.297l1.158-0.854l0.219,0.297L361.73,183.34
	L361.73,183.34z M363.872,181.764l-0.218-0.297l1.159-0.854l0.218,0.299L363.872,181.764L363.872,181.764z M366.014,180.188
	l-0.218-0.297l1.156-0.852l0.221,0.297L366.014,180.188L366.014,180.188z M368.16,178.61l-0.218-0.297l1.158-0.85l0.218,0.297
	L368.16,178.61L368.16,178.61z M370.309,177.031l-0.218-0.297l1.155-0.854l0.221,0.297L370.309,177.031L370.309,177.031z
	 M372.453,175.455l-0.219-0.297l1.158-0.854l0.218,0.297L372.453,175.455L372.453,175.455z"/>
  <path fill="#E2E2E2" d="M179.901,267.339l-0.171-0.327l1.276-0.666l0.168,0.328L179.901,267.339L179.901,267.339z M182.261,266.109
	l-0.173-0.327l1.274-0.665l0.171,0.327L182.261,266.109L182.261,266.109z M184.618,264.877l-0.171-0.326l1.273-0.665l0.172,0.326
	L184.618,264.877L184.618,264.877z M186.977,263.647l-0.17-0.329l1.275-0.666l0.17,0.328L186.977,263.647L186.977,263.647z
	 M189.345,262.411l-0.171-0.328l1.275-0.665l0.171,0.326L189.345,262.411L189.345,262.411z M191.697,261.184l-0.17-0.327
	l1.275-0.667l0.171,0.327L191.697,261.184L191.697,261.184z M194.067,259.948l-0.171-0.326l1.275-0.668l0.171,0.326L194.067,259.948
	L194.067,259.948z M196.425,258.718l-0.17-0.327l1.276-0.668l0.169,0.329L196.425,258.718L196.425,258.718z M198.782,257.487
	l-0.17-0.326l1.272-0.665l0.173,0.327L198.782,257.487L198.782,257.487z M201.143,256.254l-0.17-0.326l1.274-0.663l0.17,0.326
	L201.143,256.254L201.143,256.254z M203.509,255.022l-0.17-0.327l1.272-0.667l0.173,0.327L203.509,255.022L203.509,255.022z
	 M205.867,253.792l-0.171-0.327l1.275-0.668l0.17,0.327L205.867,253.792L205.867,253.792z"/>
  <path fill="#E2E2E2" d="M208.082,252.682l-0.171-0.327l1.276-0.666l0.168,0.328L208.082,252.682L208.082,252.682z M210.442,251.451
	l-0.173-0.327l1.274-0.665l0.171,0.327L210.442,251.451L210.442,251.451z M212.799,250.22l-0.171-0.326l1.273-0.665l0.172,0.326
	L212.799,250.22L212.799,250.22z M215.158,248.99l-0.17-0.329l1.275-0.666l0.17,0.328L215.158,248.99L215.158,248.99z
	 M217.527,247.754l-0.171-0.328l1.275-0.665l0.171,0.326L217.527,247.754L217.527,247.754z M219.878,246.527l-0.17-0.327
	l1.275-0.667l0.171,0.327L219.878,246.527L219.878,246.527z M222.248,245.291l-0.171-0.326l1.275-0.668l0.171,0.326L222.248,245.291
	L222.248,245.291z M224.606,244.061l-0.17-0.327l1.276-0.668l0.169,0.329L224.606,244.061L224.606,244.061z M226.964,242.829
	l-0.17-0.326l1.272-0.665l0.173,0.327L226.964,242.829L226.964,242.829z M229.324,241.597l-0.17-0.326l1.274-0.663l0.17,0.326
	L229.324,241.597L229.324,241.597z M231.69,240.365l-0.17-0.327l1.272-0.667l0.173,0.327L231.69,240.365L231.69,240.365z
	 M234.049,239.135l-0.171-0.327l1.275-0.668l0.17,0.327L234.049,239.135L234.049,239.135z"/>
  <path fill="#B4B4B4" d="M248.851,198.182l-1.197-0.798l0.204-0.306l1.197,0.796L248.851,198.182L248.851,198.182z M246.634,196.706
	l-1.197-0.798l0.204-0.306l1.197,0.796L246.634,196.706L246.634,196.706z M244.411,195.225l-1.197-0.798l0.204-0.308l1.197,0.8
	L244.411,195.225L244.411,195.225z M242.198,193.752l-1.196-0.8l0.204-0.306l1.196,0.798L242.198,193.752L242.198,193.752z
	 M239.98,192.273l-1.197-0.798l0.204-0.306l1.197,0.798L239.98,192.273L239.98,192.273z M237.77,190.801l-1.196-0.796l0.204-0.308
	l1.196,0.798L237.77,190.801L237.77,190.801z M235.548,189.322l-1.197-0.8l0.204-0.307l1.197,0.796L235.548,189.322L235.548,189.322
	z M233.331,187.845l-1.197-0.796l0.204-0.308l1.197,0.798L233.331,187.845L233.331,187.845z M231.113,186.367l-1.197-0.798
	l0.204-0.306l1.197,0.796L231.113,186.367L231.113,186.367z M228.901,184.894l-1.196-0.798l0.204-0.308l1.198,0.8L228.901,184.894
	L228.901,184.894z M226.683,183.416l-1.196-0.798l0.206-0.306l1.196,0.798L226.683,183.416L226.683,183.416z M224.467,181.94
	l-1.197-0.798l0.206-0.307l1.197,0.798L224.467,181.94L224.467,181.94z M222.246,180.461l-1.197-0.796l0.206-0.311l1.197,0.8
	L222.246,180.461L222.246,180.461z M220.031,178.986l-1.197-0.8l0.204-0.306l1.197,0.798L220.031,178.986L220.031,178.986z
	 M217.818,177.51l-1.197-0.796l0.204-0.306l1.197,0.796L217.818,177.51L217.818,177.51z M215.598,176.031l-1.197-0.796l0.204-0.306
	l1.197,0.796L215.598,176.031L215.598,176.031z"/>
  <path fill="#B4B4B4" d="M390.201,254.336l-1.195-0.799l0.202-0.309l1.197,0.799L390.201,254.336L390.201,254.336z M387.985,252.858
	l-1.197-0.797l0.204-0.307l1.197,0.797L387.985,252.858L387.985,252.858z M385.766,251.379l-1.195-0.797l0.203-0.309l1.197,0.797
	L385.766,251.379L385.766,251.379z M383.552,249.903l-1.196-0.797l0.204-0.309l1.196,0.799L383.552,249.903L383.552,249.903z
	 M381.337,248.426l-1.196-0.797l0.205-0.311l1.193,0.801L381.337,248.426L381.337,248.426z M379.119,246.948l-1.194-0.797
	l0.205-0.307l1.194,0.799L379.119,246.948L379.119,246.948z M376.907,245.475l-1.194-0.799l0.204-0.307l1.195,0.799L376.907,245.475
	L376.907,245.475z M374.689,243.994l-1.197-0.801l0.204-0.305l1.197,0.797L374.689,243.994L374.689,243.994z M372.469,242.514
	l-1.195-0.797l0.204-0.307l1.196,0.799L372.469,242.514L372.469,242.514z M370.262,241.043l-1.197-0.797l0.204-0.309l1.197,0.797
	L370.262,241.043L370.262,241.043z M368.039,239.561l-1.195-0.797l0.204-0.307l1.195,0.799L368.039,239.561L368.039,239.561z
	 M365.823,238.084l-1.194-0.797l0.203-0.309l1.196,0.797L365.823,238.084L365.823,238.084z M363.614,236.612l-1.193-0.797
	l0.202-0.309l1.196,0.799L363.614,236.612L363.614,236.612z"/>
  <path fill="#F4F4F4" d="M256.803,122.045h90.552c2.609,0,4.725,2.115,4.725,4.725v62.204c0,2.609-2.113,4.725-4.725,4.725h-90.552
	c-2.608,0-4.726-2.113-4.726-4.725V126.77C252.079,124.159,254.195,122.045,256.803,122.045L256.803,122.045z"/>
  <polygon fill="#CECECE" points="256.41,129.525 347.748,129.525 347.748,186.219 256.41,186.219 "/>
  <path fill="#FFFFFF" d="M259.952,135.43v-2.363h5.513v2.363H259.952L259.952,135.43z M267.827,135.43v-2.363h15.747v2.363H267.827
	L267.827,135.43z"/>
  <path fill="#FFFFFF" d="M259.952,146.847v-2.362h5.513v2.362H259.952L259.952,146.847z M259.952,156.297v-2.363h5.513v2.363H259.952
	L259.952,156.297z M259.952,165.744v-2.361h5.513v2.361H259.952L259.952,165.744z M259.952,175.194v-2.359h5.513v2.359H259.952
	L259.952,175.194z"/>
  <path fill="#FFFFFF" d="M307.05,165.323l-10.716,9.219c2.729,2.238,6.153,3.459,9.688,3.453h0.019
	c7.543,0,13.851-5.443,15.146-12.672H307.05L307.05,165.323z"/>
  <path fill="#FFFFFF" d="M306.338,163.399h16.999c-0.433,9.193-8,16.523-17.302,16.523h-0.002c-4.762,0.006-9.313-1.961-12.577-5.436
	L306.338,163.399L306.338,163.399z"/>
  <path fill="#FFFFFF" d="M288.695,162.58v0.012c-0.008,3.865,1.29,7.617,3.683,10.65l12.839-11.037v-16.929
	C296.021,145.711,288.695,153.281,288.695,162.58z M303.287,161.319l-10.497,9.133c-1.379-2.297-2.17-4.982-2.17-7.854v-0.02
	c0-7.547,5.442-13.853,12.667-15.149V161.319L303.287,161.319z"/>
  <path fill="#FFFFFF" d="M311.758,161.758h3.387l6.854-5.896c-0.307-0.727-0.66-1.434-1.062-2.111L311.758,161.758L311.758,161.758z"
  />
  <path fill="#FFFFFF" d="M306.856,145.279v2.777l2.786-2.405c-0.901-0.197-1.82-0.319-2.743-0.37L306.856,145.279L306.856,145.279z"
  />
  <path fill="#FFFFFF" d="M321.191,161.758l1.978-1.699c-0.129-0.863-0.321-1.713-0.581-2.544l-4.768,4.247L321.191,161.758
	L321.191,161.758z"/>
  <path fill="#FFFFFF" d="M315.534,148.108l-8.679,7.458v2.917l10.473-9.024c-0.548-0.473-1.126-0.908-1.728-1.311L315.534,148.108
	L315.534,148.108z"/>
  <path fill="#FFFFFF" d="M311.681,146.202l-4.825,4.147v2.916l7.068-6.093c-0.686-0.361-1.396-0.674-2.122-0.938L311.681,146.202
	L311.681,146.202z"/>
  <path fill="#FFFFFF" d="M320.006,152.359c-0.437-0.592-0.905-1.155-1.411-1.688l-11.737,10.108v0.982h2.238L320.006,152.359
	L320.006,152.359z"/>
  <path fill="#9B9B9B" d="M311.758,161.758h3.387l6.854-5.896c-0.307-0.727-0.66-1.434-1.062-2.111L311.758,161.758L311.758,161.758z"
  />
  <path fill="#9B9B9B" d="M306.856,145.279v2.777l2.786-2.405c-0.901-0.197-1.82-0.319-2.743-0.37L306.856,145.279L306.856,145.279z"
  />
  <path fill="#9B9B9B" d="M321.191,161.758l1.978-1.699c-0.129-0.863-0.321-1.713-0.581-2.544l-4.768,4.247L321.191,161.758
	L321.191,161.758z"/>
  <path fill="#9B9B9B" d="M315.534,148.108l-8.679,7.458v2.917l10.473-9.024c-0.548-0.473-1.126-0.908-1.728-1.311L315.534,148.108
	L315.534,148.108z"/>
  <path fill="#9B9B9B" d="M311.681,146.202l-4.825,4.147v2.916l7.068-6.093c-0.686-0.361-1.396-0.674-2.122-0.938L311.681,146.202
	L311.681,146.202z"/>
  <path fill="#9B9B9B" d="M320.006,152.359c-0.437-0.592-0.905-1.155-1.411-1.688l-11.737,10.108v0.982h2.238L320.006,152.359
	L320.006,152.359z"/>
  <path fill="#FFFFFF" d="M320.977,135.43v-2.363h5.512v2.363H320.977L320.977,135.43z M328.851,135.43v-2.363h15.748v2.363H328.851
	L328.851,135.43z"/>
  <rect x="256.41" y="138.973" fill="#FFFFFF" width="91.338" height="0.788"/>
  <path fill="#CECECE" d="M302.079,125.194c0.652,0,1.183,0.529,1.183,1.183c0,0.65-0.528,1.181-1.183,1.181
	c-0.651,0-1.181-0.528-1.181-1.181C300.898,125.722,301.427,125.194,302.079,125.194L302.079,125.194z"/>
  <path fill="#CECECE" d="M286.529,205.115h31.104c0.762,0,1.378,0.617,1.378,1.379s-0.616,1.379-1.378,1.379h-31.104
	c-0.762,0-1.379-0.617-1.379-1.379C285.15,205.733,285.767,205.115,286.529,205.115L286.529,205.115z"/>
  <path opacity="0.5" fill="none" d="M455.594,92.836l93.688-65.348c0.805-0.56,1.91-0.364,2.474,0.436
	c0.563,0.799,0.365,1.902-0.438,2.462L457.63,95.734c-0.805,0.562-1.909,0.365-2.474-0.435
	C454.594,94.499,454.79,93.396,455.594,92.836L455.594,92.836z"/>
  <rect x="455.804" y="64.578" transform="matrix(0.8194 -0.5732 0.5732 0.8194 53.0111 297.8096)" opacity="0.5" fill="none" width="86.673" height="0.392"/>
  <path opacity="0.5" fill="#E2E2E2" d="M455.594,92.836l93.688-65.348c0.805-0.56,1.91-0.364,2.474,0.436
	c0.563,0.799,0.365,1.902-0.438,2.462L457.63,95.734c-0.805,0.562-1.909,0.365-2.474-0.435
	C454.594,94.499,454.79,93.396,455.594,92.836L455.594,92.836z"/>
  <polygon opacity="0.5" fill="#FFFFFF" points="463.503,89.44 534.525,39.76 534.751,40.082 463.728,89.762 "/>
  <polygon opacity="0.5" fill="#FFFFFF" points="457.042,93.77 461.851,90.547 462.077,90.87 457.268,94.093 "/>
  <path opacity="0.3" fill="none" d="M415.641,346.57l93.688-65.348c0.805-0.561,1.91-0.365,2.474,0.436
	c0.563,0.799,0.365,1.902-0.438,2.461l-93.689,65.348c-0.805,0.563-1.909,0.365-2.474-0.434
	C414.641,348.232,414.837,347.128,415.641,346.57L415.641,346.57z"/>
  <rect x="415.851" y="318.311" transform="matrix(0.8194 -0.5732 0.5732 0.8194 -99.6461 320.73)" opacity="0.3" fill="none" width="86.673" height="0.393"/>
  <path opacity="0.3" fill="#E2E2E2" d="M415.641,346.57l93.688-65.348c0.805-0.561,1.91-0.365,2.474,0.436
	c0.563,0.799,0.365,1.902-0.438,2.461l-93.689,65.348c-0.805,0.563-1.909,0.365-2.474-0.434
	C414.641,348.232,414.837,347.128,415.641,346.57L415.641,346.57z"/>
  <polygon opacity="0.3" fill="#FFFFFF" points="423.55,343.173 494.572,293.493 494.798,293.816 423.775,343.495 "/>
  <polygon opacity="0.3" fill="#FFFFFF" points="417.089,347.503 421.898,344.281 422.124,344.603 417.315,347.825 "/>
  <path opacity="0.6" fill="none" d="M73.54,153.27l93.688-65.348c0.805-0.56,1.91-0.364,2.474,0.436
	c0.563,0.799,0.365,1.902-0.438,2.462l-93.689,65.348c-0.805,0.562-1.909,0.365-2.474-0.435
	C72.54,154.933,72.735,153.829,73.54,153.27L73.54,153.27z"/>
  <rect x="73.75" y="125.012" transform="matrix(0.8194 -0.5732 0.5732 0.8194 -50.6255 89.7262)" opacity="0.6" fill="none" width="86.673" height="0.392"/>
  <path opacity="0.6" fill="#E2E2E2" d="M73.54,153.27l93.688-65.348c0.805-0.56,1.91-0.364,2.474,0.436
	c0.563,0.799,0.365,1.902-0.438,2.462l-93.689,65.348c-0.805,0.562-1.909,0.365-2.474-0.435
	C72.54,154.933,72.735,153.829,73.54,153.27L73.54,153.27z"/>
  <polygon opacity="0.6" fill="#FFFFFF" points="81.448,149.873 152.47,100.194 152.696,100.516 81.674,150.196 "/>
  <polygon opacity="0.6" fill="#FFFFFF" points="74.987,154.203 79.797,150.981 80.022,151.304 75.214,154.527 "/>
</svg>
