<?xml version="1.0" encoding="utf-8"?>
<!-- Generator: Adobe Illustrator 15.0.0, SVG Export Plug-In . SVG Version: 6.00 Build 0)  -->
<!DOCTYPE svg PUBLIC "-//W3C//DTD SVG 1.1//EN" "http://www.w3.org/Graphics/SVG/1.1/DTD/svg11.dtd">
<svg version="1.1" id="图层_1" xmlns="http://www.w3.org/2000/svg" xmlns:xlink="http://www.w3.org/1999/xlink" x="0px" y="0px"
	 width="128px" height="128px" viewBox="0 0 128 128" enable-background="new 0 0 128 128" xml:space="preserve">
<path d="M6.637,2.829c0.325-0.066,0.662-0.102,1.008-0.102h37.668c2.762,0,5,2.239,5,5c0,2.761-2.238,5-5,5H12.645v32.668
	c0,2.762-2.238,5-5,5s-5-2.238-5-5V7.728C2.645,5.311,4.359,3.295,6.637,2.829z"/>
<path d="M55.243,76.645c0.066,0.325,0.104,0.662,0.104,1.008v37.668c0,2.763-2.24,5-5,5c-2.762,0-5-2.237-5-5V82.652H12.679
	c-2.764,0-5-2.237-5-5c0-2.762,2.236-5,5-5h37.666C52.763,72.652,54.778,74.366,55.243,76.645z"/>
<path d="M121.254,125.23c-0.324,0.066-0.662,0.103-1.008,0.103H82.578c-2.762,0-5-2.239-5-5s2.238-5,5-5h32.668V82.665
	c0-2.763,2.238-5,5-5s5,2.237,5,5v37.668C125.246,122.75,123.531,124.766,121.254,125.23z"/>
<path d="M72.821,51.291c-0.066-0.324-0.103-0.662-0.103-1.008V12.615c0-2.762,2.239-5,5-5s5,2.238,5,5v32.668h32.668
	c2.763,0,5,2.238,5,5s-2.237,5-5,5H77.719C75.302,55.283,73.286,53.568,72.821,51.291z"/>
<path d="M72.719,50.686V19.584c0.001-2.54,2.061-4.597,4.6-4.596c2.538,0.001,4.596,2.058,4.596,4.596v20.004L117.46,4.043
	c1.787-1.794,4.69-1.801,6.485-0.013c0.004,0.004,0.009,0.009,0.015,0.013c1.795,1.794,1.796,4.706,0.002,6.502
	c-0.002,0-0.002,0.001-0.002,0.002l-35.54,35.54h19.997c2.54,0.001,4.597,2.062,4.596,4.601c-0.002,2.539-2.062,4.597-4.602,4.595
	H77.316C74.777,55.283,72.719,53.225,72.719,50.686z"/>
<path d="M4.101,117.4c-0.038,0.037-0.076,0.075-0.113,0.113c-1.765,1.826-1.715,4.736,0.11,6.502
	c1.825,1.765,4.736,1.716,6.501-0.11l35.553-35.552v20.004c0,2.538,2.058,4.596,4.596,4.597c2.539,0.001,4.599-2.057,4.6-4.597
	V77.251l0,0c0-2.539-2.059-4.598-4.598-4.598H19.642c-2.539-0.002-4.6,2.056-4.602,4.595c-0.001,2.539,2.056,4.6,4.596,4.601h20.01
	L4.101,117.4L4.101,117.4z"/>
</svg>
