<?xml version="1.0" encoding="utf-8"?>
<!-- Generator: Adobe Illustrator 15.0.0, SVG Export Plug-In . SVG Version: 6.00 Build 0)  -->
<!DOCTYPE svg PUBLIC "-//W3C//DTD SVG 1.1//EN" "http://www.w3.org/Graphics/SVG/1.1/DTD/svg11.dtd">
<svg version="1.1" id="图层_1" xmlns="http://www.w3.org/2000/svg" xmlns:xlink="http://www.w3.org/1999/xlink" x="0px" y="0px"
	 width="128px" height="128px" viewBox="0 0 128 128" enable-background="new 0 0 128 128" xml:space="preserve">
<linearGradient id="SVGID_1_" gradientUnits="userSpaceOnUse" x1="320.4199" y1="-240.7183" x2="320.4199" y2="-367.0786" gradientTransform="matrix(1 0 0 -1 -256.4199 -239.9004)">
	<stop  offset="0" style="stop-color:#EA4D32"/>
	<stop  offset="0.9974" style="stop-color:#C9000A"/>
</linearGradient>
<path d="M94.57,127.178h-0.68c-4.086,0.047-7.437-3.226-7.483-7.313c-0.001-0.164,0.003-0.33,0.012-0.496
	c0.072-4.202,3.536-7.551,7.739-7.479c0.023,0.002,0.049,0.002,0.072,0.002h15.627c1.093-0.074,1.961-0.942,2.035-2.035V95.589
	c-0.108-4.205,3.211-7.7,7.416-7.812c0.021,0,0.039,0,0.061,0c4.244,0.164,7.646,3.566,7.811,7.812v24.116
	c-0.037,4.113-3.359,7.438-7.474,7.473H94.57L94.57,127.178z M8.636,126.827c-4.113-0.034-7.439-3.358-7.476-7.472V95.238
	c0.153-4.063,3.413-7.322,7.476-7.477c4.134,0.123,7.506,3.352,7.809,7.477v14.264c0.073,1.096,0.945,1.967,2.039,2.04h13.577
	c3.941,0.298,7.021,3.524,7.136,7.476c-0.124,4.135-3.352,7.506-7.476,7.811L8.636,126.827L8.636,126.827z M26.634,93.88v-2.712
	c0.343-3.193,1.931-6.124,4.418-8.154c2.585-2.604,5.566-4.781,8.831-6.455c3.735-1.699,7.473-3.396,11.207-4.756
	c0.351,0,0.351-0.351,0.681-0.351l1.018-1.019c0.274-0.397,0.398-0.881,0.352-1.361c0.051-0.92-0.068-1.842-0.352-2.717
	c-2.953-3.015-5.263-6.597-6.791-10.529c-1.713-4.21-2.635-8.702-2.717-13.247c-0.327-5.886,1.758-11.65,5.774-15.966
	C53.066,22.773,58.45,20.7,64,20.861c5.424,0.008,10.643,2.071,14.604,5.774c4.305,4.293,6.531,10.243,6.104,16.307
	c-0.051,4.438-0.972,8.823-2.714,12.905c-1.737,3.824-4.028,7.371-6.794,10.529c-0.283,0.761-0.402,1.569-0.353,2.38
	c-0.351,0.678,0,1.02,0,1.7c0,0.351,0,0.351,0.353,0.676c0,0.195,0.155,0.353,0.35,0.353l0,0c3.987,1.229,7.854,2.822,11.552,4.756
	c3.39,1.636,6.486,3.816,9.17,6.455c2.428,2.08,4,4.982,4.42,8.148v2.719c0,9.506-17.66,9.506-36.685,9.848
	c-21.066-0.008-37.37-0.688-37.37-9.52L26.634,93.88z M119.365,41.232c-1.907,0.053-3.754-0.685-5.098-2.04
	c-1.656-1.175-2.662-3.062-2.717-5.092V18.474c-0.072-1.093-0.941-1.965-2.033-2.039H93.891c-4.086,0.047-7.437-3.227-7.483-7.313
	c-0.001-0.166,0.003-0.331,0.012-0.497c-0.05-4.086,3.224-7.438,7.31-7.487c0.168-0.003,0.336,0.001,0.504,0.011h25.135
	c4.111,0.036,7.438,3.36,7.472,7.473V34.1c-0.375,3.772-3.358,6.756-7.132,7.132H119.365z M0.823,33.089V8.636
	c-0.11-4.205,3.211-7.702,7.416-7.812c0.019,0,0.038,0,0.056-0.001h23.766c3.745-0.133,7.042,2.448,7.813,6.115
	c1.045,4.076-1.413,8.228-5.489,9.273c-0.649,0.167-1.317,0.247-1.987,0.239h-14.25c-1.095,0.073-1.966,0.944-2.04,2.039v14.945
	c-0.036,4.112-3.36,7.436-7.472,7.472C4.389,40.742,0.985,37.336,0.823,33.089z"/>
</svg>
