<?xml version="1.0" encoding="utf-8"?>
<!-- Generator: Adobe Illustrator 15.0.0, SVG Export Plug-In . SVG Version: 6.00 Build 0)  -->
<!DOCTYPE svg PUBLIC "-//W3C//DTD SVG 1.1//EN" "http://www.w3.org/Graphics/SVG/1.1/DTD/svg11.dtd">
<svg version="1.1" id="图层_1" xmlns="http://www.w3.org/2000/svg" xmlns:xlink="http://www.w3.org/1999/xlink" x="0px" y="0px"
	 width="128px" height="128px" viewBox="0 0 128 128" enable-background="new 0 0 128 128" xml:space="preserve">
<path fill="#93A1B5" d="M51.934,57.967L36.847,73.045c-3.333,3.332-3.334,8.735-0.002,12.068c0,0.001,0.001,0.002,0.002,0.002
	l6.033,6.033c3.332,3.334,8.735,3.334,12.068,0.003c0.001-0.001,0.002-0.002,0.002-0.003l15.083-15.086
	c6.665,6.664,6.665,17.471,0,24.135v0.001l-21.12,21.12c-4.999,4.997-13.101,4.997-18.099,0L6.677,97.182
	c-4.997-4.998-4.997-13.101,0-18.1l21.12-21.119c6.665-6.666,17.471-6.666,24.136-0.001c0,0,0,0,0.001,0.001V57.967z M76.066,70.033
	L91.152,54.95c3.334-3.332,3.335-8.734,0.003-12.068c-0.001,0-0.001-0.001-0.003-0.002l-6.032-6.033
	c-3.332-3.333-8.735-3.334-12.067-0.003c-0.002,0.001-0.002,0.002-0.003,0.003L57.967,51.934c-6.665-6.665-6.665-17.471,0-24.136
	l0,0l21.12-21.12c4.999-4.997,13.101-4.997,18.099,0l24.137,24.137c4.997,4.998,4.997,13.101,0,18.099l-21.119,21.12
	C93.538,76.698,82.732,76.698,76.066,70.033L76.066,70.033z M45.901,76.066l30.166-30.166c1.666-1.667,4.367-1.668,6.035-0.002
	c1.667,1.666,1.668,4.368,0.002,6.035L51.934,82.1c-1.666,1.666-4.368,1.668-6.036,0.002c-1.667-1.666-1.668-4.368-0.002-6.035
	H45.901z"/>
</svg>
