<?xml version="1.0" standalone="no"?><!DOCTYPE svg PUBLIC "-//W3C//DTD SVG 1.1//EN" "http://www.w3.org/Graphics/SVG/1.1/DTD/svg11.dtd"><svg t="1651112109784" class="icon" viewBox="0 0 1024 1024" version="1.1" xmlns="http://www.w3.org/2000/svg" p-id="10129" xmlns:xlink="http://www.w3.org/1999/xlink" width="48" height="48"><defs><style type="text/css">@font-face { font-family: feedback-iconfont; src: url("//at.alicdn.com/t/font_1031158_u69w8yhxdu.woff2?t=1630033759944") format("woff2"), url("//at.alicdn.com/t/font_1031158_u69w8yhxdu.woff?t=1630033759944") format("woff"), url("//at.alicdn.com/t/font_1031158_u69w8yhxdu.ttf?t=1630033759944") format("truetype"); }
</style></defs><path d="M512.699863 186.26362C357.130248 186.26362 231.054872 312.438977 231.054872 468.008592c0 155.569615 126.175356 281.744972 281.744972 281.744972 155.569615 0 281.744972-126.175356 281.744971-281.744972-0.09998-155.569615-126.175356-281.744972-281.844952-281.744972z" fill="#ff0000" p-id="10130"></path><path d="M319.737551 834.636985h385.924624v56.388986h-385.924624z" fill="#ff0000" p-id="10131"></path><path d="M377.526264 967.611013H647.973443v56.388987H377.526264z" fill="#ff0000" p-id="10132"></path><path d="M483.005663 0.09998h56.388986v112.578013H483.005663zM162.808202 156.817372l39.872212-39.872213 79.604452 79.604452-39.872212 39.872213zM47.290764 437.714509h112.578012v56.388986H47.290764zM864.431166 435.91486h112.578012v56.388987H864.431166zM740.699332 195.294856l79.604452-79.604452 39.872213 39.872213-79.604452 79.604452z" fill="#ff0000" p-id="10133"></path></svg>