<?xml version="1.0" encoding="utf-8"?>
<!-- Generator: Adobe Illustrator 15.0.0, SVG Export Plug-In . SVG Version: 6.00 Build 0)  -->
<!DOCTYPE svg PUBLIC "-//W3C//DTD SVG 1.1//EN" "http://www.w3.org/Graphics/SVG/1.1/DTD/svg11.dtd">
<svg version="1.1" id="图层_1" xmlns="http://www.w3.org/2000/svg" xmlns:xlink="http://www.w3.org/1999/xlink" x="0px" y="0px"
	 width="1024px" height="1024px" viewBox="0 0 1024 1024" enable-background="new 0 0 1024 1024" xml:space="preserve">
<g>
	<path d="M463.753,603.833h-261.01c-19.7,0-35.683-15.983-35.683-35.683c0-19.7,15.983-35.684,35.683-35.684h312.358
		c51.15-53.231,121.117-88.255,199.084-94.222c7.859-0.602,15.801-0.909,23.813-0.909c16.176,0,32.064,1.255,47.576,3.661
		c24.887,3.859,48.799,10.704,71.367,20.143v-47.615c0.068-18.097-23.883-47.519-47.578-47.565h-95.178l5.529-300.133
		c0.023-18.132-14.635-32.86-32.779-32.942H80.862c-18.121,0.082-32.826,14.81-32.744,32.896v814.41
		c-0.082,18.097,14.589,32.825,32.744,32.895h396.675c-30.857-48.096-48.767-105.255-48.767-166.52
		C428.77,695.111,441.422,646.561,463.753,603.833z M167.061,199.416c0-13.114,10.674-23.789,23.789-23.789h380.629
		c13.148,0,23.787,10.675,23.787,23.789v190.309c0,13.149-10.639,23.789-23.787,23.789H190.85c-13.114,0-23.789-10.64-23.789-23.789
		V199.416z M393.052,770.353H202.744c-19.7,0-35.683-15.982-35.683-35.683s15.983-35.683,35.683-35.683h190.309
		c19.735,0,35.671,15.982,35.671,35.683S412.787,770.353,393.052,770.353z"/>
	<path d="M856.941,540.516c-21.834-12.631-45.857-21.895-71.367-27.073c-15.373-3.121-31.283-4.764-47.576-4.764
		c-8.037,0-15.98,0.404-23.813,1.183c-56.049,5.572-106.375,30.6-144.125,68.238c-7.186,7.163-13.906,14.788-20.133,22.816
		c-31.213,40.249-49.804,90.776-49.804,145.648c0,64.837,25.954,123.608,68.024,166.52c43.172,44.034,103.314,71.366,169.85,71.366
		c131.371,0,237.885-106.515,237.885-237.886C975.883,658.522,928.041,581.65,856.941,540.516z M899.035,683.91l-42.094,43.21
		l-71.367,73.256l-3.205,3.29c-7.063,7.225-18.375,7.179-25.369-0.186l-42.814-44.884l-17.307-18.143l-94.875,95.944
		c-3.369,3.438-7.852,5.297-12.498,5.297c-7.365,0-13.986-4.67-16.703-11.848c-2.766-7.132-1.115-15.31,4.205-20.699l107.605-108.86
		c7.063-7.155,18.328-7.039,25.252,0.256l4.32,4.531l55.709,58.425l15.68-16.087l71.367-73.217l16.912-17.351
		c4.6-4.762,11.266-6.551,17.469-4.716c6.203,1.813,11.035,6.946,12.615,13.544C905.563,672.225,903.682,679.194,899.035,683.91z"/>
</g>
</svg>
