<?xml version="1.0" encoding="utf-8"?>
<!-- Generator: Adobe Illustrator 15.0.0, SVG Export Plug-In . SVG Version: 6.00 Build 0)  -->
<!DOCTYPE svg PUBLIC "-//W3C//DTD SVG 1.1//EN" "http://www.w3.org/Graphics/SVG/1.1/DTD/svg11.dtd">
<svg version="1.1" id="图层_1" xmlns="http://www.w3.org/2000/svg" xmlns:xlink="http://www.w3.org/1999/xlink" x="0px" y="0px"
	 width="1024px" height="1024px" viewBox="0 0 1024 1024" enable-background="new 0 0 1024 1024" xml:space="preserve">
<g>
	<path d="M102.379,409.589c28.304,0,51.24-22.874,51.24-51.144V153.619h204.826c28.27,0,51.138-22.936,51.138-51.207
		c0-28.332-22.868-51.206-51.138-51.206H102.379c-28.305,0-51.172,22.874-51.172,51.206v256.032
		C51.207,386.715,74.074,409.589,102.379,409.589z"/>
	<path d="M256.032,307.176v409.651c0,28.271,22.868,51.139,51.138,51.139h409.654c28.271,0,51.139-22.868,51.139-51.139V307.176
		c0-28.27-22.868-51.145-51.139-51.145H307.17C278.9,256.032,256.032,278.906,256.032,307.176z"/>
	<path d="M921.65,614.415c-28.339,0-51.275,22.867-51.275,51.138v204.825H665.55c-28.271,0-51.139,22.937-51.139,51.275
		c0,28.27,22.868,51.138,51.139,51.138H921.65c28.27,0,51.138-22.868,51.138-51.138V665.553
		C972.788,637.282,949.92,614.415,921.65,614.415z"/>
	<path d="M358.445,870.378H153.619V665.553c0-28.271-22.936-51.138-51.24-51.138c-28.305,0-51.172,22.867-51.172,51.138v256.101
		c0,28.27,22.868,51.138,51.172,51.138h256.066c28.27,0,51.138-22.868,51.138-51.138
		C409.583,893.314,386.715,870.378,358.445,870.378z"/>
	<path d="M921.65,51.207H665.55c-28.271,0-51.139,22.874-51.139,51.206c0,28.271,22.868,51.207,51.139,51.207h204.825v204.826
		c0,28.27,22.937,51.144,51.275,51.144c28.27,0,51.138-22.874,51.138-51.144V102.413C972.788,74.081,949.92,51.207,921.65,51.207z"
		/>
</g>
</svg>
