<?xml version="1.0" encoding="utf-8"?>
<!-- Generator: Adobe Illustrator 15.0.0, SVG Export Plug-In . SVG Version: 6.00 Build 0)  -->
<!DOCTYPE svg PUBLIC "-//W3C//DTD SVG 1.1//EN" "http://www.w3.org/Graphics/SVG/1.1/DTD/svg11.dtd">
<svg version="1.1" id="图层_1" xmlns="http://www.w3.org/2000/svg" xmlns:xlink="http://www.w3.org/1999/xlink" x="0px" y="0px"
	 width="1024px" height="1024px" viewBox="0 0 1024 1024" enable-background="new 0 0 1024 1024" xml:space="preserve">
<path d="M898.438,218.278L577.606,17.72c-35.729-22.288-80.175-23.09-116.588-2.07l-327.39,188.774
	c-36.413,20.987-65.91,53.021-66.668,96.338l0.033,396.866c-0.715,43.318,20.846,83.774,56.576,106.063l320.875,200.59
	c35.687,22.288,80.132,23.068,116.556,2.061l327.379-188.774c36.489-20.987,65.909-52.988,66.646-96.327V324.362
	C955.676,281.087,934.168,240.598,898.438,218.278z M720.872,505.938l-78.353,76.63l18.103,108.447
	c2.753,33.236-20.228,49.778-51.232,36.923l-97.021-49.801l-98.441,50.516c-31.003,12.835-53.953-3.707-51.242-36.923
	l17.995-107.948l-79.623-77.844c-21.919-25.291-13.149-52.023,19.545-59.698l109.228-16.412l49.476-97.867
	c17.485-28.467,45.875-28.467,63.351,0l49.496,97.867L701.36,446.24C734.098,453.915,742.879,480.647,720.872,505.938z"/>
</svg>
