<?xml version="1.0" encoding="utf-8"?>
<!-- Generator: Adobe Illustrator 15.0.0, SVG Export Plug-In . SVG Version: 6.00 Build 0)  -->
<!DOCTYPE svg PUBLIC "-//W3C//DTD SVG 1.1//EN" "http://www.w3.org/Graphics/SVG/1.1/DTD/svg11.dtd">
<svg version="1.1" id="图层_1" xmlns="http://www.w3.org/2000/svg" xmlns:xlink="http://www.w3.org/1999/xlink" x="0px" y="0px"
	 width="1024px" height="1024px" viewBox="0 0 1024 1024" enable-background="new 0 0 1024 1024" xml:space="preserve">
<path fill="#040000" d="M812.015-0.937H209.973c-94.598,0-172.001,76.838-172.001,170.782v751.614
	c0,12.806,4.312,29.898,12.883,42.705c8.611,17.117,30.104,34.185,51.598,38.444c21.507,4.26,43.039,4.26,64.494-8.546
	l124.741-68.344c12.883-8.521,34.377-8.521,47.299,4.286l73.104,59.798c30.117,21.326,64.494,34.133,98.91,34.133
	c34.416,0,68.779-12.807,98.91-34.133l77.402-59.798c12.884-12.807,30.104-12.807,47.299-4.286l120.441,68.344
	c12.885,8.546,25.768,12.806,42.988,12.806c47.299,0,85.975-38.444,85.975-85.409V169.845
	C984.016,75.902,906.664-0.937,812.015-0.937z M703.378,629.631H488.184c-1.164,0.076-2.337,0.129-3.529,0.129
	c-32.837,0-52.534-18.915-52.534-50.455V364.829c0-31.503,19.697-50.417,52.534-50.417c26.268,0,52.496,18.914,52.496,50.417
	v159.785h159.888c31.542,0,50.456,19.685,50.456,52.534C747.495,603.403,728.581,623.087,703.378,629.631z"/>
</svg>
