<?xml version="1.0" encoding="utf-8"?>
<!-- Generator: Adobe Illustrator 15.0.0, SVG Export Plug-In . SVG Version: 6.00 Build 0)  -->
<!DOCTYPE svg PUBLIC "-//W3C//DTD SVG 1.1//EN" "http://www.w3.org/Graphics/SVG/1.1/DTD/svg11.dtd">
<svg version="1.1" id="图层_1" xmlns="http://www.w3.org/2000/svg" xmlns:xlink="http://www.w3.org/1999/xlink" x="0px" y="0px"
	 width="128.25px" height="128px" viewBox="0 0 128.25 128" enable-background="new 0 0 128.25 128" xml:space="preserve">
<path fill-rule="evenodd" clip-rule="evenodd" d="M64.22,0.563c35.09,0,63.533,28.441,63.533,63.532
	c0,35.09-28.442,63.533-63.533,63.533S0.688,99.186,0.688,64.095C0.688,29.004,29.13,0.563,64.22,0.563L64.22,0.563z"/>
<path fill-rule="evenodd" clip-rule="evenodd" fill="#FFFFFF" d="M64.22,28.799c19.497,0,35.297,15.799,35.297,35.296
	S83.717,99.393,64.22,99.393c-19.496,0-35.296-15.801-35.296-35.297S44.724,28.799,64.22,28.799L64.22,28.799z"/>
<path fill-rule="evenodd" clip-rule="evenodd" d="M64.22,42.917c11.696,0,21.179,9.484,21.179,21.178
	c0,11.696-9.483,21.179-21.179,21.179c-11.694,0-21.178-9.483-21.178-21.179C43.042,52.401,52.526,42.917,64.22,42.917L64.22,42.917
	z"/>
</svg>
