<?xml version="1.0" standalone="no"?><!DOCTYPE svg PUBLIC "-//W3C//DTD SVG 1.1//EN" "http://www.w3.org/Graphics/SVG/1.1/DTD/svg11.dtd"><svg class="icon" width="32px" height="32.00px" viewBox="0 0 1024 1024" version="1.1" xmlns="http://www.w3.org/2000/svg"><path d="M244.352 160H107.52a16 16 0 0 0-16 16v736a16 16 0 0 0 16 16h136.8a16 16 0 0 0 16-16v-736a15.968 15.968 0 0 0-15.968-16zM870.432 794.432h-136.8a16 16 0 0 0-16 16V912a16 16 0 0 0 16 16h136.8a16 16 0 0 0 16-16v-101.568a16 16 0 0 0-16-16zM974.176 681.28l-138.656-116.352a31.808 31.808 0 0 0-43.456 2.656v-159.968c0-9.6-7.776-17.376-17.376-17.376h-184.032c-9.6 0-17.376 7.776-17.376 17.376v240.608a243.52 243.52 0 0 1-56.768-17.952v-134.112a17.664 17.664 0 0 0-17.664-17.664H382.72a244.928 244.928 0 0 1-10.848-72.224C371.872 270.464 482.336 160 618.112 160c135.808 0 246.272 110.464 246.272 246.272 0 12.384-0.928 24.832-2.752 36.96a32 32 0 0 0 63.296 9.536c2.304-15.296 3.456-30.944 3.456-46.496C928.384 235.2 789.216 96 618.112 96s-310.24 139.2-310.24 310.272 139.168 310.24 310.24 310.24a307.168 307.168 0 0 0 201.408-74.176l109.92 92.224a32 32 0 0 0 45.088-3.936l3.584-4.256a32 32 0 0 0-3.936-45.088zM508.928 737.664v173.632c0 9.216 7.776 16.704 17.376 16.704h134.016c9.6 0 17.376-7.488 17.376-16.704v-151.68c-9.76 0.672-19.52 1.44-29.472 1.44-48.896 0-95.68-8.512-139.296-23.392zM300.224 577.664v333.664c0 9.184 7.776 16.672 17.376 16.672h134.016c9.6 0 17.376-7.488 17.376-16.704v-190.592a413.824 413.824 0 0 1-168.768-143.04z" /></svg>
