<?xml version="1.0" standalone="no"?><!DOCTYPE svg PUBLIC "-//W3C//DTD SVG 1.1//EN" "http://www.w3.org/Graphics/SVG/1.1/DTD/svg11.dtd"><svg t="1611801121153" class="icon" viewBox="0 0 1024 1024" version="1.1" xmlns="http://www.w3.org/2000/svg" p-id="7471" width="18" height="18" xmlns:xlink="http://www.w3.org/1999/xlink"><defs><style type="text/css"></style></defs><path d="M771.2 375l-275 266.3c-1.9 2.9-3.8 5.8-6.7 7.7-7.7 7.7-18.2 11.5-28.7 11.5-10.6 0-21.1-3.8-29.7-11.5-1.9-1.9-4.8-4.8-5.8-7.7L277.7 498.6c-15.3-15.3-15.3-39.3 0-54.6 15.3-15.4 41.2-15.4 56.5 0l126.5 121.7 253.9-245.3c16.3-15.3 41.2-15.3 56.5 0 16.4 14.4 16.4 39.3 0.1 54.6z m147.6-227.1c-12.5-11.5-28.8-17.3-45-17.3H869c-1 0-11.5 1-27.8 1-27.8 0-80.5-1.9-131.3-14.4-65.2-15.3-140.9-87.1-163-101.5-10.5-6.7-24-10.5-36.4-10.5S485.6 9 474.1 15.7C471.3 17.6 392.7 99 316 117.2c-50.8 12.4-105.4 14.4-132.2 14.4-17.3 0-27.8-1-28.7-1h-3.8c-17.3 0-32.6 5.8-45 17.3-13.4 11.5-21.1 28.7-21.1 46v159c0 586.4 397.6 662.1 413.9 665 3.8 1 7.7 1 11.5 1s7.7 0 11.5-1c17.2-2.9 416.8-78.6 416.8-665v-159c0-17.3-7.7-34.5-20.1-46z" p-id="1190"></path></svg>
