<?xml version="1.0" standalone="no"?><!DOCTYPE svg PUBLIC "-//W3C//DTD SVG 1.1//EN" "http://www.w3.org/Graphics/SVG/1.1/DTD/svg11.dtd"><svg t="1689580492335" class="icon" viewBox="0 0 1024 1024" version="1.1" xmlns="http://www.w3.org/2000/svg" p-id="1251" xmlns:xlink="http://www.w3.org/1999/xlink" width="64" height="64"><path d="M512.84954075 876.57434075c-235.44414815 0-442.368-63.2301037-504.0203852-152.0677926V821.47555555c0 105.34305185 226.0992 191.14666667 504.0203852 191.14666667S1016.86992592 926.81860741 1016.86992592 821.47555555v-97.09037037c-61.65238518 88.83768889-268.57623703 152.18915555-504.02038517 152.18915557z m0-207.16657778c-235.44414815 0-442.368-63.2301037-504.0203852-152.0677926v96.96900741c0 105.34305185 226.0992 191.14666667 504.0203852 191.14666667S1016.86992592 719.77339259 1016.86992592 614.43034075v-96.96900742c-61.65238518 88.71632592-268.57623703 151.94642963-504.02038517 151.94642964z m0-207.04521482c-235.44414815 0-442.368-63.2301037-504.0203852-152.0677926v96.96900742c0 105.34305185 226.0992 191.14666667 504.0203852 191.14666666S1016.86992592 512.72817778 1016.86992592 407.38512592v-96.9690074C955.21754075 399.13244445 748.29368889 462.36254815 512.84954075 462.36254815zM153.73653333 333.83917037c95.75537778 37.13706667 223.30785185 57.64740741 359.11300742 57.64740741 277.92118518 0 503.89902222-85.80361482 503.89902222-191.14666667S790.64936297 9.19324445 512.84954075 9.19324445 8.95051852 94.8754963 8.95051852 200.33991111c0 49.75881482 51.4578963 97.21173333 144.78601481 133.49925926z" p-id="1252"></path></svg>
