<?xml version="1.0" standalone="no"?><!DOCTYPE svg PUBLIC "-//W3C//DTD SVG 1.1//EN" "http://www.w3.org/Graphics/SVG/1.1/DTD/svg11.dtd"><svg t="1659077978681" class="icon" viewBox="0 0 1024 1024" version="1.1" xmlns="http://www.w3.org/2000/svg" p-id="2192" xmlns:xlink="http://www.w3.org/1999/xlink" width="200" height="200"><defs><style type="text/css">@font-face { font-family: feedback-iconfont; src: url("//at.alicdn.com/t/font_1031158_u69w8yhxdu.woff2?t=1630033759944") format("woff2"), url("//at.alicdn.com/t/font_1031158_u69w8yhxdu.woff?t=1630033759944") format("woff"), url("//at.alicdn.com/t/font_1031158_u69w8yhxdu.ttf?t=1630033759944") format("truetype"); }
</style></defs><path d="M650.325333 394.069333l-163.178666 163.136-109.696-109.632a23.509333 23.509333 0 0 0-33.216 33.216l126.293333 126.250667a23.466667 23.466667 0 0 0 33.194667 0.042667l0.021333-0.042667 179.797333-179.797333a23.509333 23.509333 0 0 0-33.216-33.173334z" p-id="2193"></path><path d="M957.994667 945.6V310.656c-0.490667-142.378667-133.76-258.538667-296.768-258.538667H94.357333C77.141333 52.096 64 63.594667 64 78.314667v635.434666c1.024 142.378667 134.165333 258.112 296.746667 258.112h588.202666c17.216 0 9.045333-11.52 9.045334-26.261333z m-327.232-212.096l-96.768 61.824a39.082667 39.082667 0 0 1-42.048 0.085333l-97.728-61.866666a252.458667 252.458667 0 0 1-117.312-213.226667v-194.56c0-26.496 17.706667-49.728 43.285333-56.725333l176.32-48.064c10.133333-2.773333 20.821333-2.773333 30.933333 0l176.32 48.064a58.773333 58.773333 0 0 1 43.264 56.725333v195.392h0.021334a251.968 251.968 0 0 1-116.288 212.352z" p-id="2194"></path><path d="M683.541333 427.242667l-179.797333 179.797333-0.021333 0.042667a23.466667 23.466667 0 0 1-33.194667-0.042667l-126.293333-126.250667a23.509333 23.509333 0 0 1 33.216-33.216l109.696 109.632 163.178666-163.136a23.466667 23.466667 0 0 1 33.216 33.173334z" p-id="2195"></path></svg>