<?xml version="1.0" encoding="utf-8"?>
<!-- Generator: Adobe Illustrator 15.0.0, SVG Export Plug-In . SVG Version: 6.00 Build 0)  -->
<!DOCTYPE svg PUBLIC "-//W3C//DTD SVG 1.1//EN" "http://www.w3.org/Graphics/SVG/1.1/DTD/svg11.dtd">
<svg version="1.1" id="图层_1" xmlns="http://www.w3.org/2000/svg" xmlns:xlink="http://www.w3.org/1999/xlink" x="0px" y="0px"
	 width="1024px" height="1024px" viewBox="0 0 1024 1024" enable-background="new 0 0 1024 1024" xml:space="preserve">
<polygon fill="none" points="591.606,538.872 591.606,54.353 214.746,54.353 214.746,538.872 392.038,377.458 "/>
<path d="M160.911,834.967h726.792c51.839,0,80.753-53.782,80.753-107.644V98.238
	c-0.13-53.915-42.32-97.722-94.132-97.722H147.268c-51.838,0-94.016,43.807-94.016,97.722v827.42
	c0,53.913,42.177,97.734,94.016,97.734h673.141h94.212h13.432c22.318,0,40.402-18.06,40.402-40.351
	c0-22.317-18.084-40.403-40.402-40.403h-13.432h-94.212H160.911c-15.72,0-26.918-10.62-26.918-26.918v-80.754
	C145.519,834.967,151.013,834.967,160.911,834.967z M214.746,54.353h376.861v484.52L392.038,377.458L214.746,538.872V54.353z"/>
<path d="M521.234,529.904c0,0.848,0.686,1.534,1.533,1.534h3.581v-3.069h-3.581
	C521.92,528.369,521.234,529.057,521.234,529.904z"/>
</svg>
