<?xml version="1.0" encoding="utf-8"?>
<!-- Generator: Adobe Illustrator 15.0.0, SVG Export Plug-In . SVG Version: 6.00 Build 0)  -->
<!DOCTYPE svg PUBLIC "-//W3C//DTD SVG 1.1//EN" "http://www.w3.org/Graphics/SVG/1.1/DTD/svg11.dtd">
<svg version="1.1" id="图层_1" xmlns="http://www.w3.org/2000/svg" xmlns:xlink="http://www.w3.org/1999/xlink" x="0px" y="0px"
	 width="1024px" height="1024px" viewBox="0 0 1024 1024" enable-background="new 0 0 1024 1024" xml:space="preserve">
<g>
	<path d="M286.26,389.805c129.014,0,241.553,70.648,300.987,175.355c121.928-33.626,211.525-145.232,211.524-277.884
		c0-159.218-129.015-288.273-288.287-288.273c-159.259,0-288.272,129.054-288.272,288.273c0,37.143,7.007,72.664,19.803,105.316
		C256.57,390.793,271.246,389.805,286.26,389.805z"/>
	<path d="M811.489,457.843C752,562.563,639.514,633.199,510.487,633.199c-15.015,0-29.73-0.975-44.245-2.787
		c-12.796,32.653-19.803,68.172-19.803,105.315c0,159.232,129.014,288.273,288.274,288.273
		c159.23,0,288.246-129.041,288.246-288.273C1022.959,603.089,933.388,491.483,811.489,457.843z"/>
	<path d="M469.758,513.301c-49.858-41.12-113.824-65.859-183.498-65.859c-159.219,0-288.233,129.027-288.233,288.286
		c0,159.232,129.015,288.273,288.233,288.273c69.674,0,133.64-24.727,183.498-65.873c-50.534-60.139-80.969-137.725-80.969-222.4
		C388.789,651.053,419.224,573.466,469.758,513.301z"/>
</g>
</svg>
