<?xml version="1.0" encoding="utf-8"?>
<!-- Generator: Adobe Illustrator 15.0.0, SVG Export Plug-In . SVG Version: 6.00 Build 0)  -->
<!DOCTYPE svg PUBLIC "-//W3C//DTD SVG 1.1//EN" "http://www.w3.org/Graphics/SVG/1.1/DTD/svg11.dtd">
<svg version="1.1" id="图层_1" xmlns="http://www.w3.org/2000/svg" xmlns:xlink="http://www.w3.org/1999/xlink" x="0px" y="0px"
	 width="1024px" height="1024px" viewBox="0 0 1024 1024" enable-background="new 0 0 1024 1024" xml:space="preserve">
<path d="M658.999,0H364.395c-22.895,0-41.224,18-41.224,40.276s18.329,40.355,41.224,40.355h295.737
	c21.763,0,40.104-18.079,40.104-40.355S681.895,0,658.999,0L658.999,0L658.999,0z"/>
<rect x="351.477" y="498.869" width="144.434" height="66.27"/>
<rect x="540.09" y="498.869" width="145" height="66.27"/>
<rect x="351.477" y="603.654" width="144.434" height="66.836"/>
<rect x="540.09" y="603.654" width="145" height="66.836"/>
<path d="M891.421,30.776l-136.974-3.829c1,5.04,0,21.79,0,26.947c0.053,38.855-47,80.829-80.815,80.829H350.237
	c-35.605,0-80.829-42.013-80.829-80.829c0.04-5.158-0.96-21.908,0-26.947H134.684c-77.342,0-107.79,47.263-107.79,109.908v782.198
	c0,67.289,27.198,104.947,102.158,104.947h756.552C960.554,1024,997,994.474,997,919.079V136.855
	C997,74.21,962.895,30.776,891.421,30.776z M727.004,736.76H685.09v-26.621h-145v123.477h-44.18V710.139H351.477v26.621h-41.914
	V459.221H495.91v-61.172h44.18v61.172h186.914V736.76z M777.414,446.76h-44.18v-65.137H303.332v65.137h-44.18V340.842h247.52
	c-9.629-15.669-20.581-32.095-32.852-49.277l39.082-23.223c15.479,19.638,29.072,38.33,40.781,56.074l-26.621,16.426h250.352V446.76
	z"/>
</svg>
