<?xml version="1.0" encoding="utf-8"?>
<!-- Generator: Adobe Illustrator 15.0.0, SVG Export Plug-In . SVG Version: 6.00 Build 0)  -->
<!DOCTYPE svg PUBLIC "-//W3C//DTD SVG 1.1//EN" "http://www.w3.org/Graphics/SVG/1.1/DTD/svg11.dtd">
<svg version="1.1" id="图层_1" xmlns="http://www.w3.org/2000/svg" xmlns:xlink="http://www.w3.org/1999/xlink" x="0px" y="0px"
	 width="1024px" height="1024px" viewBox="0 0 1024 1024" enable-background="new 0 0 1024 1024" xml:space="preserve">
<path d="M916.221,134.818H808.467V27.039c0-14.867-12.077-26.945-26.944-26.945H673.689
	c-14.866,0-26.918,12.078-26.918,26.945v107.78H377.335V27.039c0-14.867-12.078-26.945-26.945-26.945H242.584
	c-14.867,0-26.945,12.078-26.945,26.945v107.78H107.874c-59.508,0-107.78,48.259-107.78,107.767v673.636
	c0,59.521,48.272,107.779,107.78,107.779h808.347C975.741,1024,1024,975.741,1024,916.221V242.585
	C1024,183.077,975.741,134.818,916.221,134.818z M768.023,808.467H283.028c-22.34,0-40.431-18.104-40.431-40.443
	c0-22.313,18.091-40.391,40.431-40.391h484.995c22.34,0,40.443,18.077,40.443,40.391
	C808.467,790.363,790.363,808.467,768.023,808.467z M768.023,619.826H283.028c-22.34,0-40.431-18.077-40.431-40.417
	c0-22.313,18.091-40.417,40.431-40.417h484.995c22.34,0,40.443,18.104,40.443,40.417
	C808.467,601.749,790.363,619.826,768.023,619.826z M768.023,431.212H283.028c-22.34,0-40.431-18.09-40.431-40.43
	c0-22.301,18.091-40.404,40.431-40.404h484.995c22.34,0,40.443,18.104,40.443,40.404
	C808.467,413.122,790.363,431.212,768.023,431.212z"/>
</svg>
