<?xml version="1.0" standalone="no"?><!DOCTYPE svg PUBLIC "-//W3C//DTD SVG 1.1//EN" "http://www.w3.org/Graphics/SVG/1.1/DTD/svg11.dtd"><svg class="icon" width="200px" height="200.00px" viewBox="0 0 1024 1024" version="1.1" xmlns="http://www.w3.org/2000/svg"><path d="M246.656 73.344A32 32 0 0 1 256 96v832a32 32 0 1 1-64 0v-832a32 32 0 0 1 54.656-22.656zM512 384a64 64 0 1 0 0-128 64 64 0 0 0 0 128z m0 384a64 64 0 1 0 0-128 64 64 0 0 0 0 128z m320-672v832a32 32 0 1 1-64 0v-832a32 32 0 1 1 64 0z"  /></svg>
