<?xml version="1.0" encoding="utf-8"?>
<!-- Generator: Adobe Illustrator 15.0.0, SVG Export Plug-In . SVG Version: 6.00 Build 0)  -->
<!DOCTYPE svg PUBLIC "-//W3C//DTD SVG 1.1//EN" "http://www.w3.org/Graphics/SVG/1.1/DTD/svg11.dtd">
<svg version="1.1" id="图层_1" xmlns="http://www.w3.org/2000/svg" xmlns:xlink="http://www.w3.org/1999/xlink" x="0px" y="0px"
	 width="1024px" height="1024px" viewBox="0 0 1024 1024" enable-background="new 0 0 1024 1024" xml:space="preserve">
<path d="M879.186-1H142.814C84.54-1,37.917,40.489,37.917,93.477v808.353c0,9.24,4.671,16.145,9.355,20.739l90.858,92.166
	c11.666,11.55,27.963,11.55,39.628,2.311l100.213-78.358l100.175,78.358c11.665,9.239,25.653,9.239,37.318,0l97.852-78.358
	l97.891,78.358c11.678,9.239,25.666,9.239,37.268,0l97.916-78.358l97.864,78.358c6.981,4.646,11.652,6.904,18.633,6.904
	c7.008,0,16.298-4.569,18.66-9.215l93.193-92.166c7.032-4.595,9.343-13.81,9.343-20.739V93.477C984.084,40.489,937.475-1,879.186-1z
	 M604.996,540.374C506.952,631.592,412.834,749.81,412.834,749.81s-41.81-61.984-89.754-122.196
	c-47.944-59.854-102.022-122.222-102.022-122.222l61.304-60.918l130.473,140.226c0,0,64.922-55.874,140.958-117.858
	c93.373-76.446,258.124-185.694,258.124-185.694l40.732,41.13C852.648,322.277,707.378,445.204,604.996,540.374z"/>
</svg>
