<?xml version="1.0" standalone="no"?><!DOCTYPE svg PUBLIC "-//W3C//DTD SVG 1.1//EN" "http://www.w3.org/Graphics/SVG/1.1/DTD/svg11.dtd"><svg class="icon" width="200px" height="200.00px" viewBox="0 0 1024 1024" version="1.1" xmlns="http://www.w3.org/2000/svg"><path d="M359.168 627.2l5.76 0.512a32 32 0 0 1 26.24 31.488v276.992l-0.512 5.76a32 32 0 0 1-31.488 26.24l-5.76-0.512a32 32 0 0 1-26.24-31.488V691.2H83.2l-5.76-0.512A32 32 0 0 1 83.2 627.2h276.032z m576 0a32 32 0 0 1 5.76 63.488l-5.76 0.512H691.2v244.992a32 32 0 0 1-26.24 31.488l-5.76 0.512a32 32 0 0 1-31.488-26.24l-0.512-5.76V659.2a32 32 0 0 1 26.24-31.488l5.76-0.512h276.032zM499.2 403.2a96 96 0 1 1 0 192 96 96 0 0 1 0-192zM359.168 51.2a32 32 0 0 1 31.488 26.24l0.512 5.76v276.992a32 32 0 0 1-26.24 31.488l-5.76 0.512H83.2a32 32 0 0 1-5.76-63.488l5.76-0.512h243.968V83.2a32 32 0 0 1 26.24-31.488L359.232 51.2zM659.2 51.2l5.76 0.512a32 32 0 0 1 26.24 31.488v244.992h244.032l5.76 0.512a32 32 0 0 1-5.76 63.488H659.2l-5.76-0.512a32 32 0 0 1-26.24-31.488V83.2l0.512-5.76A32 32 0 0 1 659.2 51.2z" /></svg>
