<?xml version="1.0" encoding="utf-8"?>
<!-- Generator: Adobe Illustrator 15.0.0, SVG Export Plug-In . SVG Version: 6.00 Build 0)  -->
<!DOCTYPE svg PUBLIC "-//W3C//DTD SVG 1.1//EN" "http://www.w3.org/Graphics/SVG/1.1/DTD/svg11.dtd">
<svg version="1.1" id="组_58" xmlns="http://www.w3.org/2000/svg" xmlns:xlink="http://www.w3.org/1999/xlink" x="0px" y="0px"
	 width="20px" height="20px" viewBox="0 0 20 20" enable-background="new 0 0 20 20" xml:space="preserve">
<path id="形状_4" fill="#9a9a9a" d="M11.301,0.459l8,5.559C19.738,6.374,19.995,6.906,20,7.471v10.616c-0.026,1.079-0.92,1.935-2,1.913H2
	c-1.08,0.021-1.974-0.834-2-1.913V7.471C0,6.905,0.258,6.37,0.7,6.017l8-5.558C9.458-0.155,10.542-0.155,11.301,0.459L11.301,0.459
	L11.301,0.459z"/>
<path id="圆角矩形_2" fill="#FFFFFF" d="M4,14h12c0.553,0,1,0.447,1,1l0,0c0,0.553-0.447,1-1,1H4c-0.552,0-1-0.447-1-1l0,0
	C3,14.447,3.448,14,4,14z"/>
</svg>