<svg t="1620894079939" class="icon" viewBox="0 0 1024 1024" version="1.1" xmlns="http://www.w3.org/2000/svg" p-id="2152" width="35" height="35"><path d="M512 460.8c-34.816 0-61.44-26.624-61.44-63.488V167.936c0-34.816 24.576-63.488 61.44-63.488s61.44 26.624 61.44 63.488v227.328c-2.048 36.864-26.624 65.536-61.44 65.536z" p-id="2153"></path><path d="M655.36 212.992V409.6c0 96.256-47.104 163.84-143.36 163.84s-143.36-67.584-143.36-159.744v-200.704c0-90.112-81.92-45.056-114.688-16.384-100.352 81.92-159.744 210.944-147.456 352.256 18.432 198.656 180.224 358.4 378.88 370.688 235.52 14.336 434.176-174.08 434.176-407.552 0-126.976-59.392-239.616-149.504-313.344-32.768-30.72-114.688-77.824-114.688 14.336z" p-id="2154"></path></svg>
