<?xml version="1.0" encoding="utf-8"?>
<!-- Generator: Adobe Illustrator 15.0.0, SVG Export Plug-In . SVG Version: 6.00 Build 0)  -->
<!DOCTYPE svg PUBLIC "-//W3C//DTD SVG 1.1//EN" "http://www.w3.org/Graphics/SVG/1.1/DTD/svg11.dtd">
<svg version="1.1" id="图层_1" xmlns="http://www.w3.org/2000/svg" xmlns:xlink="http://www.w3.org/1999/xlink" x="0px" y="0px"
	 width="216.246px" height="35.999px" viewBox="0 0 216.246 35.999" enable-background="new 0 0 216.246 35.999"
	 xml:space="preserve">
<path d="M197.007,17.094v1c0-9.94-8.059-18-18-18h-161c-9.941,0-18,8.059-18,18s8.059,17.999,18,17.999h179h19
	C201.466,36.093,197.007,17.094,197.007,17.094z M18.007,28.095c-5.523,0-10-4.478-10-10.001s4.478-10,10-10c5.523,0,10,4.477,10,10
	S23.531,28.095,18.007,28.095z"/>
<circle fill="#FFFFFF" cx="18.007" cy="18.094" r="10.001"/>
<circle cx="18.007" cy="18.094" r="6"/>
<circle cx="18.007" cy="18.094" r="6"/>
</svg>
