<?xml version="1.0" encoding="utf-8"?>
<!-- Generator: Adobe Illustrator 15.0.0, SVG Export Plug-In . SVG Version: 6.00 Build 0)  -->
<!DOCTYPE svg PUBLIC "-//W3C//DTD SVG 1.1//EN" "http://www.w3.org/Graphics/SVG/1.1/DTD/svg11.dtd">
<svg version="1.1" id="图层_1" xmlns="http://www.w3.org/2000/svg" xmlns:xlink="http://www.w3.org/1999/xlink" x="0px" y="0px"
	 width="1024px" height="1024px" viewBox="0 0 1024 1024" enable-background="new 0 0 1024 1024" xml:space="preserve">
<path d="M782.492,748.542l128.172,134.947c22.408,22.408,22.408,61.8,0,84.347l5.702-5.774c-22.413,22.62-55.766,22.62-78.174,0
	L704.318,821.551c-66.904,44.89-150.714,73.009-234.292,73.009c-228.856,0.13-418.49-190.908-418.49-421.476
	c0-230.438,184.197-421.613,412.821-421.613c228.823,0,418.522,191.176,418.522,421.613
	C882.879,579.913,843.829,675.533,782.492,748.542L782.492,748.542L782.492,748.542z M463.954,721.969
	c141.455,0,257.34-116.158,257.34-258.084c0-142.056-115.886-258.141-257.507-258.141c-141.556,0-257.376,116.085-257.376,258.141
	C206.476,605.811,322.296,721.969,463.954,721.969L463.954,721.969L463.954,721.969z"/>
</svg>
