<?xml version="1.0" standalone="no"?><!DOCTYPE svg PUBLIC "-//W3C//DTD SVG 1.1//EN" "http://www.w3.org/Graphics/SVG/1.1/DTD/svg11.dtd"><svg t="1675144919862" class="icon" viewBox="0 0 1024 1024" version="1.1" xmlns="http://www.w3.org/2000/svg" p-id="15383" xmlns:xlink="http://www.w3.org/1999/xlink" width="200" height="200"><path d="M279 331L98 512l45.3 45.3 181-181.1L279 331z" p-id="15384"></path><path d="M143.3 466.7L98 512l181 181 45.3-45.2-181-181.1zM745 331l-45.3 45.2 181 181.1L926 512 745 331z" p-id="15385"></path><path d="M880.7 466.7l-181 181.1L745 693l181-181-45.3-45.3zM644.275 218.867l55.424 32-320 554.24-55.424-32zM64 960v-64h896v64zM64 128V64h896v64z" p-id="15386"></path></svg>
