<svg t="1666922341728" class="icon" viewBox="0 0 1024 1024" version="1.1" xmlns="http://www.w3.org/2000/svg" p-id="9322" width="200" height="200"><path d="M628.02 925.5c-16.03 0-29.01-12.98-29.01-29.01v-464.2c0-6.92 2.47-13.62 6.98-18.88l191-222.89H227.01l191 222.89c4.5 5.26 6.98 11.96 6.98 18.88v258.77l68.65 68.67c11.33 11.33 11.33 29.7 0 41.02-11.33 11.33-29.7 11.33-41.03 0l-77.15-77.17a29.029 29.029 0 0 1-8.49-20.51V443.02L141.92 180.39a29.022 29.022 0 0 1-4.33-31 28.997 28.997 0 0 1 26.36-16.88h696.11c11.33 0 21.63 6.59 26.36 16.88a29.022 29.022 0 0 1-4.33 31L657.03 443.02v453.47c0 16.02-12.99 29.01-29.01 29.01z" p-id="9323"></path></svg>
