<?xml version="1.0" standalone="no"?><!DOCTYPE svg PUBLIC "-//W3C//DTD SVG 1.1//EN" "http://www.w3.org/Graphics/SVG/1.1/DTD/svg11.dtd"><svg t="1689565198748" class="icon" viewBox="0 0 1024 1024" version="1.1" xmlns="http://www.w3.org/2000/svg" p-id="1221" xmlns:xlink="http://www.w3.org/1999/xlink" width="64" height="64"><path d="M937.08263686 8.71050381L87.44856338 8.71050381c-43.52921916 0-78.95452502 35.39924825-78.95452501 78.94149624L8.49403837 936.34799995c0 43.51619036 35.42530587 78.94149621 78.95452501 78.94149624l849.63407348 0c43.52921916 0 78.95452502-35.42530587 78.95452503-78.94149624L1016.03716189 87.65200005C1016.03716189 44.10975208 980.61185602 8.71050381 937.08263686 8.71050381zM883.56032849 98.57013403c18.69632729 0 33.83579231 15.15249384 33.83579232 33.84882111 0 18.6832985-15.13946503 33.83579231-33.83579232 33.83579233s-33.83579231-15.15249384-33.83579232-33.83579233C849.72453617 113.72262787 864.86400119 98.57013403 883.56032849 98.57013403zM762.31432027 98.57013403c18.69632729 0 33.83579231 15.15249384 33.83579232 33.84882111 0 18.6832985-15.13946503 33.83579231-33.83579232 33.83579233s-33.83579231-15.15249384-33.83579232-33.83579233C728.47852795 113.72262787 743.61799297 98.57013403 762.31432027 98.57013403zM925.8127253 925.06505959L98.71847496 925.06505959 98.71847496 250.23838909l827.08122153 0L925.79969649 925.06505959zM854.28461601 412.10819417l-677.4975744 0 0 290.98520821 677.4975744 0L854.28461601 412.10819417zM589.37003562 668.3455941L410.22404238 668.3455941l0-61.88679768L589.37003562 606.45879642 589.37003562 668.3455941zM815.74542706 668.3455941l-179.14599323 0 0-61.88679768 179.14599323 0L815.74542706 668.3455941zM831.02820887 486.90653214l-10.68361559 10.68361561-18.33152091-18.31849211-18.33152091 18.31849211-10.6966444-10.68361561L791.31642798 468.57501124l-18.33152092-18.3315209 10.6966444-10.6836156 18.33152091 18.33152091 18.33152091-18.33152091 10.6966444 10.6836156-18.33152091 18.3315209L831.02820887 486.90653214z" p-id="1222"></path></svg>
