<?xml version="1.0" standalone="no"?><!DOCTYPE svg PUBLIC "-//W3C//DTD SVG 1.1//EN" "http://www.w3.org/Graphics/SVG/1.1/DTD/svg11.dtd"><svg class="icon" width="64px" height="64.00px" viewBox="0 0 1024 1024" version="1.1" xmlns="http://www.w3.org/2000/svg"><path d="M849.05692664 613.13808896c9.30425926 0 17.26874497 3.29752417 23.82918686 9.88762989 6.6098799 6.59504907 9.89751734 14.52492761 9.89751663 23.79457969v134.81782685c0 28.12041791-9.74425854 51.91005424-29.21300075 71.37879643C833.73110077 872.89600096 810.03045298 882.78363013 782.44396702 882.78363013H242.33221152c-27.55187952 0-51.43050438-9.88762917-71.62104375-29.56401152C151.04961695 833.03896669 141.21142578 809.24933037 141.21142578 781.64801286V646.81535518c0-9.2696528 3.28763673-17.20447542 9.89751734-23.79458041 6.56044191-6.59010498 14.51504016-9.88762917 23.82918686-9.88762918 9.29437179 0 17.25391343 3.29752417 23.81435534 9.88762918 6.62471144 6.59504907 9.89751734 14.52492761 9.89751661 23.7945804v134.81782686c0 9.37841624 3.27280519 17.30335141 9.89751734 23.89839976 6.58516089 6.59010498 14.51504016 9.88762917 23.83413024 9.88762989h540.12658704c9.13616963 0 16.90784601-3.29752417 23.31008648-9.88762989 6.38740892-6.59010498 9.59100049-14.52492761 9.59100048-23.8934564V646.81535518c0-9.2696528 3.31235572-17.20447542 9.87774171-23.79458041 6.62471144-6.59010498 14.54470252-9.88762917 23.85390587-9.88762918h-0.08404445zM511.99752831 141.31524585c9.47729296 0 17.49121666 3.1937041 23.97750085 9.67998902l168.53958699 168.50498052c6.47639747 6.48628492 9.73931519 14.51998353 9.73931518 23.99727648 0 9.67998902-3.21347974 17.71368835-9.61571949 24.10109656-6.39729638 6.38246483-14.43099499 9.57616895-24.08132163 9.57616895-9.50695531 0-17.49121666-3.1937041-23.97750157-9.67998903L545.71434434 256.35287029v390.46248488c0 9.2696528-3.30246827 17.30335141-9.8777417 23.89345642-6.59999243 6.49122901-14.53481506 9.88762917-23.84401841 9.88762915-9.29931517 0-17.23413778-3.39640089-23.83413095-9.88762915-6.58516089-6.59010498-9.87774172-14.62380361-9.87774171-23.89345641V256.35287029l-110.85515685 111.13695398c-6.86201468 6.48628492-14.83144375 9.67998902-23.97750083 9.67998974-9.30425926 0-17.25391343-3.29258081-23.81929941-9.8876299-6.62471144-6.59010498-9.89751734-14.51998353-9.89751735-23.78963632 0-9.17077608 3.23325465-17.10065534 9.7343711-24.00221984L487.99036366 151.00017896C494.49642421 144.50894996 502.47574074 141.21142578 511.96786523 141.21142578L511.99752831 141.31030177z" /></svg>
