<?xml version="1.0" standalone="no"?><!DOCTYPE svg PUBLIC "-//W3C//DTD SVG 1.1//EN" "http://www.w3.org/Graphics/SVG/1.1/DTD/svg11.dtd"><svg t="1647222675851" class="icon" viewBox="0 0 1024 1024" version="1.1" xmlns="http://www.w3.org/2000/svg" p-id="1967" xmlns:xlink="http://www.w3.org/1999/xlink" width="48" height="48"><defs><style type="text/css"></style></defs><path d="M545.877333 478.570667V249.621333a228.693333 228.693333 0 0 1 44.437334-138.453333 218.752 218.752 0 0 1 124.970666-85.845333 225.792 225.792 0 0 1 220.330667 55.189333 214.656 214.656 0 0 1 66.901333 121.685333c24.853333 124.864-56.234667 246.208-181.077333 271.061334-3.306667 0.64-6.656 1.237333-9.984 1.749333a247.253333 247.253333 0 0 1-39.872 3.285333c-73.621333 0.234667-147.178667 0-220.8 0l-4.906667 0.277334z m-67.669333 0H250.816a232.384 232.384 0 0 1-228.224-180.586667A230.314667 230.314667 0 0 1 96.448 73.237333a229.141333 229.141333 0 0 1 307.989333 7.189334 231.381333 231.381333 0 0 1 70.634667 133.674666c1.984 11.818667 3.029333 23.786667 3.114667 35.797334 0.234667 74.965333 0 149.802667 0 224.768l0.021333 3.904z m0 67.562666v227.818667a226.752 226.752 0 0 1-59.648 156.885333 221.226667 221.226667 0 0 1-131.477333 73.045334 224.512 224.512 0 0 1-205.802667-67.925334 216.746667 216.746667 0 0 1-59.733333-113.429333 222.933333 222.933333 0 0 1 51.114666-195.434667 228.650667 228.650667 0 0 1 135.381334-76.778666 244.330667 244.330667 0 0 1 44.778666-4.053334h220.437334l4.949333-0.128z m67.669333 2.624h229.312a230.890667 230.890667 0 0 1 128.554667 37.12 217.493333 217.493333 0 0 1 94.933333 129.578667c33.472 123.413333-39.488 250.602667-162.944 284.032l-0.832 0.234667a209.834667 209.834667 0 0 1-76.650666 6.613333 228.544 228.544 0 0 1-190.272-132.053333 211.605333 211.605333 0 0 1-21.034667-74.965334 231.168 231.168 0 0 1-1.088-24.896c-0.128-73.92-0.128-147.84 0-221.781333v-3.968 0.085333z" p-id="1968"></path></svg>