<?xml version="1.0" encoding="utf-8"?>
<!-- Generator: Adobe Illustrator 15.0.0, SVG Export Plug-In . SVG Version: 6.00 Build 0)  -->
<!DOCTYPE svg PUBLIC "-//W3C//DTD SVG 1.1//EN" "http://www.w3.org/Graphics/SVG/1.1/DTD/svg11.dtd">
<svg version="1.1" id="图层_1" xmlns="http://www.w3.org/2000/svg" xmlns:xlink="http://www.w3.org/1999/xlink" x="0px" y="0px"
	 width="1024px" height="1024px" viewBox="0 0 1024 1024" enable-background="new 0 0 1024 1024" xml:space="preserve">
<path d="M870.376,409.591H767.963V307.178C767.963,163.09,651.017,51.207,512,51.207c-139.086,0-255.967,111.883-255.967,255.972
	v102.413H153.62c-47.171,0-51.241,16.536-51.241,63.003v416.124c0,46.467,38.239,84.076,85.414,84.076h597.174
	c47.206,0,136.682-37.609,136.682-84.076V472.594C921.648,426.127,917.517,409.591,870.376,409.591z M358.446,307.178
	c0-98.015,54.271-153.559,153.554-153.559c99.278,0,153.55,55.544,153.55,153.559v102.413H358.446V307.178z M563.137,749.229v20.139
	c0,27.666-22.866,50.14-51.137,50.14c-28.27,0-51.176-22.474-51.176-50.14v-20.139c-30.535-17.331-51.171-49.668-51.171-86.743
	c0-55.404,45.873-100.21,102.347-100.21c56.471,0,102.278,44.806,102.278,100.21C614.278,699.561,593.742,731.897,563.137,749.229z"
	/>
</svg>
