<?xml version="1.0" standalone="no"?><!DOCTYPE svg PUBLIC "-//W3C//DTD SVG 1.1//EN" "http://www.w3.org/Graphics/SVG/1.1/DTD/svg11.dtd"><svg t="1627293082539" class="icon" viewBox="0 0 1024 1024" version="1.1" xmlns="http://www.w3.org/2000/svg" p-id="5032" xmlns:xlink="http://www.w3.org/1999/xlink" width="200" height="200"><defs><style type="text/css">@font-face { font-family: feedback-iconfont; src: url("//at.alicdn.com/t/font_1031158_1uhr8ri0pk5.eot?#iefix") format("embedded-opentype"), url("//at.alicdn.com/t/font_1031158_1uhr8ri0pk5.woff2") format("woff2"), url("//at.alicdn.com/t/font_1031158_1uhr8ri0pk5.woff") format("woff"), url("//at.alicdn.com/t/font_1031158_1uhr8ri0pk5.ttf") format("truetype"), url("//at.alicdn.com/t/font_1031158_1uhr8ri0pk5.svg#iconfont") format("svg"); }
</style></defs><path d="M415.488 742.912c-185.6 0-336.64-151.04-336.64-336.64s151.04-336.64 336.64-336.64 336.64 151.04 336.64 336.64-151.04 336.64-336.64 336.64z m0-596.48c-143.232 0-259.84 116.608-259.84 259.84 0 143.232 116.608 259.84 259.84 259.84 143.232 0 259.84-116.608 259.84-259.84 0-143.232-116.48-259.84-259.84-259.84z" p-id="5033"></path><path d="M580.1856 664.96l54.528-54.0672 299.4944 302.0288-54.528 54.08zM232.448 376.832h345.6v51.2h-345.6z" p-id="5034"></path></svg>
