<?xml version="1.0" encoding="utf-8"?>
<!-- Generator: Adobe Illustrator 15.0.0, SVG Export Plug-In . SVG Version: 6.00 Build 0)  -->
<!DOCTYPE svg PUBLIC "-//W3C//DTD SVG 1.1//EN" "http://www.w3.org/Graphics/SVG/1.1/DTD/svg11.dtd">
<svg version="1.1" id="图层_1" xmlns="http://www.w3.org/2000/svg" xmlns:xlink="http://www.w3.org/1999/xlink" x="0px" y="0px"
	 width="1024px" height="1024px" viewBox="0 0 1024 1024" enable-background="new 0 0 1024 1024" xml:space="preserve">
<path d="M870.375,51.207H153.619c-56.574,0-102.413,45.873-102.413,102.413v716.756c0,56.541,45.839,102.413,102.413,102.413
	h716.756c56.607,0,102.416-45.872,102.416-102.413V153.619C972.791,97.079,926.982,51.207,870.375,51.207z M460.824,819.236
	c0,28.27-22.936,51.139-51.24,51.139c-28.271,0-51.139-22.869-51.139-51.139V665.549H204.792c-28.304,0-51.173-22.868-51.173-51.139
	s22.869-51.273,51.173-51.273h204.792c28.304,0,51.24,23.003,51.24,51.273V819.236z M460.824,409.584
	c0,28.27-22.936,51.273-51.24,51.273H204.792c-28.304,0-51.173-23.003-51.173-51.273c0-28.271,22.869-51.139,51.173-51.139h153.653
	V204.758c0-28.27,22.869-51.139,51.139-51.139c28.304,0,51.24,22.869,51.24,51.139V409.584z M819.236,665.549H665.549v153.688
	c0,28.27-22.868,51.139-51.139,51.139s-51.273-22.869-51.273-51.139V614.41c0-28.271,23.003-51.273,51.273-51.273h204.826
	c28.27,0,51.139,23.003,51.139,51.273S847.506,665.549,819.236,665.549z M819.236,460.858H614.41
	c-28.271,0-51.273-23.003-51.273-51.273V204.758c0-28.27,23.003-51.139,51.273-51.139s51.139,22.869,51.139,51.139v153.687h153.688
	c28.27,0,51.139,22.869,51.139,51.139C870.375,437.854,847.506,460.858,819.236,460.858z"/>
</svg>
