<?xml version="1.0" standalone="no"?><!DOCTYPE svg PUBLIC "-//W3C//DTD SVG 1.1//EN" "http://www.w3.org/Graphics/SVG/1.1/DTD/svg11.dtd"><svg class="icon" width="32px" height="32.00px" viewBox="0 0 1024 1024" version="1.1" xmlns="http://www.w3.org/2000/svg"><path d="M395.264 887.808c-34.304-13.824-66.56-32.256-96.256-55.296-13.312-10.24-32.768-7.68-43.008 5.632s-7.68 32.768 5.632 43.008c33.792 26.112 71.168 47.616 110.592 63.488 3.584 1.536 7.68 2.048 11.264 2.048 12.288 0 23.552-7.168 28.672-19.456 6.144-15.36-1.536-33.28-16.896-39.424zM602.624 912.896c-43.008 6.144-87.552 5.12-130.048-2.56-16.896-3.072-32.768 8.192-35.84 24.576-3.072 16.896 8.192 32.768 24.576 35.84 27.648 5.12 56.32 7.68 84.48 7.68 21.504 0 43.52-1.536 65.024-4.608 16.896-2.56 28.672-17.92 26.112-34.816s-17.408-28.672-34.304-26.112zM775.168 845.824l-13.824 9.216c-26.112 16.384-54.272 30.208-83.968 39.936-15.872 5.632-24.576 23.04-18.944 38.912 4.608 12.8 16.384 20.992 29.184 20.992 3.072 0 6.656-0.512 9.728-1.536 33.792-11.776 66.048-27.136 96.768-46.08 5.12-3.072 10.752-6.656 15.872-10.24 13.824-9.728 17.408-28.672 7.68-42.496-9.216-14.848-28.672-18.432-42.496-8.704zM546.304 46.08c-240.64 0-439.296 183.296-463.872 417.28H39.936c-23.04 0-36.352 26.624-22.528 45.056L87.04 600.064c11.264 14.848 33.28 14.848 44.544 0l69.632-91.648c13.824-18.432 1.024-45.056-22.528-45.056h-34.304C168.448 263.168 339.456 107.52 546.304 107.52c223.232 0 404.48 181.76 404.48 404.48 0 107.52-41.984 208.896-117.76 285.696-11.776 11.776-11.776 31.232 0 43.52 6.144 6.144 13.824 8.704 21.504 8.704s15.872-3.072 22.016-9.216c87.552-88.064 135.68-204.8 135.68-328.704 0-257.024-208.896-465.92-465.92-465.92zM548.352 848.384c187.904 0 339.968-152.064 339.968-339.968s-152.064-339.968-339.968-339.968-339.968 152.064-339.968 339.968 152.064 339.968 339.968 339.968zM506.368 297.472c0-16.896 13.824-30.72 30.72-30.72s30.72 13.824 30.72 30.72v180.224h88.064c16.896 0 30.72 13.824 30.72 30.72s-13.824 30.72-30.72 30.72h-118.784c-16.896 0-30.72-13.824-30.72-30.72V297.472z" /></svg>
