<?xml version="1.0" standalone="no"?><!DOCTYPE svg PUBLIC "-//W3C//DTD SVG 1.1//EN" "http://www.w3.org/Graphics/SVG/1.1/DTD/svg11.dtd"><svg class="icon" width="128px" height="128.00px" viewBox="0 0 1024 1024" version="1.1" xmlns="http://www.w3.org/2000/svg"><path d="M984.597333 714.794667a170.24 170.24 0 0 0-87.125333-108.096 386.282667 386.282667 0 0 0-214.272-371.2c0.128-2.730667 0.170667-5.482667 0.192-8.234667 0-94.506667-76.885333-171.413333-171.413333-171.413333s-171.392 76.906667-171.392 171.413333c0 2.773333 0.085333 5.504 0.213333 8.234667a386.325333 386.325333 0 0 0-214.293333 371.2 202.666667 202.666667 0 0 0-7.296 4.010666c-81.898667 47.253333-110.058667 152.32-62.762667 234.154667a171.477333 171.477333 0 0 0 241.194667 58.410667A386.56 386.56 0 0 0 512 968.149333a382.336 382.336 0 0 0 214.336-64.853333c2.346667 1.514667 4.714667 2.922667 7.04 4.309333a171.349333 171.349333 0 0 0 234.133333-62.784 171.584 171.584 0 0 0 17.152-130.026666h-0.064z m-638.378666 141.397333a171.413333 171.413333 0 0 0-154.773334-267.861333c0-2.133333-0.085333-4.288-0.085333-6.421334a320.234667 320.234667 0 0 1 165.866667-280.874666 171.413333 171.413333 0 0 0 309.44 0 320.682667 320.682667 0 0 1 165.866666 280.832c0 2.133333 0 4.245333-0.064 6.4a171.392 171.392 0 0 0-154.709333 268.010666 317.226667 317.226667 0 0 1-165.781333 46.101334c-58.453333 0-115.797333-15.978667-165.824-46.186667h0.064zM674.688 457.365333l-190.869333 197.312-95.061334-98.282666c-11.285333-11.157333-27.733333-11.157333-38.997333 0a23.808 23.808 0 0 0-3.072 3.626666c-7.722667 11.114667-6.378667 27.541333 3.072 36.672l114.538667 118.421334c11.285333 11.093333 27.690667 11.093333 38.997333 0l210.432-217.386667c1.109333-1.109333 2.176-2.325333 3.072-3.605333 7.744-11.157333 6.378667-27.584-3.114667-36.714667-11.242667-11.178667-27.733333-11.178667-38.997333-0.042667z" /></svg>
