<?xml version="1.0" standalone="no"?><!DOCTYPE svg PUBLIC "-//W3C//DTD SVG 1.1//EN" "http://www.w3.org/Graphics/SVG/1.1/DTD/svg11.dtd"><svg t="1659403427823" class="icon" viewBox="0 0 1024 1024" version="1.1" xmlns="http://www.w3.org/2000/svg" p-id="2050" width="128" height="128" xmlns:xlink="http://www.w3.org/1999/xlink"><defs><style type="text/css">@font-face { font-family: feedback-iconfont; src: url("//at.alicdn.com/t/font_1031158_u69w8yhxdu.woff2?t=1630033759944") format("woff2"), url("//at.alicdn.com/t/font_1031158_u69w8yhxdu.woff?t=1630033759944") format("woff"), url("//at.alicdn.com/t/font_1031158_u69w8yhxdu.ttf?t=1630033759944") format("truetype"); }
</style></defs><path d="M613.226667 39.573333a101.248 101.248 0 0 1 101.226666 101.205334v151.850666a101.248 101.248 0 0 1-101.226666 101.248h-67.477334v84.352h168.704a101.226667 101.226667 0 0 1 101.226667 101.248v50.581334h67.498667a101.248 101.248 0 0 1 101.248 101.248v151.850666a101.226667 101.226667 0 0 1-101.248 101.226667H680.746667a101.226667 101.226667 0 0 1-101.248-101.226667V731.306667a101.205333 101.205333 0 0 1 101.248-101.205334h67.456v-50.602666c0-18.474667-14.805333-33.450667-33.173334-33.770667H309.525333c-18.453333 0-33.450667 14.805333-33.749333 33.173333v51.157334h67.498667a101.248 101.248 0 0 1 101.248 101.248v151.850666a101.248 101.248 0 0 1-101.248 101.226667h-202.453334a101.248 101.248 0 0 1-101.248-101.226667V731.306667a101.226667 101.226667 0 0 1 101.248-101.205334h67.498667v-50.602666a101.248 101.248 0 0 1 101.248-101.248h168.704v-84.352h-67.477333a101.248 101.248 0 0 1-101.248-101.248V140.8a101.205333 101.205333 0 0 1 101.248-101.205333h202.432z" p-id="2051"></path></svg>