<?xml version="1.0" standalone="no"?><!DOCTYPE svg PUBLIC "-//W3C//DTD SVG 1.1//EN" "http://www.w3.org/Graphics/SVG/1.1/DTD/svg11.dtd"><svg t="1647247349744" class="icon" viewBox="0 0 1024 1024" version="1.1" xmlns="http://www.w3.org/2000/svg" p-id="2086" xmlns:xlink="http://www.w3.org/1999/xlink" width="48" height="48"><defs><style type="text/css"></style></defs><path d="M923.079948 215.521973l-340.459957-197.999975c-39.618995-23.068997-104.225987-23.068997-144.004982 0l-340.455956 197.999975c-39.646995 23.067997-72.015991 79.66199-72.015991 126.324984v340.507956c0 46.607994 32.289996 103.256987 72.015991 126.376984l340.455956 197.947975c39.621995 23.066997 104.227987 23.119997 144.005982 0L923.079948 808.731897c39.619995-23.066997 72.041991-79.66199 72.041991-126.376984V341.846957c0-46.663994-32.318996-103.256987-72.041991-126.324984zM826.81196 534.539932C734.219972 680.831914 628.706985 755.763904 510.368 755.763904c-118.336985 0-223.852972-74.93299-316.44296-221.223972a40.368995 40.368995 0 0 1 0-43.142994c92.590988-146.239981 198.106975-221.225972 316.44396-221.225972 118.337985 0 223.851972 74.98599 316.44396 221.225972a40.265995 40.265995 0 0 1-0.001 43.142994z" p-id="2087"></path><path d="M510.79 378.314952c-59.431992 0-107.643986 60.166992-107.643986 134.467983 0 74.302991 48.211994 134.470983 107.643986 134.470983 59.430992 0 107.671986-60.167992 107.671986-134.469983 0-74.301991-48.239994-134.469983-107.671986-134.469983z" p-id="2088"></path></svg>