<?xml version="1.0" encoding="utf-8"?>
<!-- Generator: Adobe Illustrator 15.0.0, SVG Export Plug-In . SVG Version: 6.00 Build 0)  -->
<!DOCTYPE svg PUBLIC "-//W3C//DTD SVG 1.1//EN" "http://www.w3.org/Graphics/SVG/1.1/DTD/svg11.dtd">
<svg version="1.1" id="图层_1" xmlns="http://www.w3.org/2000/svg" xmlns:xlink="http://www.w3.org/1999/xlink" x="0px" y="0px"
	 width="1024px" height="1024px" viewBox="0 0 1024 1024" enable-background="new 0 0 1024 1024" xml:space="preserve">
<g>
	<path d="M363.395,79.632h295.737c21.763,0,40.104-18.079,40.104-40.355S680.895-1,657.999-1H363.395
		c-22.895,0-41.224,18-41.224,40.276S340.5,79.632,363.395,79.632z"/>
	<rect x="486.652" y="429.873" width="199.375" height="64.57"/>
	<rect x="486.652" y="327.92" width="199.375" height="64.57"/>
	<path d="M890.421,29.776l-136.974-3.829c1,5.04,0,21.79,0,26.947c0.053,38.855-47,80.829-80.815,80.829H349.237
		c-35.605,0-80.829-42.013-80.829-80.829c0.04-5.158-0.96-21.908,0-26.947H133.684c-77.342,0-107.79,47.263-107.79,109.908v782.198
		c0,67.289,27.198,104.947,102.158,104.947h756.552C959.554,1023,996,993.474,996,918.079V135.855
		C996,73.21,961.895,29.776,890.421,29.776z M780.051,583.936C743.42,598.662,707.736,613.203,673,627.549
		c40.781,25.303,74.766,46.826,101.953,64.57l-28.32,39.648c-61.93-44.932-135.186-94.209-219.766-147.832l23.223-31.152
		c30.586,18.506,58.906,35.684,84.961,51.543c37.758-18.125,76.465-37.949,116.113-59.473L780.051,583.936z M443.605,665.498
		V289.404h284.903v258.281h-42.48v-14.727H486.652v147.832c30.206-11.704,67.022-26.997,110.45-45.879
		c0.375,15.483,1.318,30.4,2.832,44.746c-35.875,13.594-72.125,29.268-108.75,47.012c-10.576,5.664-21.147,12.275-31.719,19.824
		l-32.285-42.48C438.126,693.442,443.605,680.605,443.605,665.498z M303.703,275.811c19.258,23.413,45.688,59.097,79.297,107.051
		l-40.215,28.32c-30.586-47.954-55.698-84.961-75.332-111.016L303.703,275.811z M781.184,807.666
		c-109.883,0.752-217.314,0-322.286-2.266c-63.438-1.133-108.374-23.223-134.805-66.27c-15.483,14.346-38.14,39.648-67.969,75.898
		l-23.223-47.012c33.228-32.095,57.393-55.127,72.5-69.102V508.037H238v-41.914h111.016v241.855
		c23.408,36.631,62.305,55.693,116.68,57.207c107.237,1.509,217.686,0.752,331.348-2.266
		C792.887,775.381,787.6,790.293,781.184,807.666z"/>
</g>
</svg>
