<?xml version="1.0" encoding="utf-8"?>
<!-- Generator: Adobe Illustrator 15.0.0, SVG Export Plug-In . SVG Version: 6.00 Build 0)  -->
<!DOCTYPE svg PUBLIC "-//W3C//DTD SVG 1.1//EN" "http://www.w3.org/Graphics/SVG/1.1/DTD/svg11.dtd">
<svg version="1.1" id="图层_1" xmlns="http://www.w3.org/2000/svg" xmlns:xlink="http://www.w3.org/1999/xlink" x="0px" y="0px"
	 width="200px" height="100px" viewBox="0 0 200 100" enable-background="new 0 0 200 100" xml:space="preserve">
<g>
	<path d="M150,0c-27.613,0-50,22.386-50,50s22.386,50,50,50c27.613,0,50-22.386,50-50S177.616,0,150,0L150,0z"/>
</g>
<g>
	<circle cx="50" cy="50" r="50"/>
</g>
<g enable-background="new    ">
	<path fill="#FFFFFF" stroke="#FFFFFF" d="M41.914,54.977h6.953v-4.5h-5.719v-1.188h5.719v-3.563h-6.328v-1.188h13.938v1.188h-6.266v3.563h5.719
		v1.188h-5.719v4.5h6.953v1.156h-15.25V54.977z M48.273,42.227l1.156-0.594c0.635,0.948,1.094,1.683,1.375,2.203l-1.234,0.656
		C49.008,43.45,48.575,42.695,48.273,42.227z"/>
</g>
<g enable-background="new    ">
	<path fill="#FFFFFF" stroke="#FFFFFF" d="M144.606,49.398h1.813v-3.359h1.047v3.359h1.609v1.031h-1.609v2.125c0.646-0.078,1.287-0.161,1.922-0.25
		c-0.052,0.396-0.088,0.755-0.109,1.078c-0.494,0.058-1.099,0.13-1.813,0.219v3.453h-1.047v-3.32
		c-0.932,0.125-2.005,0.269-3.219,0.43l-0.125-1.141c1.131-0.104,2.245-0.219,3.344-0.344v-2.25h-2.953v-0.984
		c0.584-1.599,1.073-3.031,1.469-4.297h-1.672v-1.016h1.984c0.271-0.942,0.484-1.776,0.641-2.5l1.203,0.25
		c-0.166,0.589-0.398,1.339-0.695,2.25h2.727v1.016h-3.055C145.667,46.347,145.179,47.763,144.606,49.398z M150.856,57.039h-1.078
		V46.648h3.438v-1.5h-3.656v-1.031h3.656v-2.375h1.094v2.375h4.25v1.031h-4.25v1.5h3.516v8.609c0,1.031-0.469,1.558-1.406,1.578
		c-0.479,0.011-0.979,0.016-1.5,0.016c-0.063-0.375-0.141-0.776-0.234-1.203c0.448,0.063,0.891,0.094,1.328,0.094
		c0.49,0,0.734-0.245,0.734-0.734v-1.609h-2.438v3.422h-1.094v-3.422h-2.359V57.039z M150.856,49.555h2.359v-1.906h-2.359V49.555z
		 M150.856,52.43h2.359v-1.906h-2.359V52.43z M156.747,47.648h-2.438v1.906h2.438V47.648z M154.309,52.43h2.438v-1.906h-2.438V52.43
		z M155.59,41.695c0.771,0.5,1.428,0.989,1.969,1.469c-0.25,0.25-0.51,0.531-0.781,0.844c-0.625-0.594-1.239-1.13-1.844-1.609
		L155.59,41.695z"/>
</g>
</svg>
