<svg class="icon" viewBox="0 0 1024 1024" version="1.1" xmlns="http://www.w3.org/2000/svg" width="200" height="200"><path d="M514.284572 57.260513c218.462197 0 395.516527 177.05433 395.516527 395.516527 0 147.069322-79.96002 274.14864-198.472192 342.6858l104.233597 115.656457-228.4572-69.965017c0 0-45.69144 7.139287-72.820732 7.139287-218.462197 0-395.516527-177.05433-395.516527-395.516527S295.822375 57.260513 514.284572 57.260513M514.284572 0.146213C265.837367 0.146213 63.081602 202.901978 63.081602 451.349183S265.837367 903.98001 514.284572 903.98001c21.417862 0 51.40287-2.855715 67.109302-5.71143l215.606482 65.681445 195.616477 59.970015L856.970372 871.139287l-59.970015-67.109302c105.661455-85.67145 169.915042-214.178625 169.915042-352.680802C965.487542 202.901978 762.731777 0.146213 514.284572 0.146213L514.284572 0.146213zM382.921682 277.150568c0 72.820732 58.542157 131.36289 131.36289 131.36289s131.36289-58.542157 131.36289-131.36289-58.542157-131.36289-131.36289-131.36289S382.921682 204.329835 382.921682 277.150568zM281.5438 669.81138c0-128.507175 104.233597-232.740772 232.740772-232.740772s232.740772 104.233597 232.740772 232.740772" /></svg>
