<?xml version="1.0" standalone="no"?><!DOCTYPE svg PUBLIC "-//W3C//DTD SVG 1.1//EN" "http://www.w3.org/Graphics/SVG/1.1/DTD/svg11.dtd"><svg class="icon" width="200px" height="200.00px" viewBox="0 0 1024 1024" version="1.1" xmlns="http://www.w3.org/2000/svg"><path d="M960 320v-64H768V64h-64v192H544V64h-64v192H320V64h-64v192H64v64h192v160H64v64h192v160H64v64h192v192h64V768h160v192h64V768h160v192h64V768h192v-64H768V544h192v-64H768V320h192z m-640 0h160v160H320V320z m0 384V544h160v160H320z m384 0H544V544h160v160z m0-224H544V320h160v160z" /></svg>
