<?xml version="1.0" encoding="utf-8"?>
<!-- Generator: Adobe Illustrator 15.0.0, SVG Export Plug-In . SVG Version: 6.00 Build 0)  -->
<!DOCTYPE svg PUBLIC "-//W3C//DTD SVG 1.1//EN" "http://www.w3.org/Graphics/SVG/1.1/DTD/svg11.dtd">
<svg version="1.1" id="图层_1" xmlns="http://www.w3.org/2000/svg" xmlns:xlink="http://www.w3.org/1999/xlink" x="0px" y="0px"
     width="1000px" height="1000px" viewBox="0 0 1000 1000" enable-background="new 0 0 1000 1000" xml:space="preserve">
<g>
	<path d="M315.802,13.634H78.947C35.349,13.634,0,49.009,0,92.607v184.198h394.75V92.607
		C394.75,49.009,359.401,13.634,315.802,13.634z"/>
  <path d="M921.053,13.634H552.631c-43.61,0-78.947,35.375-78.947,78.973v184.198H1000V92.607
		C1000,49.009,964.662,13.634,921.053,13.634z"/>
  <path d="M0,908.37c0,43.586,35.349,78.999,78.946,78.999h236.855c43.599,0,78.946-35.413,78.946-78.999V355.739H0V908.37z"/>
  <path d="M473.684,908.37c0,43.586,35.336,78.999,78.947,78.999h368.422c43.609,0,78.947-35.413,78.947-78.999V355.739H473.684
		V908.37z"/>
</g>
</svg>
