<?xml version="1.0" encoding="utf-8"?>
<!-- Generator: Adobe Illustrator 15.0.0, SVG Export Plug-In . SVG Version: 6.00 Build 0)  -->
<!DOCTYPE svg PUBLIC "-//W3C//DTD SVG 1.1//EN" "http://www.w3.org/Graphics/SVG/1.1/DTD/svg11.dtd">
<svg version="1.1" id="图层_1" xmlns="http://www.w3.org/2000/svg" xmlns:xlink="http://www.w3.org/1999/xlink" x="0px" y="0px"
	 width="1024px" height="1024px" viewBox="0 0 1024 1024" enable-background="new 0 0 1024 1024" xml:space="preserve">
<path d="M1008.681,461.946L819.471,133.8c-21.036-36.497-53.132-66.062-96.55-66.822l-397.793,0.043
	c-43.407-0.729-83.946,20.883-106.296,56.695L17.779,445.333c-22.339,35.769-23.132,80.316-2.064,116.824l189.21,328.135
	c21.024,36.572,53.109,66.062,96.549,66.801h397.782c43.375,0.651,83.968-20.905,106.351-56.718l201.01-321.571
	C1028.955,542.991,1029.759,498.443,1008.681,461.946z M293.14,712.1h-6.997c-22.524,0-40.767-14.864-40.767-33.227
	c0-18.318,18.243-33.183,40.767-33.183h6.997c22.524,0,40.778,14.864,40.778,33.183C333.918,697.235,315.664,712.1,293.14,712.1z
	 M300.8,556.529h-22.242c-18.46,0-33.389-14.929-33.389-33.335c0-18.461,14.929-33.4,33.389-33.4H300.8
	c18.417,0,33.39,14.939,33.39,33.4C334.19,541.601,319.217,556.529,300.8,556.529z M300.8,400.773h-22.242
	c-18.46,0-33.389-14.929-33.389-33.378c0-18.428,14.929-33.357,33.389-33.357H300.8c18.417,0,33.39,14.929,33.39,33.357
	C334.19,385.845,319.217,400.773,300.8,400.773z M738.175,712.1H419.657c-22.524,0-40.767-14.864-40.767-33.227
	c0-18.318,18.243-33.183,40.767-33.183h318.518c22.536,0,40.768,14.864,40.768,33.183C778.942,697.235,760.711,712.1,738.175,712.1z
	 M745.847,556.529H412.073c-18.46,0-33.389-14.929-33.389-33.335c0-18.461,14.929-33.4,33.389-33.4h333.774
	c18.449,0,33.378,14.939,33.378,33.4C779.225,541.601,764.296,556.529,745.847,556.529z M745.847,400.773H412.073
	c-18.46,0-33.389-14.929-33.389-33.378c0-18.428,14.929-33.357,33.389-33.357h333.774c18.449,0,33.378,14.929,33.378,33.357
	C779.225,385.845,764.296,400.773,745.847,400.773z"/>
</svg>
