<?xml version="1.0" encoding="utf-8"?>
<!-- Generator: Adobe Illustrator 15.0.0, SVG Export Plug-In . SVG Version: 6.00 Build 0)  -->
<!DOCTYPE svg PUBLIC "-//W3C//DTD SVG 1.1//EN" "http://www.w3.org/Graphics/SVG/1.1/DTD/svg11.dtd">
<svg version="1.1" id="图层_1" xmlns="http://www.w3.org/2000/svg" xmlns:xlink="http://www.w3.org/1999/xlink" x="0px" y="0px"
	 width="181.001px" height="100px" viewBox="0 0 181.001 100" enable-background="new 0 0 181.001 100" xml:space="preserve">
<g>
	<path d="M131,1c27.02,0,49.001,21.981,49.001,49S158.02,99,131,99c-15.408,0-30.031-7.352-39.265-19.703
		C97.799,70.681,101,60.567,101,50c0-10.567-3.201-20.681-9.265-29.297C100.969,8.352,115.592,1,131,1 M131,0
		c-16.664,0-31.414,8.16-40.5,20.694C96.471,28.93,100,39.05,100,50c0,10.95-3.529,21.07-9.5,29.306
		C99.586,91.84,114.336,100,131,100c27.614,0,50.001-22.386,50.001-50S158.615,0,131,0L131,0z"/>
</g>
<g>
	<path fill-rule="evenodd" clip-rule="evenodd" d="M90.5,20.694C81.415,8.16,66.664,0,50,0C22.386,0,0,22.386,0,50
		s22.386,50,50,50c16.665,0,31.416-8.16,40.501-20.694c-5.97-8.235-9.5-18.355-9.5-29.306C81.001,39.05,84.531,28.93,90.5,20.694z"
		/>
</g>
<g>
	<path fill-rule="evenodd" clip-rule="evenodd" fill="#FFFFFF" d="M90.5,20.694c-5.97,8.236-9.5,18.356-9.5,29.306
		c0,10.95,3.53,21.07,9.5,29.306C96.471,71.07,100,60.95,100,50C100,39.05,96.471,28.93,90.5,20.694z"/>
</g>
<g>
	<path fill="#FFFFFF" stroke="#FFFFFF" d="M41.914,54.977h6.953v-4.5h-5.719v-1.188h5.719v-3.562h-6.328V44.54h13.938v1.188H50.21v3.562h5.719v1.188
		H50.21v4.5h6.953v1.156h-15.25V54.977z M48.273,42.227l1.156-0.594c0.635,0.948,1.094,1.683,1.375,2.203l-1.234,0.656
		C49.007,43.451,48.575,42.696,48.273,42.227z"/>
</g>
<g>
	<path d="M125.606,49.398h1.813V46.04h1.047v3.359h1.609v1.031h-1.609v2.125c0.646-0.078,1.287-0.16,1.922-0.25
		c-0.052,0.396-0.088,0.756-0.109,1.078c-0.494,0.059-1.099,0.131-1.813,0.219v3.453h-1.047v-3.32
		c-0.932,0.125-2.005,0.27-3.219,0.43l-0.125-1.141c1.131-0.104,2.245-0.219,3.344-0.344v-2.25h-2.953v-0.984
		c0.584-1.598,1.073-3.031,1.469-4.296h-1.672v-1.016h1.984c0.271-0.942,0.484-1.776,0.641-2.5l1.203,0.25
		c-0.166,0.589-0.398,1.339-0.695,2.25h2.727v1.016h-3.055C126.667,46.347,126.179,47.764,125.606,49.398z M131.856,57.039h-1.078
		v-10.39h3.438v-1.5h-3.656v-1.031h3.656v-2.375h1.094v2.375h4.25v1.031h-4.25v1.5h3.516v8.609c0,1.031-0.469,1.558-1.406,1.578
		c-0.479,0.011-0.979,0.016-1.5,0.016c-0.063-0.375-0.141-0.775-0.234-1.203c0.448,0.063,0.891,0.094,1.328,0.094
		c0.49,0,0.734-0.244,0.734-0.734v-1.609h-2.438v3.422h-1.094v-3.422h-2.359V57.039z M131.856,49.555h2.359v-1.906h-2.359V49.555z
		 M131.856,52.43h2.359v-1.906h-2.359V52.43z M137.747,47.649h-2.438v1.906h2.438V47.649z M135.309,52.43h2.438v-1.906h-2.438V52.43
		z M136.59,41.696c0.771,0.5,1.428,0.99,1.969,1.469c-0.25,0.25-0.51,0.531-0.781,0.844c-0.625-0.594-1.239-1.13-1.844-1.609
		L136.59,41.696z"/>
</g>
</svg>
