<?xml version="1.0" encoding="utf-8"?>
<!-- Generator: Adobe Illustrator 15.0.0, SVG Export Plug-In . SVG Version: 6.00 Build 0)  -->
<!DOCTYPE svg PUBLIC "-//W3C//DTD SVG 1.1//EN" "http://www.w3.org/Graphics/SVG/1.1/DTD/svg11.dtd">
<svg version="1.1" id="图层_1" xmlns="http://www.w3.org/2000/svg" xmlns:xlink="http://www.w3.org/1999/xlink" x="0px" y="0px"
	 width="181px" height="100px" viewBox="0 0 181 100" enable-background="new 0 0 181 100" xml:space="preserve">
<g>
	<path d="M50,1c15.408,0,30.031,7.352,39.266,19.703C83.201,29.319,80,39.433,80,50c0,10.566,3.201,20.682,9.266,29.297
		C80.031,91.648,65.408,99,50,99C22.98,99,1,77.02,1,50C1,22.981,22.98,1,50,1 M50,0C22.384,0,0,22.386,0,50s22.387,50,50,50
		c16.664,0,31.414-8.16,40.5-20.693C84.529,71.07,81,60.95,81,50s3.529-21.07,9.5-29.306C81.414,8.16,66.664,0,50,0L50,0z"/>
</g>
<g>
	<path d="M99.999,50c0,10.953-3.53,21.07-9.5,29.307C99.584,91.84,114.335,100,131,100c27.614,0,50-22.386,50-50S158.614,0,131,0
		c-16.664,0-31.415,8.16-40.5,20.694C96.469,28.93,99.999,39.05,99.999,50z"/>
</g>
<g>
	<path fill="#FFFFFF" d="M81,50c0,10.95,3.529,21.07,9.5,29.307C96.47,71.07,100,60.95,100,50s-3.53-21.07-9.5-29.306
		C84.529,28.93,81,39.05,81,50z"/>
</g>
<g>
	<path d="M41.44,54.977h6.953v-4.5h-5.72v-1.188h5.72v-3.562h-6.328V44.54h13.938v1.188h-6.268v3.562h5.72v1.188h-5.72v4.5h6.953
		v1.153h-15.25L41.44,54.977L41.44,54.977z M47.799,42.227l1.156-0.594c0.635,0.948,1.094,1.683,1.375,2.203l-1.234,0.656
		C48.534,43.451,48.103,42.696,47.799,42.227z"/>
</g>
<g>
	<path fill="#FFFFFF" stroke="#FFFFFF" d="M125.131,49.398h1.813V46.04h1.048v3.359h1.608v1.031h-1.608v2.125c0.646-0.078,1.286-0.16,1.924-0.25
		c-0.054,0.396-0.09,0.756-0.109,1.078c-0.493,0.059-1.1,0.131-1.813,0.219v3.453h-1.048v-3.32
		c-0.932,0.125-2.004,0.271-3.219,0.433l-0.125-1.144c1.131-0.104,2.244-0.219,3.344-0.344v-2.25h-2.952v-0.984
		c0.585-1.598,1.073-3.031,1.47-4.296h-1.672v-1.016h1.982c0.271-0.942,0.484-1.776,0.643-2.5l1.202,0.25
		c-0.165,0.589-0.397,1.339-0.694,2.25h2.729v1.016h-3.057C126.191,46.347,125.705,47.764,125.131,49.398z M131.381,57.039h-1.078
		v-10.39h3.438v-1.5h-3.655v-1.031h3.655v-2.375h1.095v2.375h4.25v1.031h-4.25v1.5h3.518v8.609c0,1.031-0.471,1.559-1.405,1.578
		c-0.479,0.012-0.979,0.016-1.5,0.016c-0.063-0.375-0.144-0.772-0.233-1.203c0.447,0.063,0.891,0.097,1.328,0.097
		c0.489,0,0.732-0.244,0.732-0.734V53.4h-2.438v3.422h-1.096V53.4h-2.357L131.381,57.039L131.381,57.039z M131.381,49.555h2.359
		v-1.906h-2.359V49.555z M131.381,52.43h2.359v-1.906h-2.359V52.43z M137.271,47.649h-2.438v1.906h2.438V47.649z M134.836,52.43
		h2.438v-1.906h-2.438V52.43z M136.116,41.696c0.771,0.5,1.429,0.99,1.97,1.469c-0.25,0.25-0.511,0.531-0.781,0.844
		c-0.625-0.594-1.238-1.13-1.844-1.609L136.116,41.696z"/>
</g>
</svg>
