<?xml version="1.0" standalone="no"?><!DOCTYPE svg PUBLIC "-//W3C//DTD SVG 1.1//EN" "http://www.w3.org/Graphics/SVG/1.1/DTD/svg11.dtd"><svg t="1637736469757" class="icon" viewBox="0 0 1024 1024" version="1.1" xmlns="http://www.w3.org/2000/svg" p-id="2793" xmlns:xlink="http://www.w3.org/1999/xlink" width="32" height="32"><defs><style type="text/css"></style></defs><path d="M365.470882 877.470882c-40.891847 0-73.264559 32.372712-73.264559 73.264559 0 40.891847 32.372712 73.264559 73.264559 73.264559 40.891847 0 73.264559-32.372712 73.264559-73.264559C438.735441 911.547421 406.362729 877.470882 365.470882 877.470882zM949.883527 439.587354c40.891847 0 73.264559-32.372712 73.264559-73.264559 0-40.891847-32.372712-73.264559-73.264559-73.264559-40.891847 0-73.264559 32.372712-73.264559 73.264559 0 5.111481 0 8.519135 1.703827 11.926789l-139.71381 85.191348c-8.519135-40.891847-27.261231-76.672213-54.522463-107.341098L907.287854 132.898502c11.926789 8.519135 27.261231 13.630616 42.595674 13.630616 40.891847 0 73.264559-32.372712 73.264559-73.264559C1023.148087 34.076539 990.775374 1.703827 949.883527 1.703827c-40.891847 0-73.264559 32.372712-73.264559 73.264559 0 15.334443 5.111481 30.668885 13.630616 42.595674L667.048253 340.765391c-34.076539-30.668885-74.968386-51.114809-122.675541-57.930116l85.191348-141.417637c8.519135 3.407654 17.03827 5.111481 27.261231 5.111481 40.891847 0 73.264559-32.372712 73.264559-73.264559 0-40.891847-32.372712-73.264559-73.264559-73.264559-40.891847 0-73.264559 32.372712-73.264559 73.264559 0 23.853577 11.926789 46.003328 30.668885 59.633943l-90.302829 148.232945c-5.111481 0-8.519135 0-13.630616 0-8.519135 0-17.03827 0-27.261231 1.703827l-88.599002-143.121464c23.853577-11.926789 40.891847-37.484193 40.891847-64.745424 0-40.891847-32.372712-73.264559-73.264559-73.264559-40.891847 0-73.264559 32.372712-73.264559 73.264559 0 40.891847 32.372712 73.264559 73.264559 73.264559 5.111481 0 10.222962 0 15.334443-1.703827l86.895175 139.71381c-47.707155 8.519135-90.302829 34.076539-122.675541 66.449251L121.823627 129.490849C137.15807 115.860233 147.381032 97.118136 147.381032 74.968386 147.381032 34.076539 113.304493 1.703827 74.116473 1.703827 33.224626 1.703827 0.851913 34.076539 0.851913 74.968386c0 40.891847 32.372712 73.264559 73.264559 73.264559 10.222962 0 18.742097-1.703827 27.261231-5.111481l228.312812 228.312812c-20.445923 25.557404-35.780366 56.22629-42.595674 90.302829L145.677205 376.545757l0 0c0-3.407654 1.703827-6.815308 1.703827-10.222962 0-40.891847-32.372712-73.264559-73.264559-73.264559-40.891847 0-73.264559 32.372712-73.264559 73.264559 0 40.891847 32.372712 73.264559 73.264559 73.264559 30.668885 0 56.22629-18.742097 68.153078-46.003328l141.417637 85.191348c-1.703827 11.926789-3.407654 22.14975-3.407654 34.076539 0 13.630616 1.703827 27.261231 3.407654 39.18802l-134.602329 81.783694L157.603993 649.15807l129.490849-78.37604c10.222962 37.484193 27.261231 69.856905 52.818636 98.821963L116.712146 892.805324c-11.926789-8.519135-27.261231-13.630616-42.595674-13.630616-40.891847 0-73.264559 32.372712-73.264559 73.264559C0.851913 991.627288 33.224626 1024 74.116473 1024c40.891847 0 73.264559-32.372712 73.264559-73.264559 0-15.334443-5.111481-30.668885-13.630616-42.595674l224.905158-224.905158c27.261231 25.557404 61.33777 42.595674 98.821963 52.818636L375.693844 867.24792l13.630616 8.519135 81.783694-134.602329c13.630616 1.703827 25.557404 3.407654 39.18802 3.407654 11.926789 0 23.853577-1.703827 34.076539-3.407654l85.191348 141.417637c-27.261231 10.222962-46.003328 37.484193-46.003328 68.153078 0 40.891847 32.372712 73.264559 73.264559 73.264559 40.891847 0 73.264559-32.372712 73.264559-73.264559 0-40.891847-32.372712-73.264559-73.264559-73.264559-3.407654 0-6.815308 0-10.222962 1.703827l0 0-83.487521-141.417637c34.076539-8.519135 64.745424-22.14975 90.302829-42.595674l228.312812 228.312812c-3.407654 8.519135-5.111481 18.742097-5.111481 27.261231 0 40.891847 32.372712 73.264559 73.264559 73.264559 40.891847 0 73.264559-32.372712 73.264559-73.264559 0-40.891847-32.372712-73.264559-73.264559-73.264559-22.14975 0-40.891847 10.222962-54.522463 25.557404L672.159734 679.826955c34.076539-32.372712 57.930116-74.968386 66.449251-124.379368l141.417637 83.487521c-1.703827 6.815308-3.407654 11.926789-3.407654 18.742097 0 40.891847 32.372712 73.264559 73.264559 73.264559 40.891847 0 73.264559-32.372712 73.264559-73.264559 0-40.891847-32.372712-73.264559-73.264559-73.264559-27.261231 0-51.114809 15.334443-63.041597 37.484193l-144.825291-86.895175c1.703827-8.519135 1.703827-17.03827 1.703827-25.557404 0-10.222962-1.703827-20.445923-1.703827-30.668885l143.121464-86.895175C895.361065 420.845258 920.918469 439.587354 949.883527 439.587354zM74.116473 732.645591c40.891847 0 73.264559-32.372712 73.264559-73.264559 0-40.891847-32.372712-73.264559-73.264559-73.264559-40.891847 0-73.264559 32.372712-73.264559 73.264559C0.851913 698.569052 33.224626 732.645591 74.116473 732.645591z" p-id="2794"></path></svg>