<?xml version="1.0" encoding="utf-8"?>
<!-- Generator: Adobe Illustrator 15.0.0, SVG Export Plug-In . SVG Version: 6.00 Build 0)  -->
<!DOCTYPE svg PUBLIC "-//W3C//DTD SVG 1.1//EN" "http://www.w3.org/Graphics/SVG/1.1/DTD/svg11.dtd">
<svg version="1.1" id="图层_1" xmlns="http://www.w3.org/2000/svg" x="0px" y="0px"
     width="1024px" height="1024px" viewBox="0 0 1024 1024" enable-background="new 0 0 1024 1024" xml:space="preserve">
<path d="M831.299 191.912S639.453 169.948 543.526 78.108C531.534 64.1 520.697 64.1 511.549 64.1c-9.143 0-19.984 0-31.971 12.009-95.926 91.839-287.779 115.803-287.779 115.803-35.172 0-63.949 28.762-63.949 63.912V607.31c0 95.862 191.853 351.493 383.699 351.493 191.853 0 383.699-255.63 383.699-351.493V255.824c0-35.15-28.776-63.912-63.949-63.912zM480 320c0-17.6 14.4-32 32-32s32 14.4 32 32v224c0 17.6-14.4 32-32 32s-32-14.4-32-32V320z m80 368c0 26.4-21.6 48-48 48s-48-21.6-48-48 21.6-48 48-48 48 21.6 48 48z" p-id="2851" fill="#ffffff">
</path>
</svg>
