<?xml version="1.0" encoding="utf-8"?>
<!-- Generator: Adobe Illustrator 15.0.0, SVG Export Plug-In . SVG Version: 6.00 Build 0)  -->
<!DOCTYPE svg PUBLIC "-//W3C//DTD SVG 1.1//EN" "http://www.w3.org/Graphics/SVG/1.1/DTD/svg11.dtd">
<svg version="1.1" id="图层_1" xmlns="http://www.w3.org/2000/svg" xmlns:xlink="http://www.w3.org/1999/xlink" x="0px" y="0px"
	 width="1024px" height="1024px" viewBox="0 0 1024 1024" enable-background="new 0 0 1024 1024" xml:space="preserve">
<path d="M906.05,117.95C822.25,31.775,681.7,2.313,511.987,0.025C342.3,2.313,201.788,31.775,117.95,117.95
	C31.775,201.75,2.313,342.3,0.013,512c2.3,169.7,31.762,310.2,117.938,394.05c83.837,86.175,224.35,115.625,394.037,117.925
	c169.713-2.3,310.263-31.75,394.063-117.925C992.2,822.2,1021.675,681.7,1023.975,512C1021.675,342.3,992.2,201.75,906.05,117.95z
	 M760.15,756.35c-5.775,7-15.075,11.676-24.351,11.676H287.038c-9.25,0-18.55-4.676-24.325-11.676
	c-5.813-8.125-8.15-17.449-5.813-26.75C278.5,618.975,363.6,534.7,468.913,516.225c-52.188-18.187-90.238-68.2-90.238-126.399
	c0-73.313,60.288-133.838,133.325-133.838c73.075,0,133.375,60.525,133.375,133.838c0,59.625-39.925,110.775-94.175,127.8
	c21.05,3.35,42.55,8.85,64.024,17.625c12.15,4.95,16.226,8.175,23.176,11.65C705.675,585.3,752.025,651.625,767.1,729.6
	C769.45,738.9,767.1,748.225,760.15,756.35z"/>
</svg>
