<?xml version="1.0" standalone="no"?><!DOCTYPE svg PUBLIC "-//W3C//DTD SVG 1.1//EN" "http://www.w3.org/Graphics/SVG/1.1/DTD/svg11.dtd"><svg t="1647247895238" class="icon" viewBox="0 0 1024 1024" version="1.1" xmlns="http://www.w3.org/2000/svg" p-id="2705" xmlns:xlink="http://www.w3.org/1999/xlink" width="48" height="48"><defs><style type="text/css"></style></defs><path d="M983.36 478.314667l-114.218667-114.24V202.474667c0-26.304-21.333333-47.616-47.616-47.616h-161.557333L545.706667 40.618667a47.573333 47.573333 0 0 0-67.328 0l-114.24 114.24H202.496A47.616 47.616 0 0 0 154.88 202.474667v161.578666L40.64 478.293333a47.637333 47.637333 0 0 0 0 67.328L154.88 659.84v161.6c0 26.304 21.333333 47.594667 47.616 47.594667h161.578667l114.24 114.24a47.573333 47.573333 0 0 0 67.328 0l114.261333-114.24h161.557333a47.594667 47.594667 0 0 0 47.616-47.594667V659.84l114.218667-114.218667c18.666667-18.56 18.666667-48.725333 0.064-67.306666zM512 821.482667V202.474667c170.944 0 309.504 138.56 309.504 309.504S682.944 821.482667 512 821.482667z" p-id="2706"></path></svg>