<?xml version="1.0" standalone="no"?><!DOCTYPE svg PUBLIC "-//W3C//DTD SVG 1.1//EN" "http://www.w3.org/Graphics/SVG/1.1/DTD/svg11.dtd"><svg t="1627369588157" class="icon" viewBox="0 0 1024 1024" version="1.1" xmlns="http://www.w3.org/2000/svg" p-id="5440" xmlns:xlink="http://www.w3.org/1999/xlink" width="200" height="200"><defs><style type="text/css">@font-face { font-family: feedback-iconfont; src: url("//at.alicdn.com/t/font_1031158_1uhr8ri0pk5.eot?#iefix") format("embedded-opentype"), url("//at.alicdn.com/t/font_1031158_1uhr8ri0pk5.woff2") format("woff2"), url("//at.alicdn.com/t/font_1031158_1uhr8ri0pk5.woff") format("woff"), url("//at.alicdn.com/t/font_1031158_1uhr8ri0pk5.ttf") format("truetype"), url("//at.alicdn.com/t/font_1031158_1uhr8ri0pk5.svg#iconfont") format("svg"); }
</style></defs><path d="M512 128c298.688 0 512 213.44 512 384s-213.568 384-512 384-512-212.544-512-384 213.312-384 512-384z m0 85.312C279.68 213.312 85.312 373.184 85.312 512c0 138.688 194.56 298.688 426.688 298.688 231.744 0 426.688-160.512 426.688-298.688 0-138.24-194.752-298.688-426.688-298.688z m0 85.376a213.312 213.312 0 1 1 0 426.624 213.312 213.312 0 0 1 0-426.624zM512 384a128 128 0 1 0 0 256 128 128 0 0 0 0-256z" p-id="5441"></path></svg>
