<?xml version="1.0" encoding="utf-8"?>
<!-- Generator: Adobe Illustrator 15.0.0, SVG Export Plug-In . SVG Version: 6.00 Build 0)  -->
<!DOCTYPE svg PUBLIC "-//W3C//DTD SVG 1.1//EN" "http://www.w3.org/Graphics/SVG/1.1/DTD/svg11.dtd">
<svg version="1.1" id="图层_1" xmlns="http://www.w3.org/2000/svg" xmlns:xlink="http://www.w3.org/1999/xlink" x="0px" y="0px"
	 width="1024px" height="1024px" viewBox="0 0 1024 1024" enable-background="new 0 0 1024 1024" xml:space="preserve">
<path d="M921.001,125.717l-31.862,1.055c-8.999,0.323-17.819,0.467-26.463,0.467h-0.044c-227.413,0-327.577-101.897-328.421-102.786
	L511.503,0.146l-22.775,24.308c-0.978,1.066-106.695,110.584-354.95,102.318l-31.862-1.055v461.857
	c0,120.915,41.283,297.27,398.422,432.228l11.12,4.199l11.11-4.199c144.265-54.516,236.984-115.783,296.271-177.424L675.148,715.319
	c-40.818,30.342-91.348,48.317-146.004,48.317c-135.214,0-245.22-110.006-245.22-245.208c0-135.226,110.006-245.277,245.22-245.277
	c135.226,0,245.232,110.051,245.232,245.277c0,53.823-17.447,103.642-46.965,144.129L865.317,784.47
	c46.584-71.171,55.684-140.14,55.684-196.896V125.717z"/>
<path d="M714.03,518.429c0-101.953-82.945-184.886-184.886-184.886s-184.84,82.933-184.84,184.886
	c0,101.918,82.9,184.862,184.84,184.862S714.03,620.347,714.03,518.429z"/>
</svg>
