<?xml version="1.0" encoding="utf-8"?>
<!-- Generator: Adobe Illustrator 15.0.0, SVG Export Plug-In . SVG Version: 6.00 Build 0)  -->
<!DOCTYPE svg PUBLIC "-//W3C//DTD SVG 1.1//EN" "http://www.w3.org/Graphics/SVG/1.1/DTD/svg11.dtd">
<svg version="1.1" id="图层_1" xmlns="http://www.w3.org/2000/svg" xmlns:xlink="http://www.w3.org/1999/xlink" x="0px" y="0px"
	 width="1024px" height="1024px" viewBox="0 0 1024 1024" enable-background="new 0 0 1024 1024" xml:space="preserve">
<g>
	<path d="M386.241,716.552H251.842c-25.874,0-46.885-17.099-46.885-38.197c0-21.1,21.012-38.198,46.885-38.198
		h153.399c19.271-49.982,50.721-93.909,90.726-128.144H243.13c-21.199,0-38.411-17.199-38.411-38.398
		c0-21.211,17.212-38.373,38.411-38.373h459.814h1.967c12.802,0.04,25.425,0.825,37.819,2.335
		c68.715,8.37,130.566,38.661,178.766,83.486V102.42c0-56.522-45.872-102.382-102.395-102.382h-665.58
		c-56.56,0-102.382,45.86-102.382,102.382v742.376c0,56.548,45.823,102.395,102.382,102.395h294.836
		c-40.273-53.497-64.447-119.843-64.447-191.989C383.91,742.117,384.715,729.225,386.241,716.552z M243.13,230.427h486.375
		c21.199,0,38.424,17.211,38.424,38.41c0,21.211-17.225,38.423-38.424,38.423H243.13c-21.199,0-38.411-17.212-38.411-38.423
		C204.719,247.638,221.931,230.427,243.13,230.427z"/>
	<path d="M716.732,512.063c-94.82,0-177.596,51.516-221.841,128.094c-13.509,23.38-23.429,49.095-29,76.396
		c-3.391,16.619-5.173,33.824-5.173,51.448c0,141.393,114.62,255.987,256.014,255.987c141.342,0,255.962-114.595,255.962-255.987
		S858.074,512.063,716.732,512.063z M760.88,821.298c-63.572,54.847-124.62,125.993-124.62,125.993s-27.098-37.298-58.196-73.496
		c-31.099-35.999-66.147-73.547-66.147-73.547l39.724-36.599l84.62,84.347c0,0,42.099-33.648,91.421-70.946
		c60.522-45.947,167.392-111.645,167.392-111.645l26.424,24.748C921.496,690.153,827.251,764.051,760.88,821.298z"/>
</g>
</svg>
