<?xml version="1.0" encoding="utf-8"?>
<!-- Generator: Adobe Illustrator 15.0.0, SVG Export Plug-In . SVG Version: 6.00 Build 0)  -->
<!DOCTYPE svg PUBLIC "-//W3C//DTD SVG 1.1//EN" "http://www.w3.org/Graphics/SVG/1.1/DTD/svg11.dtd">
<svg version="1.1" id="图层_1" xmlns="http://www.w3.org/2000/svg" xmlns:xlink="http://www.w3.org/1999/xlink" x="0px" y="0px"
	 width="1024px" height="1024px" viewBox="0 0 1024 1024" enable-background="new 0 0 1024 1024" xml:space="preserve">
<path fill-rule="evenodd" clip-rule="evenodd" d="M511.982,947.204H254.817c-98.879,0-178.024-79.143-178.024-178.021V512.014
	c0-239.363,195.826-435.187,435.188-435.187c239.365,0,435.255,195.823,435.255,435.187
	C947.237,751.381,751.347,947.204,511.982,947.204L511.982,947.204z M255.984,435.273c-42.373,0-76.777,34.272-76.777,76.741
	c0,42.407,34.404,76.81,76.777,76.81c42.405,0,76.777-34.402,76.777-76.81C332.761,469.545,298.389,435.273,255.984,435.273
	L255.984,435.273z M511.982,435.273c-42.405,0-76.808,34.272-76.808,76.741c0,42.407,34.402,76.81,76.808,76.81
	c42.472,0,76.745-34.402,76.745-76.81C588.727,469.545,554.454,435.273,511.982,435.273L511.982,435.273z M768.015,435.273
	c-42.471,0-76.875,34.272-76.875,76.741c0,42.407,34.404,76.81,76.875,76.81c42.405,0,76.81-34.402,76.81-76.81
	C844.824,469.545,810.42,435.273,768.015,435.273L768.015,435.273z"/>
</svg>
