<?xml version="1.0" encoding="utf-8"?>
<!-- Generator: Adobe Illustrator 15.0.0, SVG Export Plug-In . SVG Version: 6.00 Build 0)  -->
<!DOCTYPE svg PUBLIC "-//W3C//DTD SVG 1.1//EN" "http://www.w3.org/Graphics/SVG/1.1/DTD/svg11.dtd">
<svg version="1.1" id="图层_1" xmlns="http://www.w3.org/2000/svg" xmlns:xlink="http://www.w3.org/1999/xlink" x="0px" y="0px"
	 width="1024px" height="1024px" viewBox="0 0 1024 1024" enable-background="new 0 0 1024 1024" xml:space="preserve">
<g>
	<path d="M133.073,535.569h333.136h23.784h38.784c56.323-58.622,135.458-95.17,222.965-95.17
		c70.032,0,134.694,23.412,186.604,62.798c12.322-27.54-10.647-62.658-10.647-62.658L757.667,84.107
		c-38.505-57.339-97.156-47.499-97.156-47.499H489.992v-0.778H323.424c0,0-57.455-9.841-95.17,47.614L61.687,440.388
		C61.687,440.388,0.735,535.569,133.073,535.569z M359.118,178.615h107.091h23.784h130.852c19.751,0,35.693,15.987,35.693,35.681
		c0,19.752-15.942,35.728-35.693,35.728H489.992h-23.784H359.118c-19.706,0-35.693-15.976-35.693-35.728
		C323.424,194.603,339.412,178.615,359.118,178.615z M263.948,321.399h202.261h23.784h226.056c19.706,0,35.693,15.988,35.693,35.693
		c0,19.694-15.987,35.682-35.693,35.682H489.992h-23.784H263.948c-19.741,0-35.693-15.988-35.693-35.682
		C228.254,337.387,244.207,321.399,263.948,321.399z"/>
	<path d="M61.687,773.523c-13.164,0-23.819,10.666-23.819,23.795V892.5c0,13.152,10.655,23.818,23.819,23.818H491.22
		c-26.842-41.83-43.893-90.516-47.889-142.795H61.687z"/>
	<path d="M37.868,606.979v95.158c0,13.129,10.655,23.795,23.819,23.795h381.645c3.997-52.275,21.049-100.963,47.893-142.795H61.687
		C48.523,583.137,37.868,593.803,37.868,606.979z"/>
	<path d="M942.103,606.941c-6.223-8.283-12.98-16.139-20.209-23.533c-19.085-19.523-41.492-35.781-66.319-47.844
		c-31.379-15.244-66.606-23.803-103.833-23.803c-37.23,0-72.46,8.561-103.841,23.808c-24.71,12.007-47.022,28.167-66.047,47.567
		c-36.883,37.613-61.385,87.408-66.885,142.795c-0.777,7.828-1.182,15.764-1.182,23.795s0.404,15.969,1.182,23.797
		c5.501,55.389,30.005,105.184,66.891,142.795c43.186,44.033,103.34,71.363,169.882,71.363c66.678,0,126.941-27.443,170.146-71.635
		c7.231-7.396,13.992-15.254,20.217-23.539c29.88-39.773,47.592-89.209,47.592-142.781S971.983,646.717,942.103,606.941z
		 M676.102,725.932l22.239-22.494c7.11-7.156,18.335-7.041,25.26,0.256l21.205,22.238l38.842,40.736l39.706-40.736l64.281-65.947
		c4.602-4.764,11.271-6.553,17.476-4.719c6.204,1.813,11.037,6.949,12.618,13.547c1.626,6.555-0.256,13.525-4.903,18.244
		l-37.873,38.875l-46.363,47.592l-32.464,33.322c-7.064,7.227-18.381,7.182-25.375-0.186l-31.61-33.137l-28.529-29.908
		l-29.574,29.908l-65.328,66.064c-3.37,3.439-7.808,5.299-12.502,5.299c-7.366,0-13.942-4.672-16.708-11.852
		c-2.766-7.135-1.115-15.314,4.184-20.705l38.367-38.807L676.102,725.932z"/>
</g>
</svg>
