<?xml version="1.0" standalone="no"?><!DOCTYPE svg PUBLIC "-//W3C//DTD SVG 1.1//EN" "http://www.w3.org/Graphics/SVG/1.1/DTD/svg11.dtd"><svg t="1647247890806" class="icon" viewBox="0 0 1024 1024" version="1.1" xmlns="http://www.w3.org/2000/svg" p-id="2570" xmlns:xlink="http://www.w3.org/1999/xlink" width="48" height="48"><defs><style type="text/css"></style></defs><path d="M925.184 58.56H98.88c-37.930667 0-68.821333 31.594667-68.821333 70.656v651.093333c0 39.04 58.410667 97.578667 96.341333 97.578667h241.045333l93.098667 72.682667a67.050667 67.050667 0 0 0 51.392 23.722666 67.2 67.2 0 0 0 51.456-23.722666l93.162667-72.682667h241.066666c37.930667 0 96.362667-58.538667 96.362667-97.578667V129.216c0.021333-39.04-30.869333-70.656-68.8-70.656z m-172.181333 578.346667H271.061333a48.192 48.192 0 1 1 0-96.426667h481.941334a48.213333 48.213333 0 1 1 0 96.426667z m0-240.938667H271.061333a48.213333 48.213333 0 0 1 0-96.426667h481.941334a48.213333 48.213333 0 1 1 0 96.426667z" p-id="2571"></path></svg>