<svg xmlns="http://www.w3.org/2000/svg" width="20" height="20" viewBox="0 0 20 20">
  <defs>
    <style>
      .cls-1 {
        fill: #9a9a9a;
        fill-rule: evenodd;
      }
    </style>
  </defs>
  <path id="形状_37_拷贝" data-name="形状 37 拷贝" class="cls-1" d="M1763.01,345a4,4,0,1,0-4.01-4,4,4,0,0,0,4.01,4h0ZM1753,340.986a11.54,11.54,0,0,1,.2-2.115,3.769,3.769,0,0,0,2.88-1.928,4.053,4.053,0,0,0,.14-3.652,10,10,0,0,1,3.75-2.291,3.655,3.655,0,0,0,6.16,0,9.9,9.9,0,0,1,3.74,2.318,4.06,4.06,0,0,0,.17,3.625,3.755,3.755,0,0,0,2.76,1.887,11.185,11.185,0,0,1-.08,4.609,3.754,3.754,0,0,0-2.69,1.928,4.048,4.048,0,0,0-.28,3.315,9.917,9.917,0,0,1-3.84,2.318,3.653,3.653,0,0,0-5.77,0,9.977,9.977,0,0,1-3.84-2.264,4.045,4.045,0,0,0-.25-3.4,3.757,3.757,0,0,0-2.79-1.94,10.881,10.881,0,0,1-.26-2.413h0Zm0,0" transform="translate(-1753 -331)"/>
</svg>
