<?xml version="1.0" encoding="utf-8"?>
<!-- Generator: Adobe Illustrator 15.0.0, SVG Export Plug-In . SVG Version: 6.00 Build 0)  -->
<!DOCTYPE svg PUBLIC "-//W3C//DTD SVG 1.1//EN" "http://www.w3.org/Graphics/SVG/1.1/DTD/svg11.dtd">
<svg version="1.1" id="图层_1" xmlns="http://www.w3.org/2000/svg" xmlns:xlink="http://www.w3.org/1999/xlink" x="0px" y="0px"
	 width="1024px" height="1024px" viewBox="0 0 1024 1024" enable-background="new 0 0 1024 1024" xml:space="preserve">
<g>
	<path fill="#040000" d="M916.223,39.06H107.892C48.386,39.06,0.115,87.317,0.115,146.837v565.805
		c0,59.545,48.271,107.831,107.777,107.831h808.331c59.521,0,107.777-48.286,107.777-107.831V146.837
		C1024,87.317,975.743,39.06,916.223,39.06z M797.525,539.267l-149.72,162.034c-14.656,15.867-38.311,15.867-52.89,0
		c-14.551-15.841-14.629-41.469,0-57.231l85.78-92.805H253.1c-20.682,0-37.442-18.155-37.442-40.574
		c0-22.379,16.84-40.508,37.562-40.508h517.837c15.155,0,28.759,9.854,34.522,24.957
		C811.366,510.322,808.209,527.715,797.525,539.267z M770.896,416.267H253.047c-15.143,0-28.747-9.867-34.522-24.958
		c-5.828-15.196-2.658-32.536,8.065-44.14l149.68-162.034c14.644-15.854,38.365-15.854,52.916,0
		c14.564,15.853,14.643,41.469,0,57.243l-85.78,92.845h427.57c20.708,0,37.497,18.103,37.497,40.522
		C808.473,398.124,791.605,416.267,770.896,416.267z"/>
	<path fill="#040000" d="M848.862,878.224H175.267c-22.34,0-40.444,18.103-40.444,40.415v26.944
		c0,22.34,18.104,40.391,40.444,40.391h673.595c22.339,0,40.417-18.051,40.417-40.391v-26.944
		C889.279,896.326,871.201,878.224,848.862,878.224z"/>
</g>
</svg>
