<?xml version="1.0" standalone="no"?><!DOCTYPE svg PUBLIC "-//W3C//DTD SVG 1.1//EN" "http://www.w3.org/Graphics/SVG/1.1/DTD/svg11.dtd"><svg t="1630051800723" class="icon" viewBox="0 0 1102 1024" version="1.1" xmlns="http://www.w3.org/2000/svg" p-id="24747" xmlns:xlink="http://www.w3.org/1999/xlink"><defs><style type="text/css"></style></defs><path d="M1057.877858 1023.212308H44.905551a44.110769 44.110769 0 0 1-1.575385-88.221539h81.132308l-1.575385-515.938461a414.089846 414.089846 0 0 1 33.870769-163.052308 424.802462 424.802462 0 0 1 90.584616-133.12A443.155692 443.155692 0 0 1 382.037858 33.083077 435.593846 435.593846 0 0 1 546.665551 0a423.148308 423.148308 0 0 1 388.332307 256 414.089846 414.089846 0 0 1 33.87077 163.052308v515.938461h87.433846a44.110769 44.110769 0 1 1 1.575384 88.221539zM581.324012 505.698462V178.806154l-215.827692 401.723077h157.538462v311.138461l211.101538-385.96923H581.324012z" p-id="24748"></path></svg>