<svg xmlns="http://www.w3.org/2000/svg" width="20" height="20" viewBox="0 0 20 20">
  <defs>
    <style>
      .cls-1 {
        fill: #9a9a9a;
        fill-rule: evenodd;
      }
    </style>
  </defs>
  <path id="形状_1" data-name="形状 1" class="cls-1" d="M1559,331c0.19,0,.39.009,0.58,0.028,0.6,0.058,1.42.338,1.42,0.972v14c0,0.661-.86,2.231-1.49,2.254a10.133,10.133,0,0,0-2.9.479A5.191,5.191,0,0,0,1554,350V334a4.876,4.876,0,0,1,2.61-2.493A6,6,0,0,1,1559,331h0Zm3,16V334a0.64,0.64,0,0,1,.65.105,1.263,1.263,0,0,1,.35.867v13.476a2.2,2.2,0,0,1-2.35,2.393,16.255,16.255,0,0,0-2.38-.138,17.265,17.265,0,0,0-3.76.3,6.24,6.24,0,0,1,2.48-1.227,15.19,15.19,0,0,1,2.59-.264,2.263,2.263,0,0,0,2.24-2.19Zm-15-16a5.986,5.986,0,0,1,2.39.507A4.869,4.869,0,0,1,1552,334v16a5.107,5.107,0,0,0-2.61-1.264,10.069,10.069,0,0,0-2.9-.477c-0.63-.023-1.49-1.6-1.49-2.259V332c0-.634.82-0.912,1.42-0.97A5.5,5.5,0,0,1,1547,331h0Zm-2.82,16.319a2.19,2.19,0,0,0,2.27,2.19c1.02,0.04,1.66.157,2.56,0.264a4.79,4.79,0,0,1,2.5,1.227,15.814,15.814,0,0,0-3.78-.3c-0.91,0-1.07.138-2.38,0.138a2.452,2.452,0,0,1-2.35-2.393V334.97a0.865,0.865,0,0,1,1-.97v13ZM1544,347" transform="translate(-1543 -331)"/>
</svg>
