<?xml version="1.0" encoding="utf-8"?>
<!-- Generator: Adobe Illustrator 15.0.0, SVG Export Plug-In . SVG Version: 6.00 Build 0)  -->
<!DOCTYPE svg PUBLIC "-//W3C//DTD SVG 1.1//EN" "http://www.w3.org/Graphics/SVG/1.1/DTD/svg11.dtd">
<svg version="1.1" id="图层_1" xmlns="http://www.w3.org/2000/svg" xmlns:xlink="http://www.w3.org/1999/xlink" x="0px" y="0px"
	 width="1024px" height="1024px" viewBox="0 0 1024 1024" enable-background="new 0 0 1024 1024" xml:space="preserve">
<path d="M51.187,207.818v614.426c0,56.412,55.981,102.346,124.99,102.346h312.38V105.41h-312.38
	C107.168,105.41,51.187,151.344,51.187,207.818z M251.337,317.354h34.654v87.879h156.859v183.797h-33.148v-21.771h-123.71v149.996
	h-34.654V567.258H129.165v21.771h-33.12V405.232h155.293V317.354z"/>
<rect x="285.992" y="434.949" width="123.71" height="102.461"/>
<rect x="129.165" y="434.949" width="122.173" height="102.461"/>
<path d="M762.954,389.612h-1.095c-1.518,10.298-3.42,17.984-5.433,23.558l-50.464,140.039h113.063L768.174,413.17
	C766.62,408.583,764.823,400.757,762.954,389.612z"/>
<path d="M853.673,105.41H556.105l-0.109,819.18h0.109h297.567c65.655,0,119.14-45.934,119.14-102.346V207.818
	C972.813,151.344,919.328,105.41,853.673,105.41z M866.879,683.377l-34.346-92.116H692.28l-32.41,92.116h-47.996l128.227-336.754
	h46.55L915.02,683.377H866.879z"/>
</svg>
