<?xml version="1.0" encoding="utf-8"?>
<!-- Generator: Adobe Illustrator 15.0.0, SVG Export Plug-In . SVG Version: 6.00 Build 0)  -->
<!DOCTYPE svg PUBLIC "-//W3C//DTD SVG 1.1//EN" "http://www.w3.org/Graphics/SVG/1.1/DTD/svg11.dtd">
<svg version="1.1" id="图层_1" xmlns="http://www.w3.org/2000/svg" xmlns:xlink="http://www.w3.org/1999/xlink" x="0px" y="0px"
	 width="1024px" height="1024px" viewBox="0 0 1024 1024" enable-background="new 0 0 1024 1024" xml:space="preserve">
<g>
	<path d="M364.36,80.608h295.724c21.763,0,40.104-18.079,40.104-40.354S681.847-0.021,658.952-0.021H364.36
		c-22.894,0-41.222,17.999-41.222,40.274S341.466,80.608,364.36,80.608z"/>
	<path d="M891.363,30.755l-136.968-3.829c1,5.039,0,21.789,0,26.946c0.053,38.853-46.998,80.825-80.812,80.825
		H350.203c-35.604,0-80.825-42.012-80.825-80.825c0.039-5.158-0.96-21.907,0-26.946H134.66
		c-77.338,0-107.785,47.261-107.785,109.903v782.163c0,67.286,27.196,104.942,102.153,104.942h756.519
		c74.943,0,111.39-29.525,111.39-104.916V136.829C996.938,74.187,962.833,30.755,891.363,30.755z M350.229,835.284H188.565V619.741
		c0-29.788,24.131-53.919,53.879-53.919h53.879c29.789,0,53.906,24.131,53.906,53.919V835.284z M592.744,835.284H431.068V350.28
		c0-29.788,24.13-53.918,53.879-53.918h53.905c29.764,0,53.893,24.13,53.893,53.918V835.284z M835.233,835.284H673.584V484.997
		c0-29.749,24.129-53.879,53.918-53.879h53.865c29.737,0,53.866,24.13,53.866,53.879V835.284z"/>
</g>
</svg>
