<svg xmlns="http://www.w3.org/2000/svg" width="20" height="20.031" viewBox="0 0 20 20.031">
  <defs>
    <style>
      .cls-1 {
        fill: #9a9a9a;
        fill-rule: evenodd;
      }
    </style>
  </defs>
  <path id="形状_5" data-name="形状 5" class="cls-1" d="M1491.89,345.026l-8.74,4.085-9.03-4.231a0.776,0.776,0,0,0-1.02.506,0.951,0.951,0,0,0,.4,1.17l9.35,4.372a0.71,0.71,0,0,0,.62,0l9.03-4.225a0.956,0.956,0,0,0,.41-1.171,0.783,0.783,0,0,0-1.02-.506h0ZM1474,339l8.85,3.884a0.629,0.629,0,0,0,.62,0L1492,339a4.327,4.327,0,0,0,1-1.973c0-.421-2.2-1.8-2.5-1.965l-7.35-3.983a0.689,0.689,0,0,0-.64,0l-7,3.815a13.729,13.729,0,0,0-2.44,1.587,1.306,1.306,0,0,0-.01.806A7.164,7.164,0,0,0,1474,339h0Zm1.89-2.113h0Zm0,0,16,4.486-8.74,4.086-9.03-4.226a0.778,0.778,0,0,0-1.02.506,0.952,0.952,0,0,0,.4,1.171l9.35,4.372a0.71,0.71,0,0,0,.62,0l9.03-4.226a0.956,0.956,0,0,0,.41-1.17,0.783,0.783,0,0,0-1.02-.506v-0.007Zm0,0" transform="translate(-1473 -331)"/>
</svg>
